<?xml version="1.0" encoding="iso-8859-1"?>
<!-- Generator: Adobe Illustrator 22.1.0, SVG Export Plug-In . SVG Version: 6.00 Build 0)  -->
<svg version="1.1" id="_x31_" xmlns="http://www.w3.org/2000/svg" xmlns:xlink="http://www.w3.org/1999/xlink" x="0px" y="0px"
	 viewBox="0 0 512 512" style="enable-background:new 0 0 512 512;" xml:space="preserve">
<g>
	<path style="fill:#3E3A39;" d="M373.476,164.186c-4.693-77.913-66.742-99.547-67.873-107.466
		c-1.131-7.918-19.231-59.955-37.33-56.561c-9.758,1.83-40.724,28.28-47.511,44.117c-15.195,0.078-16.968-0.273-16.968-0.273
		s-1.774,0.351-16.968,0.273c-6.787-15.837-37.754-42.288-47.511-44.117c-18.1-3.394-36.199,48.642-37.33,56.561
		c-1.131,7.919-63.18,29.553-67.873,107.466c-5.656,93.891,92.76,117.647,169.683,117.647
		C280.716,281.832,379.132,258.077,373.476,164.186z"/>
	<path style="fill:#EEEEEF;" d="M85.953,160.383c21.728-33.477,86.715-33.077,102.169,15.732c0.519,1.637,0.502,3.399-0.022,5.034
		c-12.706,39.65-100.106,39.021-104.65-10.774C83.129,166.861,84.032,163.342,85.953,160.383z"/>
	<path style="fill:#3E3A39;" d="M126.527,199.848c-5.143-2.483-7.634-14.492-7.127-26.618c0.611-14.622,5.581-29.416,15.513-27.888
		C153.082,148.137,146.792,209.631,126.527,199.848z"/>
	<path style="fill:#EEEEEF;" d="M311.501,160.383c-21.728-33.477-86.715-33.077-102.169,15.732
		c-0.518,1.637-0.502,3.399,0.022,5.034c12.706,39.65,100.106,39.021,104.65-10.774
		C314.325,166.861,313.422,163.342,311.501,160.383z"/>
	<path style="fill:#3E3A39;" d="M270.926,199.848c5.143-2.483,7.634-14.492,7.127-26.618c-0.611-14.622-5.581-29.416-15.513-27.888
		C244.372,148.137,250.661,209.631,270.926,199.848z"/>
	<path style="fill:#3E3A39;" d="M456.637,395.276c-29.669-15.615-64.023-7.808-53.092-26.546
		c10.931-18.738-3.123-43.723-24.984-28.108c-9.018,6.441-14.045,18.729-13.886,31.052
		c-22.784-48.722-65.536-122.159-95.421-134.113c-12.933-5.173-34.971-1.507-56.355,4.562c-0.926-0.943-1.422-1.439-1.422-1.439
		l-0.169,1.894c-29.669,8.596-57.607,21.529-57.607,21.529c-1.562,7.808,1.561,104.623,1.561,104.623s-28.107,7.807-21.861,37.477
		c6.246,29.669,37.477,81.199,31.23,79.638c-6.246-1.562-12.492,6.246-1.562,17.177c10.931,10.931,53.092,7.808,53.092,7.808
		s48.407,4.685,67.146-4.685c2.785-1.392,4.147-2.784,4.462-4.146c12.54,3.617,28.161,5.682,45.507,2.585
		c11.232-2.006,20.397-8.14,27.454-16.96c35.952,5.034,70.967-0.735,94.346-14.271C484.744,456.175,486.306,410.891,456.637,395.276
		z M445.706,445.245c-12.973,14.27-38.884,15.597-69.664,6.687c3.343-17.405,2.757-36.92-1.884-55.068
		c5.816,6.224,14.444,10.467,26.264,10.905C442.583,409.329,461.321,428.068,445.706,445.245z"/>
</g>
</svg>
