<?xml version="1.0" encoding="iso-8859-1"?>
<!-- Generator: Adobe Illustrator 15.1.0, SVG Export Plug-In . SVG Version: 6.00 Build 0)  -->
<!DOCTYPE svg PUBLIC "-//W3C//DTD SVG 1.1//EN" "http://www.w3.org/Graphics/SVG/1.1/DTD/svg11.dtd">
<svg version="1.1" id="_x36_" xmlns="http://www.w3.org/2000/svg" xmlns:xlink="http://www.w3.org/1999/xlink" x="0px" y="0px"
	 width="512px" height="512px" viewBox="0 0 512 512" style="enable-background:new 0 0 512 512;" xml:space="preserve">
<g>
	<path style="fill:#FFFFFF;" d="M137.901,260.009c-45.909,11.489-68.473-26.058-82.529-65.146
		c-13.591-37.794-19.237-77.03-30.328-74.814c-22.582,4.522-38.375-42.879-9.04-54.167c29.353-11.292,58.705,4.52,60.958,42.896
		c2.252,38.373,38.374,94.793,58.687,65.459l1.143,43.754L137.901,260.009z"/>
	<path style="fill:#EAEAEA;" d="M137.901,260.009c-45.909,11.489-68.473-26.058-82.529-65.146
		c18.626,21.259,46.173,38.672,81.419,23.128L137.901,260.009z"/>
	<path style="fill:#FFFFFF;" d="M304.064,171.602l0.006,0.161v0.098C304.07,171.774,304.067,171.69,304.064,171.602z"/>
	<path style="fill:#FFFFFF;" d="M358.051,469.866c-16.237,2.705-94.23,1.921-130.766-21.152
		c-9.068-5.729-18.793-12.875-28.459-22.006c-20.699-19.553-41.122-48.191-54.228-91.447
		c-23.404-77.236-19.229-140.373-13.46-179.796c9.149-62.522,51.226-114.416,114.415-114.416c49.988,0,92.491,32.058,108.067,76.735
		c4.115,11.797,6.35,24.48,6.35,37.681c0,36.973,7.881,86.985-26.923,179.796c-17.309,46.149-6.315,100.682,23.077,115.377
		C390.734,467.945,381.119,466.021,358.051,469.866z"/>
	<g>
		<path style="fill:#1A1A1A;" d="M257.576,86.769c-17.83,4.191-16.804,31.928-5.04,53.772c11.76,21.845,36.966,21.845,40.329,1.681
			C296.227,122.055,275.193,82.623,257.576,86.769z"/>
		<path style="fill:#1A1A1A;" d="M217.247,88.446c13.26,8.396,5.041,58.818-21.847,63.857c-26.886,5.04-15.942-29.678-8.401-42.012
			C195.221,96.842,201.955,78.766,217.247,88.446z"/>
		<path style="fill:#1A1A1A;" d="M199.203,220.344c5.83-0.177,5.833-8.964,11.667-8.964s5.834,8.964,11.667,8.964
			c5.834,0,5.834-8.964,11.669-8.964c5.833,0,5.833,8.964,11.668,8.964c5.833,0,5.833-8.964,11.669-8.964s5.915,8.006,11.668,8.964
			c6.785,1.127,7.498-17.092,5.818-26.332c-1.68-9.239-3.36-26.042-12.538-24.638c-4.705,0.723-4.76,8.963-9.52,8.963
			c-4.76,0-4.76-8.963-9.519-8.963c-4.761,0-4.761,8.963-9.521,8.963c-4.762,0-4.762-8.963-9.523-8.963
			c-4.76,0-4.76,8.963-9.523,8.963c-4.763,0-4.956-7.617-9.523-8.963c-7.62-2.243-9.301,8.675-11.822,22.118
			C191.02,204.93,189.74,220.632,199.203,220.344z"/>
	</g>
	<path style="fill:#1A1A1A;" d="M227.751,150.745c-1.704-2.727,1.962-16.332,6.534-12.739c4.573,3.593,4.573,13.721,1.632,13.721
		c-2.939,0-2.286-2.614-3.592-1.961C231.019,150.419,229.385,153.358,227.751,150.745z"/>
	<path style="fill:#EAEAEA;" d="M358.051,469.866c-16.237,2.705-94.23,1.921-130.766-21.152
		c-9.068-5.729-18.793-12.875-28.459-22.006c68.988,36.052,129.995,38.393,99.606,0.854
		c-32.687-40.384-5.767-130.761,26.923-190.371c16.374-29.857,28.876-93.681,28.265-119.407c4.115,11.797,6.35,24.48,6.35,37.681
		c0,36.973,7.881,86.985-26.923,179.796c-17.309,46.149-6.315,100.682,23.077,115.377
		C390.734,467.945,381.119,466.021,358.051,469.866z"/>
	<path style="fill:#FFFFFF;" d="M467.502,125.398c-25.678,0-32.682,189.061-135.373,147.042l15.264-74.383l3.41-16.635
		c47.713,16.933,45.263-130.575,114.364-133.04c25.099-0.894,41.289,14.933,45.644,32.465
		C516.19,102.468,503.591,126.687,467.502,125.398z"/>
	<path style="fill:#EAEAEA;" d="M467.502,125.398c-25.678,0-32.682,189.061-135.373,147.042l15.264-74.383
		c2.003-0.611,4.089-1.109,6.258-1.44c0,29.802,24.833,49.669,44.699,4.966c19.883-44.714,54.649-104.313,54.649-104.313
		s33.507,2.58,57.812-16.423C516.19,102.468,503.591,126.687,467.502,125.398z"/>
</g>
</svg>
