<?xml version="1.0" encoding="iso-8859-1"?>
<!-- Generator: Adobe Illustrator 22.1.0, SVG Export Plug-In . SVG Version: 6.00 Build 0)  -->
<svg version="1.1" id="_x35_" xmlns="http://www.w3.org/2000/svg" xmlns:xlink="http://www.w3.org/1999/xlink" x="0px" y="0px"
	 viewBox="0 0 512 512" style="enable-background:new 0 0 512 512;" xml:space="preserve">
<g>
	<g>
		<path style="fill:#FFFFFF;" d="M511.744,410.8c-3.114-5.082-8.427-8.833-19.368-6.097c-9.997,2.499-16.833-1.651-14.913-10.969
			c2.945-4.559,5.487-9.401,7.564-14.485l0.202-0.269l-0.085-0.028c4.143-10.239,6.444-21.421,6.444-33.145
			c0-48.856-39.605-88.462-88.462-88.462c-48.855,0-88.461,39.606-88.461,88.462c0,42.275,29.663,77.602,69.305,86.358
			c26.734,9.116,79.261,15.043,103.404-1.738c11.536-8.018,16.582-16.529,23.051-16.954
			C511.701,413.388,512.413,411.892,511.744,410.8z"/>
		<path style="fill:#6A3906;" d="M386.007,331.74c5.135,2.37,12.325-4.801,21.411,1.52c1.185,0.395-2.78,0.126-3.284,2.779
			c-0.675,3.547,0.044,9.528-6.672,10.318c-6.715,0.79-7.11-10.666-7.11-10.666S384.03,332.135,386.007,331.74z"/>
		<path style="fill:#F09289;" d="M337.222,331.305l12.702-13.549c0.251-0.268,0.238-0.688-0.03-0.939
			c-0.268-0.251-0.688-0.237-0.939,0.03l-12.702,13.549c-0.251,0.268-0.238,0.688,0.03,0.939
			C336.551,331.587,336.971,331.573,337.222,331.305"/>
		<path style="fill:#F09289;" d="M336.162,326.663l8.046-8.046c0.26-0.26,0.26-0.68,0-0.94c-0.26-0.26-0.68-0.26-0.94,0
			l-8.046,8.045c-0.26,0.26-0.26,0.68,0,0.94C335.482,326.923,335.903,326.923,336.162,326.663"/>
		<path style="fill:#F09289;" d="M335.43,337.722l19.174-19.174c0.26-0.26,0.26-0.68,0-0.94s-0.68-0.26-0.94,0l-19.174,19.174
			c-0.26,0.259-0.26,0.68,0,0.94C334.749,337.982,335.17,337.982,335.43,337.722"/>
		<path style="fill:#F09289;" d="M336.536,342.865l23.412-23.524c0.259-0.26,0.258-0.681-0.002-0.94s-0.681-0.258-0.94,0.002
			l-23.412,23.524c-0.259,0.26-0.258,0.681,0.002,0.94C335.856,343.126,336.277,343.125,336.536,342.865"/>
		<path style="fill:#F09289;" d="M339.5,345.829l23.437-23.528c0.259-0.26,0.258-0.681-0.002-0.94
			c-0.26-0.259-0.681-0.258-0.94,0.002l-23.437,23.528c-0.259,0.26-0.258,0.681,0.002,0.94
			C338.82,346.09,339.241,346.089,339.5,345.829"/>
		<path style="fill:#F09289;" d="M363.901,324.751l-20.96,21.171c-0.258,0.261-0.256,0.682,0.005,0.94
			c0.261,0.258,0.682,0.256,0.94-0.005l20.96-21.171c0.258-0.261,0.256-0.682-0.005-0.94
			C364.58,324.488,364.159,324.49,363.901,324.751"/>
		<path style="fill:#F09289;" d="M348.973,348.545l17.149-17.783c0.255-0.264,0.247-0.685-0.017-0.94
			c-0.264-0.255-0.685-0.247-0.94,0.017l-17.149,17.783c-0.255,0.264-0.247,0.685,0.017,0.94
			C348.297,348.816,348.718,348.809,348.973,348.545"/>
		<path style="fill:#F09289;" d="M354.883,347.927l11.01-10.585c0.264-0.254,0.273-0.675,0.018-0.94
			c-0.254-0.265-0.675-0.273-0.94-0.019l-11.01,10.585c-0.264,0.254-0.273,0.675-0.018,0.94
			C354.197,348.173,354.618,348.182,354.883,347.927"/>
		<path style="fill:#F09289;" d="M429.797,333.725l12.703-13.549c0.251-0.268,0.238-0.688-0.03-0.939
			c-0.268-0.251-0.688-0.237-0.94,0.03l-12.703,13.549c-0.251,0.268-0.238,0.688,0.03,0.939
			C429.125,334.007,429.546,333.993,429.797,333.725"/>
		<path style="fill:#F09289;" d="M428.738,329.083l8.044-8.044c0.26-0.26,0.26-0.68,0-0.94c-0.26-0.26-0.68-0.26-0.94,0
			l-8.045,8.045c-0.26,0.26-0.26,0.68,0,0.94C428.057,329.343,428.478,329.343,428.738,329.083"/>
		<path style="fill:#F09289;" d="M428.005,340.142l19.173-19.174c0.26-0.26,0.26-0.68,0-0.94c-0.26-0.26-0.68-0.26-0.94,0
			l-19.173,19.174c-0.26,0.259-0.26,0.68,0,0.94C427.325,340.402,427.746,340.402,428.005,340.142"/>
		<path style="fill:#F09289;" d="M429.112,345.284l23.412-23.523c0.259-0.26,0.258-0.681-0.002-0.94
			c-0.26-0.259-0.681-0.258-0.94,0.002l-23.412,23.523c-0.259,0.26-0.258,0.681,0.002,0.94
			C428.432,345.546,428.853,345.545,429.112,345.284"/>
		<path style="fill:#F09289;" d="M432.075,348.249l23.438-23.528c0.259-0.26,0.258-0.681-0.002-0.94
			c-0.26-0.259-0.681-0.258-0.94,0.002l-23.438,23.528c-0.259,0.26-0.258,0.681,0.002,0.94
			C431.395,348.51,431.816,348.509,432.075,348.249"/>
		<path style="fill:#F09289;" d="M456.476,327.171l-20.959,21.171c-0.258,0.261-0.256,0.682,0.005,0.94
			c0.261,0.258,0.682,0.256,0.94-0.005l20.959-21.171c0.258-0.261,0.256-0.682-0.005-0.94
			C457.155,326.908,456.734,326.91,456.476,327.171"/>
		<path style="fill:#F09289;" d="M441.549,350.965l17.148-17.783c0.255-0.264,0.248-0.685-0.017-0.94
			c-0.264-0.255-0.685-0.247-0.94,0.017l-17.148,17.783c-0.255,0.264-0.247,0.685,0.017,0.94
			C440.874,351.237,441.294,351.229,441.549,350.965"/>
		<path style="fill:#F09289;" d="M447.458,350.347l11.01-10.585c0.265-0.254,0.273-0.675,0.019-0.94
			c-0.255-0.265-0.675-0.273-0.94-0.018l-11.01,10.585c-0.265,0.254-0.273,0.675-0.018,0.94
			C446.773,350.593,447.193,350.602,447.458,350.347"/>
		<path style="fill:#8D8D8D;" d="M338.175,360.236c-1.049,4.729-2.214,9.885-3.594,13.746c-0.684,1.927-1.434,3.527-2.154,4.523
			c-0.356,0.499-0.699,0.839-0.966,1.019c-0.273,0.182-0.433,0.218-0.592,0.221c-0.186-0.001-0.498-0.065-1.018-0.466
			c-0.239-0.184-0.517-0.521-0.774-1.048c-0.389-0.785-0.709-1.964-0.905-3.37c-0.199-1.407-0.286-3.039-0.286-4.763
			c-0.001-4.09,0.486-8.684,0.976-12.234c0.245-1.776,0.49-3.293,0.674-4.363c0.091-0.535,0.168-0.958,0.221-1.247
			s0.082-0.436,0.082-0.436c0.171-0.875-0.4-1.723-1.275-1.893c-0.875-0.171-1.722,0.4-1.893,1.275
			c-0.006,0.052-2.008,10.239-2.013,18.898c0.002,2.443,0.157,4.768,0.596,6.779c0.222,1.006,0.514,1.938,0.925,2.777
			c0.411,0.836,0.948,1.594,1.689,2.173c0.897,0.703,1.923,1.147,3.001,1.146c0.894,0.003,1.736-0.314,2.418-0.787
			c1.199-0.838,2.047-2.077,2.824-3.558c1.149-2.226,2.085-5.073,2.934-8.165c0.845-3.09,1.589-6.416,2.281-9.526
			c0.193-0.87-0.355-1.732-1.226-1.926C339.231,358.817,338.369,359.366,338.175,360.236L338.175,360.236z"/>
		<path style="fill:#8D8D8D;" d="M458.002,359.214c0.269,0.938,0.661,2.564,1.171,4.433c0.77,2.814,1.8,6.199,3.229,9.009
			c0.72,1.406,1.535,2.678,2.561,3.68c1.01,0.991,2.339,1.749,3.888,1.747c0.484,0,0.974-0.074,1.454-0.218
			c1.865-0.544,3.273-1.929,4.06-3.641c0.804-1.719,1.122-3.77,1.126-6.083c-0.01-5.402-1.777-12.349-4.759-19.662
			c-0.337-0.825-1.28-1.22-2.105-0.883c-0.825,0.337-1.22,1.28-0.883,2.105c2.885,7.039,4.528,13.741,4.518,18.441
			c0.004,2.006-0.302,3.625-0.817,4.706c-0.533,1.088-1.142,1.632-2.067,1.925c-0.2,0.059-0.369,0.082-0.527,0.082
			c-0.327-0.003-0.636-0.092-1.028-0.339c-0.678-0.424-1.499-1.404-2.232-2.737c-1.113-1.994-2.065-4.703-2.805-7.221
			c-0.746-2.528-1.284-4.843-1.679-6.23c-0.245-0.857-1.139-1.353-1.995-1.108C458.253,357.464,457.757,358.357,458.002,359.214
			L458.002,359.214z"/>
		<path style="fill:#6A3906;" d="M385.117,311.112c0,1.971-1.599,3.57-3.57,3.57c-1.971,0-3.57-1.599-3.57-3.57
			c0-1.971,1.599-3.569,3.57-3.569C383.518,307.543,385.117,309.141,385.117,311.112z"/>
		<path style="fill:#6A3906;" d="M415.867,311.662c0,1.819-1.474,3.294-3.293,3.294c-1.821,0-3.295-1.475-3.295-3.294
			c0-1.82,1.474-3.295,3.295-3.295C414.393,308.367,415.867,309.842,415.867,311.662z"/>
	</g>
	<g>
		<path style="fill:#6A3906;" d="M290.636,207.178c-3.519,25.287-68.707,37.107-145.598,26.403
			C68.145,222.877,8.665,193.7,12.186,168.415c3.52-25.287,68.707-37.109,145.6-26.405
			C234.677,152.714,294.156,181.891,290.636,207.178z"/>
		<path style="fill:#FFFFFF;" d="M303.074,397.624c-4.789-7.817-12.96-13.583-29.787-9.377
			c-15.371,3.843-25.886-2.539-22.933-16.868c4.53-7.011,8.437-14.457,11.632-22.275l0.312-0.414l-0.133-0.043
			c6.371-15.746,9.91-32.941,9.91-50.971c0-75.132-60.906-136.039-136.037-136.039S0,222.544,0,297.676
			c0,65.011,45.616,119.337,106.579,132.802c41.111,14.018,121.887,23.134,159.017-2.672c17.738-12.33,25.498-25.418,35.446-26.073
			C303.007,401.604,304.102,399.303,303.074,397.624z"/>
		<path style="fill:#6A3906;" d="M255.559,209.787c-1.007,7.232-38.194-41.669-100.062-50.281
			c-61.868-8.612-124.988,26.323-123.982,19.093c1.007-7.232,55.569-12.134,117.437-3.522
			C210.82,183.689,256.565,202.555,255.559,209.787z"/>
		<path style="fill:#6A3906;" d="M108.746,145.545c7.891-12.277,69.755-62.333,91.351-76.947c2.835-1.918,6.676-0.048,6.953,3.362
			l7.396,91.534L108.746,145.545z"/>
		<path style="fill:#6A3906;" d="M100.598,246.883c-4.31,3.833-8.273,4.961-10.205,4.423c-2.083-0.58-1.811-3.094,2.914-6.245
			c4.557-3.037,7.745-3.797,9.113-3.188C103.788,242.48,103.332,244.453,100.598,246.883z"/>
		<path style="fill:#6A3906;" d="M153.081,248.099c4.311,3.831,8.272,4.959,10.205,4.422c2.083-0.58,1.811-3.094-2.916-6.245
			c-4.556-3.037-7.745-3.796-9.111-3.188C149.891,243.695,150.348,245.668,153.081,248.099z"/>
		<path style="fill:#6A3906;" d="M109.711,276.044c7.897,3.645,18.954-7.383,32.927,2.337c1.822,0.607-4.273,0.194-5.051,4.273
			c-1.038,5.453,0.068,14.652-10.259,15.867c-10.328,1.215-10.935-16.402-10.935-16.402S106.673,276.651,109.711,276.044z"/>
		<path style="fill:#F09289;" d="M34.689,275.376l19.535-20.837c0.386-0.412,0.365-1.059-0.046-1.445
			c-0.412-0.386-1.059-0.365-1.445,0.046l-19.535,20.837c-0.386,0.412-0.365,1.059,0.046,1.445
			C33.656,275.808,34.303,275.787,34.689,275.376"/>
		<path style="fill:#F09289;" d="M33.06,268.237l12.373-12.372c0.399-0.399,0.399-1.046,0-1.445c-0.399-0.399-1.046-0.399-1.445,0
			l-12.372,12.372c-0.399,0.399-0.399,1.046,0,1.445C32.014,268.636,32.661,268.636,33.06,268.237"/>
		<path style="fill:#F09289;" d="M31.934,285.244l29.486-29.486c0.399-0.399,0.399-1.046,0-1.445c-0.399-0.399-1.046-0.399-1.445,0
			l-29.486,29.486c-0.399,0.399-0.399,1.046,0,1.445C30.888,285.643,31.535,285.643,31.934,285.244"/>
		<path style="fill:#F09289;" d="M33.635,293.151l36.002-36.175c0.398-0.4,0.396-1.047-0.004-1.446
			c-0.4-0.398-1.047-0.397-1.446,0.003l-36.002,36.175c-0.398,0.4-0.396,1.047,0.003,1.445
			C32.59,293.553,33.237,293.551,33.635,293.151"/>
		<path style="fill:#F09289;" d="M38.192,297.709l36.044-36.181c0.398-0.4,0.397-1.047-0.003-1.445
			c-0.4-0.398-1.047-0.397-1.446,0.003l-36.044,36.181c-0.398,0.4-0.397,1.047,0.003,1.445
			C37.147,298.11,37.794,298.109,38.192,297.709"/>
		<path style="fill:#F09289;" d="M75.716,265.297l-32.231,32.556c-0.397,0.401-0.394,1.048,0.007,1.445
			c0.401,0.397,1.048,0.394,1.445-0.007l32.231-32.556c0.397-0.401,0.394-1.048-0.007-1.445
			C76.76,264.892,76.113,264.895,75.716,265.297"/>
		<path style="fill:#F09289;" d="M52.761,301.886l26.371-27.347c0.392-0.406,0.38-1.053-0.026-1.445
			c-0.406-0.392-1.053-0.38-1.445,0.026l-26.37,27.347c-0.392,0.406-0.38,1.053,0.026,1.445
			C51.722,302.304,52.369,302.293,52.761,301.886"/>
		<path style="fill:#F09289;" d="M61.849,300.937l16.93-16.278c0.407-0.391,0.42-1.038,0.028-1.445
			c-0.391-0.407-1.038-0.42-1.445-0.028l-16.93,16.278c-0.407,0.391-0.42,1.038-0.028,1.445
			C60.795,301.315,61.442,301.328,61.849,300.937"/>
		<path style="fill:#F09289;" d="M177.053,279.097l19.535-20.837c0.386-0.412,0.365-1.059-0.046-1.445
			c-0.412-0.386-1.059-0.365-1.445,0.047l-19.535,20.837c-0.386,0.412-0.365,1.059,0.046,1.445
			C176.02,279.53,176.667,279.509,177.053,279.097"/>
		<path style="fill:#F09289;" d="M175.425,271.958l12.371-12.371c0.399-0.399,0.399-1.046,0-1.445c-0.399-0.399-1.046-0.399-1.446,0
			l-12.371,12.371c-0.399,0.399-0.399,1.046,0,1.445C174.378,272.358,175.025,272.358,175.425,271.958"/>
		<path style="fill:#F09289;" d="M174.298,288.965l29.486-29.486c0.399-0.399,0.399-1.046,0-1.445c-0.399-0.399-1.046-0.399-1.446,0
			l-29.486,29.486c-0.399,0.399-0.399,1.046,0,1.445C173.252,289.364,173.899,289.364,174.298,288.965"/>
		<path style="fill:#F09289;" d="M176,296.873l36.002-36.175c0.398-0.4,0.396-1.047-0.004-1.445c-0.4-0.398-1.047-0.397-1.445,0.004
			l-36.002,36.175c-0.398,0.4-0.396,1.047,0.003,1.445C174.954,297.275,175.601,297.273,176,296.873"/>
		<path style="fill:#F09289;" d="M180.556,301.432L216.6,265.25c0.398-0.4,0.397-1.047-0.003-1.445
			c-0.4-0.398-1.047-0.397-1.445,0.003l-36.044,36.182c-0.398,0.4-0.397,1.047,0.003,1.445
			C179.511,301.833,180.158,301.832,180.556,301.432"/>
		<path style="fill:#F09289;" d="M218.08,269.018l-32.231,32.557c-0.397,0.401-0.394,1.048,0.007,1.445
			c0.401,0.397,1.048,0.394,1.445-0.007l32.231-32.557c0.397-0.401,0.394-1.048-0.007-1.445
			C219.124,268.614,218.477,268.617,218.08,269.018"/>
		<path style="fill:#F09289;" d="M195.125,305.608l26.37-27.347c0.392-0.406,0.38-1.053-0.026-1.445
			c-0.406-0.392-1.053-0.38-1.445,0.026l-26.37,27.347c-0.392,0.406-0.38,1.053,0.026,1.445
			C194.086,306.026,194.733,306.014,195.125,305.608"/>
		<path style="fill:#F09289;" d="M204.213,304.658l16.93-16.278c0.407-0.391,0.42-1.038,0.028-1.445
			c-0.391-0.407-1.038-0.42-1.445-0.028l-16.93,16.278c-0.407,0.391-0.42,1.038-0.028,1.445
			C203.159,305.037,203.806,305.05,204.213,304.658"/>
		<path style="fill:#8D8D8D;" d="M36.156,319.865c-1.613,7.272-3.405,15.201-5.528,21.139c-1.051,2.963-2.205,5.424-3.312,6.955
			c-0.548,0.768-1.075,1.29-1.485,1.567c-0.42,0.28-0.665,0.335-0.91,0.34c-0.286-0.002-0.765-0.1-1.566-0.716
			c-0.368-0.282-0.794-0.801-1.191-1.612c-0.599-1.208-1.091-3.022-1.392-5.184c-0.306-2.163-0.441-4.675-0.44-7.325
			c-0.002-6.289,0.747-13.354,1.501-18.812c0.376-2.73,0.753-5.063,1.035-6.708c0.141-0.823,0.259-1.474,0.34-1.917
			c0.082-0.443,0.126-0.67,0.126-0.671c0.262-1.345-0.616-2.649-1.961-2.911c-1.345-0.263-2.649,0.615-2.911,1.961
			c-0.01,0.08-3.086,15.743-3.095,29.059c0.003,3.757,0.241,7.333,0.917,10.426c0.341,1.548,0.791,2.98,1.423,4.271
			c0.633,1.285,1.457,2.451,2.598,3.342c1.379,1.081,2.957,1.764,4.615,1.762c1.375,0.005,2.67-0.483,3.719-1.211
			c1.843-1.289,3.148-3.194,4.343-5.471c1.767-3.424,3.206-7.801,4.512-12.557c1.3-4.751,2.444-9.867,3.507-14.65
			c0.297-1.338-0.546-2.664-1.885-2.961C37.779,317.683,36.453,318.527,36.156,319.865L36.156,319.865z"/>
		<path style="fill:#8D8D8D;" d="M220.428,318.293c0.413,1.443,1.016,3.942,1.8,6.817c1.184,4.327,2.768,9.534,4.965,13.854
			c1.107,2.162,2.361,4.118,3.938,5.658c1.553,1.524,3.597,2.689,5.978,2.686c0.744,0,1.498-0.114,2.237-0.336
			c2.867-0.836,5.033-2.966,6.244-5.599c1.237-2.643,1.725-5.797,1.731-9.354c-0.015-8.307-2.733-18.991-7.321-30.237
			c-0.519-1.269-1.968-1.876-3.237-1.357c-1.269,0.519-1.876,1.968-1.357,3.237c4.439,10.824,6.965,21.13,6.95,28.357
			c0.006,3.084-0.464,5.574-1.257,7.237c-0.819,1.673-1.756,2.509-3.178,2.96c-0.308,0.092-0.569,0.126-0.812,0.127
			c-0.503-0.004-0.979-0.141-1.58-0.522c-1.044-0.651-2.305-2.16-3.432-4.209c-1.712-3.066-3.176-7.232-4.314-11.104
			c-1.146-3.887-1.974-7.447-2.581-9.579c-0.377-1.318-1.75-2.081-3.068-1.705C220.814,315.602,220.051,316.975,220.428,318.293
			L220.428,318.293z"/>
		<path style="fill:#F09289;" d="M34.689,275.376l19.535-20.837c0.386-0.412,0.365-1.059-0.046-1.445
			c-0.412-0.386-1.059-0.365-1.445,0.046l-19.535,20.837c-0.386,0.412-0.365,1.059,0.046,1.445
			C33.656,275.808,34.303,275.787,34.689,275.376"/>
		<path style="fill:#F09289;" d="M33.06,268.237l12.373-12.372c0.399-0.399,0.399-1.046,0-1.445c-0.399-0.399-1.046-0.399-1.445,0
			l-12.372,12.372c-0.399,0.399-0.399,1.046,0,1.445C32.014,268.636,32.661,268.636,33.06,268.237"/>
		<path style="fill:#F09289;" d="M31.934,285.244l29.486-29.486c0.399-0.399,0.399-1.046,0-1.445c-0.399-0.399-1.046-0.399-1.445,0
			l-29.486,29.486c-0.399,0.399-0.399,1.046,0,1.445C30.888,285.643,31.535,285.643,31.934,285.244"/>
		<path style="fill:#F09289;" d="M33.635,293.151l36.002-36.175c0.398-0.4,0.396-1.047-0.004-1.446
			c-0.4-0.398-1.047-0.397-1.446,0.003l-36.002,36.175c-0.398,0.4-0.396,1.047,0.003,1.445
			C32.59,293.553,33.237,293.551,33.635,293.151"/>
		<path style="fill:#F09289;" d="M38.192,297.709l36.044-36.181c0.398-0.4,0.397-1.047-0.003-1.445
			c-0.4-0.398-1.047-0.397-1.446,0.003l-36.044,36.181c-0.398,0.4-0.397,1.047,0.003,1.445
			C37.147,298.11,37.794,298.109,38.192,297.709"/>
		<path style="fill:#F09289;" d="M75.716,265.297l-32.231,32.556c-0.397,0.401-0.394,1.048,0.007,1.445
			c0.401,0.397,1.048,0.394,1.445-0.007l32.231-32.556c0.397-0.401,0.394-1.048-0.007-1.445
			C76.76,264.892,76.113,264.895,75.716,265.297"/>
		<path style="fill:#F09289;" d="M52.761,301.886l26.371-27.347c0.392-0.406,0.38-1.053-0.026-1.445
			c-0.406-0.392-1.053-0.38-1.445,0.026l-26.37,27.347c-0.392,0.406-0.38,1.053,0.026,1.445
			C51.722,302.304,52.369,302.293,52.761,301.886"/>
		<path style="fill:#F09289;" d="M61.849,300.937l16.93-16.278c0.407-0.391,0.42-1.038,0.028-1.445
			c-0.391-0.407-1.038-0.42-1.445-0.028l-16.93,16.278c-0.407,0.391-0.42,1.038-0.028,1.445
			C60.795,301.315,61.442,301.328,61.849,300.937"/>
	</g>
</g>
</svg>
