<?xml version="1.0" encoding="iso-8859-1"?>
<!-- Generator: Adobe Illustrator 15.1.0, SVG Export Plug-In . SVG Version: 6.00 Build 0)  -->
<!DOCTYPE svg PUBLIC "-//W3C//DTD SVG 1.1//EN" "http://www.w3.org/Graphics/SVG/1.1/DTD/svg11.dtd">
<svg version="1.1" id="_x31_2" xmlns="http://www.w3.org/2000/svg" xmlns:xlink="http://www.w3.org/1999/xlink" x="0px" y="0px"
	 width="512px" height="512px" viewBox="0 0 512 512" style="enable-background:new 0 0 512 512;" xml:space="preserve">
<g>
	<polygon style="fill:#EA6F00;" points="472.73,113.77 472.73,472.006 114.494,397.342 114.494,39.105 	"/>
	<g>
		<polygon style="fill:#682816;" points="229.011,110.473 203.984,105.257 203.984,19.81 229.011,25.025 		"/>
		<polygon style="fill:#682816;" points="339.484,48.053 314.459,42.834 229.011,25.025 203.984,19.81 229.011,0 314.459,17.809 		
			"/>
		<polygon style="fill:#682816;" points="339.484,133.499 314.459,128.281 314.459,42.834 339.484,48.053 		"/>
	</g>
	<polygon style="fill:#CC5700;" points="95.039,66.057 95.039,424.293 39.271,437.336 39.271,79.098 	"/>
	<polygon style="fill:#D86100;" points="95.039,66.057 95.039,424.293 114.494,397.342 114.494,39.105 	"/>
	<g>
		<polygon style="fill:#75321B;" points="175.664,128.977 150.638,123.76 150.638,38.313 175.664,43.527 		"/>
		<polygon style="fill:#75321B;" points="286.138,66.555 261.111,61.338 175.664,43.527 150.638,38.313 175.664,18.503 
			261.111,36.311 		"/>
		<polygon style="fill:#75321B;" points="286.138,152.002 261.111,146.785 261.111,61.338 286.138,66.555 		"/>
	</g>
	<polygon style="fill:#FF7F00;" points="397.507,153.762 397.507,512 39.271,437.336 39.271,79.098 	"/>
	<polygon style="fill:#CC5700;" points="397.507,153.762 397.507,512 472.73,472.006 472.73,113.77 421.874,134.796 	"/>
	<polygon style="fill:#D86100;" points="397.507,153.762 397.507,512 421.874,493.032 421.874,134.796 	"/>
	<path style="fill:#51200B;" d="M251.638,203.803c0,70.491-57.143,115.725-127.635,101.032
		c-32.517-6.776-62.194-25.121-84.732-49.84V79.098l183.833,38.316C240.943,143.083,251.638,173.309,251.638,203.803z"/>
	<g>
		<path style="fill:#51200B;" d="M397.507,382.053v-68.771c-0.737,0.308-1.478,0.607-2.225,0.902
			c-2.492,0.99-5.038,1.896-7.618,2.744c-5.159,1.695-10.461,3.14-15.846,4.386c-10.779,2.46-21.92,4.091-33.264,4.867
			c-11.337,0.77-22.911,0.671-34.537-0.65c-5.809-0.679-11.626-1.64-17.39-3.022c-1.444-0.347-2.882-0.719-4.312-1.104
			c-1.434-0.406-2.856-0.814-4.275-1.274c-2.836-0.903-5.646-1.917-8.392-3.097c-0.879-0.373-1.841-0.596-2.774-0.59
			c-3.512,0.025-5.745,3.021-4.987,6.689l0.368,1.795c1.19,2.524,2.105,5.236,2.807,8.02c0.357,1.395,0.644,2.807,0.897,4.229
			c0.246,1.424,0.442,2.859,0.601,4.297c0.615,5.759,0.533,11.578,0,17.286c-0.543,5.715-1.549,11.336-2.874,16.834
			c-1.338,5.497-3.004,10.865-4.928,16.099c-3.857,10.463-8.712,20.406-14.415,29.69c-2.853,4.641-5.924,9.108-9.217,13.374
			c-1.651,2.123-3.35,4.203-5.12,6.211c-1.773,2.013-3.589,3.955-5.523,5.807c-0.59,0.572-1.066,1.326-1.327,2.211
			c-0.973,3.268,1.055,7.293,4.526,8.989l0.054,0.024c2.392,1.168,4.941,2.787,7.455,4.538c1.258,0.879,2.517,1.804,3.769,2.757
			c1.25,0.951,2.499,1.935,3.735,2.943c4.951,4.037,9.792,8.395,14.494,12.93c0.696,0.666,1.391,1.341,2.081,2.021l15.188,3.166
			c-3.54-3.991-7.133-7.948-10.787-11.866c-4.64-4.949-9.367-9.847-14.345-14.634c-1.036-0.996-2.083-1.986-3.145-2.975
			l27.042-1.189c0.465,0.242,0.955,0.438,1.466,0.576c1.295,0.352,2.899,1.151,4.494,2.109c1.608,0.961,3.247,2.105,4.869,3.335
			c3.246,2.468,6.425,5.29,9.507,8.242c3.082,2.962,6.07,6.08,8.967,9.294c2.896,3.217,5.703,6.526,8.422,9.906
			c1.521,1.895,3.016,3.808,4.47,5.738l12.146,2.529c-3.389-4.391-6.808-8.736-10.271-13.063
			c-5.603-6.984-11.305-13.893-17.318-20.725c-2.599-2.946-5.26-5.867-8.084-8.77l21.752-0.959l0.189,0.234
			c1.974,0.606,3.916,1.547,5.816,2.648c1.899,1.111,3.75,2.416,5.534,3.843c3.569,2.873,6.847,6.273,9.771,9.954
			c2.925,3.683,5.495,7.664,7.562,11.799c1.026,2.068,1.944,4.17,2.667,6.279c0.175,0.526,0.347,1.053,0.504,1.578
			c0.151,0.524,0.305,1.046,0.423,1.567c0.168,0.683,0.3,1.354,0.396,2.013l-2.138,7.104l11.65,2.428l1.02-3.377
			c1.266-1.089,2.703-1.962,4.218-2.725c1.706-0.852,3.522-1.542,5.417-2.083c3.79-1.083,7.866-1.616,12.045-1.751
			c4.18-0.145,8.481,0.128,12.859,0.923c1.961,0.357,3.934,0.804,5.93,1.37v-20.461l-19.539-24.183l19.539-0.86v-11.566
			l-22.285,0.982l8.216-27.273c0.226,0.334,0.455,0.669,0.68,0.998c1.526,2.202,3.089,4.352,4.68,6.463
			c1.588,2.109,3.21,4.182,4.891,6.197c1.252,1.504,2.527,2.984,3.819,4.441v-12.045c-0.756-0.936-1.479-1.893-2.167-2.869
			c-1.33-1.885-2.514-3.848-3.515-5.861c-1.009-2.016-1.82-4.081-2.41-6.16c-0.582-2.075-0.968-4.161-0.961-6.227
			c0-0.361-0.044-0.761-0.133-1.148l5.87-19.486C395.271,378.475,396.375,380.278,397.507,382.053z M283.057,428.457
			c-1.616,3.137-3.386,6.154-5.374,8.916c-0.99,1.38-2.033,2.695-3.142,3.906c-0.547,0.611-1.123,1.185-1.703,1.731
			c-0.292,0.273-0.585,0.542-0.886,0.792l-0.454,0.37l-0.036,0.028l-28.362,1.25c3.397-5.961,6.64-11.984,9.678-18.132
			c5.048-10.177,9.642-20.622,13.589-31.462c1.967-5.421,3.772-10.941,5.363-16.586c1.591-5.652,2.963-11.424,4.015-17.383
			c1.041-5.963,1.77-12.109,1.898-18.557c0.003-0.11,0.003-0.225,0.003-0.336l17.72,21.927c0.35,1.437,0.561,3.042,0.696,4.651
			c0.086,0.922,0.126,1.854,0.169,2.794c0.024,0.938,0.039,1.884,0.035,2.825c-0.018,3.783-0.322,7.56-0.765,11.299
			c-0.919,7.475-2.496,14.783-4.576,21.818C288.842,415.347,286.271,422.154,283.057,428.457z M324.192,424.324
			c-1.431,3.762-3.338,7.291-5.642,10.533c-1.157,1.625-2.405,3.184-3.782,4.648c-0.687,0.732-1.395,1.449-2.145,2.135
			c-0.289,0.265-0.587,0.523-0.887,0.783l-23.232,1.025c1.352-3.126,2.585-6.27,3.735-9.424c2.611-7.162,4.888-14.389,7.001-21.691
			c2.099-7.312,4.044-14.673,5.835-22.188c0.815-3.404,1.576-6.851,2.284-10.374l16.59,20.527c0.518,0.894,0.925,1.812,1.266,2.753
			c0.188,0.502,0.336,1.006,0.493,1.52c0.132,0.51,0.265,1.023,0.376,1.541c0.438,2.074,0.601,4.18,0.561,6.26
			C326.552,416.54,325.623,420.566,324.192,424.324z M326.188,439.902c1.355-4.092,2.828-8.092,4.265-12.146
			c1.427-4.061,2.847-8.152,4.134-12.486c0.133-0.436,0.262-0.881,0.385-1.323l21.42,26.505l-30.817,1.36
			C325.777,441.171,325.98,440.539,326.188,439.902z M343.027,407.823c0.554,0.005,1.101,0.005,1.648,0.009
			c4.601,0.003,9.105,0.003,13.628-0.074c4.52-0.09,9.027-0.274,13.611-0.674c0.246-0.021,0.493-0.043,0.739-0.068l-8.223,27.3
			L343.027,407.823z M350.968,479.015c-0.125-0.179-0.247-0.353-0.372-0.527c-3.014-4.283-6.071-8.462-9.277-12.571
			c-3.211-4.109-6.583-8.131-10.211-12.076c-0.207-0.226-0.419-0.451-0.629-0.678l28.658-1.268L350.968,479.015z M393.151,485.949
			c-0.912,0.09-1.827,0.16-2.746,0.217c-4.34,0.27-8.729,0.205-13.163,0.128c-4.43-0.062-8.888-0.122-13.437-0.085
			c-0.872,0.009-1.748,0.018-2.628,0.027l8.745-29.035L393.151,485.949z M377.074,392.346c-0.951,1.18-2.191,2.157-3.554,3.014
			c-1.56,0.958-3.294,1.752-5.128,2.381c-3.678,1.259-7.729,1.9-11.888,2.075c-4.161,0.173-8.466-0.153-12.744-1.077
			c-2.135-0.467-4.266-1.074-6.317-1.881c-0.512-0.2-1.02-0.42-1.517-0.637c-0.5-0.235-0.991-0.465-1.462-0.72
			c-0.476-0.249-0.938-0.521-1.373-0.802c-0.214-0.145-0.43-0.289-0.629-0.439c-0.097-0.072-0.215-0.156-0.282-0.225l-0.058-0.054
			l-0.029-0.022l-0.05-0.037l-0.196-0.142l-0.386-0.272l-16.429-20.334c3.739,0.338,7.494,0.714,11.265,1.035
			c4.022,0.354,8.07,0.659,12.113,0.809c4.04,0.148,8.077,0.127,12.056-0.097c7.966-0.45,15.62-1.71,23.146-3.059
			c3.403-0.604,6.789-1.231,10.182-1.825L377.074,392.346z M384.903,356.73c-0.808,0.402-1.634,0.771-2.452,1.148l-2.478,1.091
			c-3.322,1.409-6.704,2.673-10.144,3.777c-6.878,2.195-13.999,3.724-21.372,4.069c-3.683,0.183-7.43,0.072-11.227-0.293
			c-3.793-0.367-7.641-0.994-11.519-1.789c-3.876-0.804-7.784-1.786-11.71-2.887c-1.962-0.552-3.925-1.135-5.896-1.758
			c-1.662-0.527-3.324-1.072-4.994-1.667l-20.225-25.034c7.576,1.047,15.012,1.662,22.377,1.984
			c12.053,0.525,23.875,0.284,35.56-0.441c11.68-0.744,23.202-2.008,34.622-3.693c5.713-0.836,11.394-1.792,17.061-2.863
			c1.361-0.257,2.721-0.521,4.08-0.795l-8.263,27.416C387.199,355.606,386.055,356.178,384.903,356.73z"/>
	</g>
	<g>
		<path style="fill:#FF7F00;" d="M175.805,192.523c-5.127,4.133-14.906,5.773-22.951,6.57l0.123,8.576
			c0.011,0.852-0.618,1.439-1.535,1.354l-8.224-0.781c-0.498-0.045-0.983-0.282-1.366-0.654c-0.384-0.375-0.611-0.846-0.641-1.311
			l-0.424-6.755c-4.571-0.198-9.048-0.754-13.127-1.55c-4.139-0.801-8.975-2.124-13.961-3.873l-0.253,6.795
			c-0.018,0.457-0.239,0.838-0.613,1.064c-0.376,0.225-0.87,0.268-1.367,0.123l-8.283-2.424c-0.925-0.268-1.608-1.113-1.621-1.964
			l-0.124-8.733c-8.116-4.015-18.637-9.713-22.38-15.303c-0.248,17.943,7.488,34.256,21.422,47.102
			c1.726,1.591,3.76,2.908,5.996,4.221l0.318-4.9c-0.051-0.464,0.111-0.879,0.448-1.145c0.334-0.265,0.808-0.353,1.304-0.238
			l7.505,1.709c0.847,0.192,1.555,0.921,1.664,1.715c0,0,0.307,4.867,0.801,8.3c7.046,2.413,14.599,3.855,21.17,3.886l-0.675-8.279
			c-0.066-0.854,0.591-1.46,1.506-1.375l7.488,0.689c0.471,0.045,0.942,0.266,1.309,0.617c0.362,0.348,0.589,0.794,0.622,1.233
			l0.424,5.46c0.399-0.158,0.69-0.432,1.13-0.511C167.003,229.324,177.058,212.08,175.805,192.523z"/>
		<g>
			<path style="fill:#FF7F00;" d="M118.993,179.854l8.88-7.686l8.767,11.503C136.64,183.671,128.832,184.508,118.993,179.854z"/>
			<polygon style="fill:#FF7F00;" points="106.373,166.748 93.027,136.63 78.761,154.912 			"/>
			<polygon style="fill:#FF7F00;" points="145.976,174.43 158.533,149.34 173.403,173.275 			"/>
		</g>
	</g>
	<g>
		<path style="fill:#42210B;" d="M149.42,348.203c-2.364-1.34-1.935-5.941,1.473-6.146c3.599-0.211,6.477,3.215,6.015,6.145
			s-0.679,3.521-0.679,3.521s-0.442,2.631,0.596,3.533c2.324,2.019,5.377-0.073,5.377-0.073s-0.772,6.188-6.899,3.002
			c-2.595-1.347-3.234-4.852-2.85-7.291c0.385-2.44,0.539-2.63,0.761-4.04c0.225-1.411-2.216-3.396-3.62-1.824
			c-0.503,0.561-0.361,1.488,0.206,2.077c0.711,0.745,1.862,0.243,1.292-0.505c-0.394-0.519-0.944-0.399-1.026-0.258
			c-0.089,0.199-0.287,0.145-0.232-0.198c0.077-0.487,0.915-1.074,1.768-0.335c1.25,1.084,0.483,2.382-0.147,2.613
			C150.827,348.654,150.279,348.691,149.42,348.203z"/>
		<path style="fill:#42210B;" d="M71.68,323.84c-2.387-0.988-2.286-5.75,1.005-6.504c3.474-0.797,6.505,2.236,6.258,5.299
			c-0.245,3.061-1.188,14.775-1.188,14.775s-0.4,3.252,0.823,3.506c1.22,0.254,1.377-0.49,1.377-0.49s-0.186,2.996-2.86,2.438
			c-2.674-0.562-3.253-3.141-3.048-5.692c0.207-2.548,1.112-13.843,1.231-15.317c0.118-1.473-2.39-3.107-3.644-1.279
			c-0.448,0.654-0.25,1.575,0.34,2.09c0.741,0.645,1.822-0.059,1.217-0.729c-0.415-0.461-0.942-0.254-1.012-0.095
			c-0.075,0.217-0.269,0.192-0.241-0.166c0.04-0.509,0.814-1.243,1.69-0.625c1.289,0.901,0.635,2.349,0.042,2.688
			C73.077,324.074,72.547,324.197,71.68,323.84z"/>
		<path style="fill:#42210B;" d="M92.4,343.801c-1.224-0.256-0.821-3.373-0.821-3.373l1.192-14.684l-0.11-0.023l0.101-0.114
			c0.206-2.55,0.27-4.655-2.377-5.725c-2.961-1.193-3.539,2.382-3.539,2.382s0.154-0.645,1.376-0.389
			c0.917,0.192,0.916,2.367,0.864,3.102l0.019,0.002c-0.119,0.719-1.027,12.663-1.234,15.215c-0.203,2.548-0.276,4.526,2.369,5.592
			c2.962,1.197,3.54-2.44,3.54-2.44S93.622,344.055,92.4,343.801z"/>
		<path style="fill:#42210B;" d="M72.05,330.176c1.016-0.896,3.466-2.972,8.712-0.595c3.731,1.687,7.955,2.53,10.224,1.79
			l-0.247,2.353c0,0-2.426,2.722-9.17-0.071c-2.817-1.164-5.685-2.491-7.926-2.099C71.4,331.952,70.948,331.151,72.05,330.176z"/>
		<path style="fill:#42210B;" d="M105.863,336.317c-0.112-1.788-4.036-4.371-7.641-2.634c-3.73,1.798-4.585,9.021-0.675,12.102
			c4.125,3.246,6.529,1.673,8.038,0.119l0.22-2.754c0,0-3.568,3.707-6.627-1.176c-2.169-3.46,2.021-8.603,5.724-3.885
			c2.276,2.899,1.048,0.94,1.048,0.94L105.863,336.317z"/>
		<path style="fill:#42210B;" d="M109.339,347.486c-1.149-0.239-0.741-3.294-0.741-3.294l0.665-8.263
			c0.136-1.707,1.194-2.115,0.626-2.471c-1.827-1.14-4.007-0.512-4.189,1.727c-0.109,1.386-0.702,8.743-0.702,8.743
			s-0.234,4.349,2.255,5.351c2.789,1.124,3.358-2.258,3.358-2.258S110.491,347.728,109.339,347.486z"/>
		<path style="fill:#42210B;" d="M118.934,357.11c-0.167,2.509-1.116,4.673-3.829,3.929c-2.714-0.742-2.469-3.664-2.469-3.664
			s0.045,0.778,1.285,1.119c1.241,0.34,1.317-2.925,1.317-2.925l0.104-1.677c0,0,0.904-13.606,1.001-15.055
			c0.096-1.45-2.46-3.243-3.7-1.525c-0.44,0.618-0.223,1.541,0.381,2.092c0.762,0.691,1.847,0.076,1.22-0.631
			c-0.428-0.488-0.955-0.318-1.023-0.168c-0.072,0.209-0.269,0.173-0.246-0.182c0.034-0.5,0.804-1.171,1.702-0.496
			c1.313,0.983,0.676,2.369,0.082,2.662c-0.595,0.289-1.13,0.374-2.014-0.04c-2.426-1.149-2.403-5.856,0.915-6.366
			c3.501-0.539,6.614,2.68,6.415,5.691c-0.201,3.011-0.967,14.541-0.967,14.541L118.934,357.11z"/>
		<path style="fill:#42210B;" d="M127.45,340.904c-1.328-1.596-3.146-2.772-5.121-3.311c-0.621-0.174-2.897-0.691-4.148-0.32
			l0.321,3.038c0.313,0.034,2.807,0.243,3.133,0.329c2.666,0.731,4.268,2.547,4.19,4.854c-0.1,3.033-4.476,1.67-7.14,0.94
			c-0.324-0.091-0.639-0.204-0.942-0.341l-0.46,3.516c0.581,0.293,3.55,0.959,4.173,1.129c1.974,0.541,3.88,0.385,5.367-0.439
			c1.535-0.846,2.445-2.297,2.564-4.082C129.507,344.434,128.817,342.547,127.45,340.904z"/>
		<path style="fill:#42210B;" d="M137.122,360.846c-0.167,2.51-1.118,4.67-3.831,3.927c-2.713-0.743-2.47-3.665-2.47-3.665
			s0.047,0.781,1.286,1.119c1.241,0.339,1.315-2.926,1.315-2.926l0.106-1.672c0,0,0.907-13.607,1.002-15.059
			c0.096-1.447-2.46-3.242-3.699-1.523c-0.442,0.617-0.227,1.541,0.377,2.091c0.763,0.69,1.847,0.077,1.223-0.63
			c-0.427-0.486-0.958-0.319-1.024-0.168c-0.07,0.207-0.269,0.172-0.246-0.183c0.032-0.499,0.802-1.171,1.702-0.496
			c1.315,0.986,0.677,2.372,0.082,2.661c-0.595,0.291-1.129,0.377-2.012-0.041c-2.429-1.146-2.403-5.852,0.912-6.365
			c3.503-0.538,6.615,2.682,6.414,5.692c-0.2,3.011-0.966,14.54-0.966,14.54L137.122,360.846z"/>
		<path style="fill:#42210B;" d="M165.487,349.881c-0.852,2.762-3.507,13.617-3.507,13.617l-0.645,2.527
			c-0.604,2.352-2.655,4.25-5.967,2.795c-3.423-1.5-3.323-5.695-3.323-5.695s1.14,2.47,3.485,2.707
			c1.652,0.171,2.297-1.938,2.297-1.938l0.398-1.57c0,0,3.316-12.728,3.632-14.103c0.43-1.857,2.235-3.982,5.641-1.469
			C166.482,347.449,165.842,348.736,165.487,349.881z"/>
		<path style="fill:#42210B;" d="M145.636,344.635c-1.327-1.592-3.144-2.768-5.119-3.309c-0.622-0.172-2.897-0.691-4.149-0.322
			l0.324,3.043c0.312,0.031,2.805,0.239,3.131,0.328c2.663,0.732,4.268,2.547,4.191,4.854c-0.101,3.03-4.475,1.67-7.14,0.938
			c-0.324-0.09-0.641-0.204-0.943-0.34l-0.462,3.516c0.584,0.291,3.552,0.955,4.176,1.129c1.974,0.539,3.881,0.384,5.366-0.438
			c1.537-0.848,2.446-2.299,2.563-4.084C147.692,348.166,147.004,346.279,145.636,344.635z"/>
		<g>
			<g>
				<path style="fill:#42210B;" d="M149.626,404.765c-2.286-1.313-1.846-5.913,1.456-6.151c3.49-0.255,6.267,3.139,5.803,6.066
					c-0.461,2.928-0.675,3.521-0.675,3.521s-0.439,2.633,0.56,3.521c2.245,1.991,5.213-0.133,5.213-0.133s-0.778,6.186-6.703,3.075
					c-2.509-1.319-3.113-4.812-2.726-7.253c0.385-2.439,0.533-2.632,0.757-4.042c0.221-1.407-2.132-3.36-3.501-1.778
					c-0.49,0.568-0.355,1.49,0.189,2.074c0.686,0.734,1.808,0.22,1.257-0.52c-0.378-0.51-0.914-0.389-0.994-0.246
					c-0.089,0.2-0.28,0.146-0.226-0.193c0.078-0.488,0.894-1.083,1.718-0.355c1.208,1.066,0.457,2.372-0.153,2.61
					C150.989,405.198,150.457,405.24,149.626,404.765z"/>
				<path style="fill:#42210B;" d="M162.971,405.898c-0.568,2.886-0.675,3.521-0.675,3.521s-0.44,2.633,0.559,3.52
					c2.245,1.99,5.214-0.13,5.214-0.13s-0.779,6.183-6.7,3.073c-2.514-1.318-2.688-4.723-2.303-7.164
					c0.385-2.439,0.609-3.088,0.759-4.041c0.228-1.467,2.243-3.716,4.305-1.989C164.195,402.986,163.366,403.883,162.971,405.898z"
					/>
				<path style="fill:#42210B;" d="M169.469,407.199c-0.569,2.887-0.675,3.521-0.675,3.521s-0.442,2.631,0.559,3.521
					c2.247,1.993,5.213-0.134,5.213-0.134s-0.779,6.186-6.702,3.076c-2.509-1.319-3.111-4.809-2.726-7.248
					c0.385-2.441,0.757-4.043,0.757-4.043c0.332-2.16,1.915-3.887,4.732-1.904C170.695,404.285,169.866,405.186,169.469,407.199z"/>
			</g>
			<path style="fill:#42210B;" d="M120.227,406c-1.221-0.254-0.799-3.674-0.799-3.674l1.192-14.984l-0.146-0.03l0.1,0.19
				c0.208-2.551,0.271-4.508-2.376-5.574c-2.962-1.194-3.538,2.455-3.538,2.455s0.153-0.906,1.376-0.652
				c0.917,0.191,0.914,2.104,0.863,2.836l-0.051-0.011c-0.121,1.466-1.027,12.966-1.232,15.515c-0.208,2.55-0.245,4.688,2.404,5.756
				c2.961,1.191,3.563-2.364,3.563-2.364S121.451,406.256,120.227,406z"/>
			<path style="fill:#42210B;" d="M129.701,407.977c-1.222-0.254-0.845-3.682-0.845-3.682l1.189-14.988l-0.052-0.012l0.101,0.191
				c0.205-2.549,0.271-4.508-2.375-5.572c-2.962-1.195-3.539,2.455-3.539,2.455s0.156-0.907,1.377-0.65
				c0.917,0.192,0.914,2.102,0.862,2.832l-0.041-0.01c-0.12,1.468-1.028,12.967-1.232,15.518c-0.204,2.552-0.25,4.686,2.396,5.755
				c2.964,1.193,3.541-2.37,3.541-2.37S130.925,408.231,129.701,407.977z"/>
			<path style="fill:#42210B;" d="M73.391,380.58c-2.385-0.989-2.285-5.748,1.004-6.504c3.475-0.797,6.505,2.239,6.26,5.298
				c-0.248,3.059-1.188,14.774-1.188,14.774s-0.399,3.25,0.823,3.507c1.221,0.255,1.378-0.487,1.378-0.487s-0.186,2.99-2.859,2.432
				c-2.675-0.557-3.255-3.137-3.05-5.688c0.206-2.55,1.113-13.844,1.23-15.32c0.118-1.471-2.388-3.105-3.643-1.275
				c-0.449,0.654-0.251,1.572,0.34,2.086c0.741,0.645,1.824-0.054,1.217-0.727c-0.415-0.458-0.943-0.254-1.013-0.094
				c-0.074,0.213-0.272,0.191-0.241-0.168c0.041-0.51,0.813-1.241,1.69-0.625c1.292,0.902,0.635,2.351,0.042,2.688
				C74.789,380.812,74.259,380.938,73.391,380.58z"/>
			<path style="fill:#42210B;" d="M94.111,400.538c-1.223-0.253-0.818-3.665-0.818-3.665l1.19-14.979l-0.112-0.023l0.102,0.182
				c0.207-2.551,0.271-4.51-2.375-5.577c-2.963-1.196-3.538,2.454-3.538,2.454s0.154-0.898,1.375-0.645
				c0.917,0.19,0.917,2.109,0.864,2.841l0.019,0.005c-0.121,1.467-1.027,12.955-1.234,15.504c-0.204,2.551-0.277,4.678,2.367,5.744
				c2.965,1.195,3.542-2.368,3.542-2.368S95.334,400.795,94.111,400.538z"/>
			<path style="fill:#42210B;" d="M73.763,386.916c1.018-0.895,3.462-2.973,8.712-0.596c3.731,1.688,7.956,2.527,10.224,1.791
				l-0.247,2.352c0,0-2.428,2.723-9.171-0.07c-2.818-1.166-5.684-2.493-7.926-2.1C73.113,388.691,72.662,387.889,73.763,386.916z"/>
			<path style="fill:#42210B;" d="M108.215,393.187c-0.113-1.788-4.035-4.372-7.641-2.631c-3.73,1.796-4.586,9.019-0.676,12.101
				c4.123,3.245,6.528,1.674,8.039,0.121l0.222-2.755c0,0-3.567,3.704-6.63-1.177c-2.167-3.461,2.022-8.602,5.723-3.889
				c2.279,2.902,1.049,0.945,1.049,0.945L108.215,393.187z"/>
			<path style="fill:#42210B;" d="M111.693,404.359c-1.153-0.244-0.744-3.294-0.744-3.294l0.665-8.263
				c0.137-1.709,1.194-2.121,0.625-2.475c-1.827-1.142-4.007-0.512-4.186,1.729c-0.113,1.387-0.702,8.742-0.702,8.742
				s-0.235,4.349,2.254,5.352c2.788,1.123,3.356-2.262,3.356-2.262S112.843,404.598,111.693,404.359z"/>
			<path style="fill:#42210B;" d="M205.906,422.635c1.165,0.336,1.248-2.735,1.248-2.735l0.661-8.097
				c0.138-1.672-0.833-2.576-0.22-2.633c1.971-0.179,4.01,1.48,3.831,3.676c-0.111,1.355-0.7,8.566-0.7,8.566
				s-0.458,4.206-3.06,3.932c-2.91-0.309-2.933-3.77-2.933-3.77S204.741,422.301,205.906,422.635z"/>
			<path style="fill:#42210B;" d="M179.107,409.56c-1.098,0.957,0.171,3.329,1.736,4.106c1.731,0.864,3.782,0.965,5.519,0.609
				c1.416-0.295,3.175-2.339,0.828-5.939c-1.336-2.051-6.029-5.264-9.905-2.244c-3.875,3.019-2.174,11.404,4.556,13.606
				c5.941,1.947,7.673-2.71,6.813-4.419c-1.173,2.24-6.028,3.204-9.311-0.916c-2.822-3.538-0.393-7.146,3.167-6.22
				c3.662,0.956,4.294,4.278,1.68,4.06C182.925,412.098,180.169,412.027,179.107,409.56z"/>
			<path style="fill:#42210B;" d="M193.66,412.637c-1.096,0.955,0.177,3.328,1.736,4.107c1.732,0.859,3.783,0.964,5.521,0.604
				c1.416-0.29,3.175-2.336,0.828-5.938c-1.337-2.053-6.029-5.266-9.903-2.243c-3.878,3.021-2.176,11.404,4.555,13.606
				c5.938,1.945,7.672-2.709,6.812-4.419c-1.171,2.239-6.027,3.206-9.312-0.915c-2.822-3.541-0.391-7.15,3.168-6.219
				c3.662,0.955,4.292,4.275,1.683,4.06C197.481,415.177,194.724,415.102,193.66,412.637z"/>
			<path style="fill:#42210B;" d="M140.313,396.736c-3.977-1.133-7.709,1.238-8.335,5.293c-0.625,4.057,2.089,8.264,6.065,9.396
				s7.708-1.234,8.334-5.296C147.002,402.074,144.292,397.866,140.313,396.736z M142.864,405.131
				c-0.373,2.425-2.294,3.934-4.278,3.364c-1.987-0.562-3.297-2.993-2.92-5.414c0.374-2.429,2.295-3.935,4.278-3.374
				C141.932,400.277,143.241,402.708,142.864,405.131z"/>
			<path style="fill:#42210B;" d="M210.241,419.584c1.904-3.869,4.384-3.211,4.887-2.831c0.962,0.731,0.716,1.142,0.27,3.563
				c-0.569,3.086,0.214,5.938,2.729,7.251c4.814,2.509,5.224-2.415,5.224-2.415s-1.739,0.839-3.737-0.53
				c-1.376-0.944-0.559-3.519-0.559-3.519s0.02-1.516,0.334-2.836c1.072-4.486-5.882-8.875-8.952-3.649L210.241,419.584z"/>
		</g>
	</g>
</g>
</svg>
