<?xml version="1.0" encoding="iso-8859-1"?>
<!-- Generator: Adobe Illustrator 15.1.0, SVG Export Plug-In . SVG Version: 6.00 Build 0)  -->
<!DOCTYPE svg PUBLIC "-//W3C//DTD SVG 1.1//EN" "http://www.w3.org/Graphics/SVG/1.1/DTD/svg11.dtd">
<svg version="1.1" id="_x32_" xmlns="http://www.w3.org/2000/svg" xmlns:xlink="http://www.w3.org/1999/xlink" x="0px" y="0px"
	 width="512px" height="512px" viewBox="0 0 512 512" style="enable-background:new 0 0 512 512;" xml:space="preserve">
<g>
	<g>
		<polygon style="fill:#C8C9CA;" points="472.73,113.77 472.73,472.006 114.493,397.342 114.493,39.105 		"/>
		<g>
			<polygon style="fill:#682816;" points="229.01,110.473 203.983,105.257 203.983,19.81 229.01,25.025 			"/>
			<polygon style="fill:#682816;" points="339.484,48.053 314.458,42.834 229.01,25.025 203.983,19.81 229.01,0 314.458,17.809 			
				"/>
			<polygon style="fill:#682816;" points="339.484,133.499 314.458,128.281 314.458,42.834 339.484,48.053 			"/>
		</g>
		<polygon style="fill:#A5A5A5;" points="95.039,66.057 95.039,424.293 39.27,437.336 39.27,79.098 		"/>
		<polygon style="fill:#BABABA;" points="95.039,66.057 95.039,424.293 114.493,397.342 114.493,39.105 		"/>
		<polygon style="fill:#DBDCDC;" points="397.506,153.762 397.506,512 472.73,472.006 472.73,113.77 421.873,134.796 		"/>
		<polygon style="fill:#EEEEEF;" points="397.506,153.762 397.506,512 421.873,493.032 421.873,134.796 		"/>
	</g>
	<g>
		<g>
			<polygon style="fill:#75321B;" points="175.665,128.978 150.639,123.762 150.639,38.314 175.665,43.529 			"/>
			<polygon style="fill:#75321B;" points="286.139,66.555 261.112,61.338 175.665,43.529 150.639,38.314 175.665,18.503 
				261.112,36.313 			"/>
			<polygon style="fill:#75321B;" points="286.139,152.002 261.112,146.785 261.112,61.338 286.139,66.555 			"/>
		</g>
		<polygon style="fill:#00A199;" points="397.506,153.762 397.506,512 39.271,437.336 39.271,79.101 		"/>
		<path style="fill:#FF7F00;" d="M251.639,203.803c0,70.492-57.143,115.728-127.636,101.035
			c-32.517-6.777-62.194-25.124-84.731-49.842V79.101l183.833,38.313C240.944,143.083,251.639,173.311,251.639,203.803z"/>
		<g>
			<path style="fill:#51200B;" d="M397.506,382.053v-68.771c-0.735,0.308-1.477,0.607-2.223,0.902
				c-2.493,0.99-5.038,1.896-7.619,2.744c-5.159,1.697-10.461,3.14-15.845,4.386c-10.78,2.46-21.92,4.091-33.265,4.87
				c-11.336,0.768-22.91,0.669-34.536-0.653c-5.81-0.679-11.627-1.64-17.39-3.021c-1.444-0.348-2.882-0.717-4.312-1.105
				c-1.434-0.406-2.857-0.814-4.276-1.273c-2.835-0.904-5.646-1.917-8.391-3.097c-0.881-0.374-1.842-0.595-2.774-0.591
				c-3.511,0.027-5.745,3.021-4.988,6.693l0.369,1.791c1.189,2.525,2.105,5.237,2.806,8.021c0.357,1.395,0.645,2.805,0.898,4.227
				c0.246,1.424,0.442,2.861,0.6,4.299c0.615,5.758,0.534,11.576,0,17.285c-0.543,5.714-1.548,11.336-2.875,16.833
				c-1.336,5.497-3.003,10.865-4.925,16.099c-3.858,10.465-8.714,20.406-14.416,29.69c-2.853,4.641-5.924,9.108-9.217,13.374
				c-1.651,2.123-3.35,4.204-5.12,6.214c-1.772,2.01-3.589,3.952-5.523,5.806c-0.59,0.57-1.065,1.324-1.326,2.209
				c-0.973,3.268,1.055,7.293,4.525,8.989l0.054,0.026c2.393,1.166,4.941,2.785,7.455,4.539c1.259,0.877,2.517,1.801,3.769,2.756
				c1.251,0.949,2.499,1.936,3.735,2.941c4.952,4.037,9.792,8.396,14.494,12.93c0.697,0.666,1.391,1.341,2.08,2.022l15.188,3.165
				c-3.54-3.991-7.133-7.948-10.787-11.866c-4.64-4.949-9.367-9.845-14.344-14.633c-1.037-0.997-2.084-1.985-3.146-2.974
				l27.044-1.191c0.463,0.244,0.953,0.438,1.465,0.576c1.294,0.352,2.898,1.151,4.493,2.109c1.609,0.961,3.247,2.107,4.87,3.335
				c3.246,2.468,6.424,5.29,9.506,8.242c3.082,2.964,6.071,6.081,8.968,9.295c2.896,3.218,5.701,6.525,8.422,9.907
				c1.52,1.893,3.015,3.806,4.47,5.737l12.145,2.532c-3.389-4.395-6.808-8.74-10.271-13.066
				c-5.602-6.984-11.306-13.893-17.317-20.721c-2.6-2.95-5.26-5.871-8.084-8.773l21.751-0.959l0.189,0.234
				c1.975,0.607,3.915,1.549,5.817,2.648c1.898,1.111,3.75,2.416,5.534,3.843c3.568,2.873,6.846,6.274,9.771,9.954
				c2.924,3.683,5.495,7.664,7.562,11.799c1.026,2.068,1.944,4.17,2.666,6.279c0.176,0.526,0.348,1.053,0.505,1.578
				c0.15,0.527,0.305,1.046,0.422,1.568c0.168,0.682,0.301,1.353,0.397,2.012l-2.138,7.104l11.65,2.428l1.02-3.377
				c1.266-1.089,2.703-1.959,4.218-2.725c1.706-0.85,3.522-1.541,5.417-2.08c3.79-1.086,7.866-1.619,12.045-1.752
				c4.18-0.145,8.48,0.126,12.859,0.921c1.96,0.357,3.934,0.806,5.928,1.37v-20.461l-19.537-24.183l19.537-0.86v-11.566
				l-22.283,0.982l8.216-27.273c0.226,0.334,0.454,0.669,0.679,0.998c1.526,2.202,3.09,4.352,4.681,6.463
				c1.587,2.109,3.21,4.182,4.892,6.197c1.25,1.505,2.526,2.987,3.816,4.441v-12.045c-0.753-0.936-1.479-1.891-2.166-2.867
				c-1.329-1.887-2.513-3.85-3.514-5.863c-1.009-2.016-1.821-4.08-2.41-6.157c-0.583-2.078-0.969-4.164-0.962-6.228
				c0-0.361-0.043-0.76-0.132-1.148l5.87-19.487C395.272,378.476,396.376,380.278,397.506,382.053z M283.057,428.457
				c-1.616,3.139-3.386,6.154-5.373,8.916c-0.99,1.38-2.034,2.697-3.143,3.906c-0.548,0.613-1.123,1.185-1.702,1.734
				c-0.293,0.271-0.586,0.539-0.886,0.791l-0.455,0.369l-0.035,0.027l-28.362,1.25c3.397-5.959,6.64-11.982,9.678-18.131
				c5.048-10.178,9.643-20.623,13.589-31.463c1.967-5.421,3.772-10.941,5.363-16.586c1.592-5.648,2.964-11.424,4.015-17.382
				c1.041-5.964,1.771-12.11,1.899-18.558c0.002-0.109,0.002-0.223,0.002-0.334l17.721,21.926c0.35,1.436,0.561,3.041,0.696,4.65
				c0.086,0.922,0.125,1.857,0.168,2.795c0.025,0.938,0.04,1.883,0.035,2.824c-0.017,3.783-0.321,7.56-0.765,11.301
				c-0.918,7.473-2.495,14.781-4.576,21.82C288.841,415.347,286.271,422.156,283.057,428.457z M324.193,424.324
				c-1.43,3.765-3.34,7.293-5.642,10.537c-1.158,1.621-2.406,3.18-3.783,4.645c-0.686,0.732-1.395,1.453-2.146,2.135
				c-0.288,0.265-0.585,0.525-0.886,0.785l-23.232,1.024c1.352-3.124,2.586-6.268,3.737-9.425c2.61-7.161,4.888-14.387,7-21.691
				c2.099-7.309,4.043-14.673,5.835-22.186c0.814-3.406,1.576-6.852,2.284-10.376L323.95,400.3c0.519,0.894,0.926,1.812,1.266,2.755
				c0.189,0.501,0.336,1.007,0.494,1.518c0.132,0.51,0.265,1.023,0.374,1.541c0.44,2.076,0.602,4.18,0.562,6.26
				C326.553,416.54,325.623,420.568,324.193,424.324z M326.188,439.904c1.355-4.091,2.828-8.094,4.266-12.146
				c1.427-4.063,2.846-8.153,4.133-12.486c0.132-0.438,0.261-0.883,0.387-1.325l21.419,26.507l-30.819,1.358
				C325.777,441.171,325.981,440.539,326.188,439.904z M343.027,407.826c0.555,0.003,1.103,0.003,1.647,0.008
				c4.602,0.004,9.107,0.001,13.63-0.076c4.52-0.09,9.027-0.273,13.61-0.674c0.247-0.021,0.494-0.043,0.74-0.065l-8.223,27.298
				L343.027,407.826z M350.969,479.015c-0.125-0.176-0.248-0.352-0.372-0.524c-3.015-4.286-6.071-8.462-9.277-12.574
				c-3.211-4.108-6.583-8.131-10.212-12.075c-0.207-0.226-0.417-0.452-0.629-0.679l28.659-1.265L350.969,479.015z M393.152,485.951
				c-0.912,0.088-1.827,0.158-2.746,0.219c-4.341,0.268-8.73,0.201-13.164,0.125c-4.429-0.061-8.888-0.123-13.436-0.086
				c-0.873,0.009-1.747,0.018-2.628,0.027l8.745-29.035L393.152,485.951z M377.074,392.346c-0.95,1.18-2.191,2.16-3.553,3.014
				c-1.56,0.959-3.294,1.752-5.127,2.384c-3.68,1.256-7.73,1.899-11.889,2.072c-4.161,0.173-8.466-0.153-12.745-1.077
				c-2.134-0.465-4.266-1.074-6.317-1.879c-0.512-0.202-1.02-0.42-1.516-0.639c-0.501-0.234-0.991-0.465-1.463-0.72
				c-0.476-0.249-0.938-0.521-1.372-0.801c-0.215-0.146-0.43-0.29-0.63-0.439c-0.096-0.073-0.214-0.155-0.282-0.223l-0.058-0.057
				l-0.028-0.022l-0.05-0.037l-0.197-0.141l-0.386-0.273l-16.428-20.333c3.739,0.337,7.493,0.713,11.265,1.036
				c4.022,0.354,8.069,0.658,12.113,0.808c4.04,0.149,8.076,0.129,12.057-0.098c7.965-0.449,15.618-1.71,23.145-3.059
				c3.403-0.603,6.789-1.23,10.183-1.825L377.074,392.346z M384.904,356.732c-0.808,0.4-1.634,0.771-2.452,1.147l-2.478,1.09
				c-3.322,1.41-6.704,2.673-10.145,3.777c-6.878,2.195-13.999,3.724-21.372,4.069c-3.682,0.183-7.43,0.074-11.226-0.292
				c-3.793-0.368-7.641-0.995-11.519-1.79c-3.877-0.804-7.785-1.786-11.71-2.887c-1.963-0.551-3.927-1.135-5.896-1.758
				c-1.662-0.525-3.325-1.072-4.994-1.667l-20.226-25.034c7.576,1.047,15.013,1.664,22.378,1.986
				c12.052,0.524,23.874,0.282,35.56-0.443c11.679-0.744,23.202-2.008,34.621-3.693c5.714-0.834,11.395-1.792,17.062-2.863
				c1.362-0.256,2.721-0.52,4.079-0.795l-8.262,27.417C387.199,355.606,386.055,356.178,384.904,356.732z"/>
		</g>
		<g>
			<path style="fill:#51200B;" d="M175.806,192.523c-5.127,4.137-14.906,5.773-22.951,6.57l0.122,8.578
				c0.013,0.852-0.617,1.44-1.534,1.352l-8.224-0.779c-0.499-0.046-0.983-0.283-1.366-0.656c-0.385-0.372-0.611-0.846-0.641-1.311
				l-0.425-6.755c-4.57-0.198-9.048-0.754-13.127-1.548c-4.139-0.803-8.975-2.123-13.961-3.875l-0.254,6.798
				c-0.018,0.454-0.239,0.835-0.612,1.063c-0.377,0.223-0.87,0.269-1.367,0.124l-8.284-2.427c-0.925-0.268-1.607-1.112-1.62-1.964
				l-0.124-8.732c-8.116-4.015-18.637-9.712-22.381-15.301c-0.248,17.942,7.489,34.255,21.423,47.101
				c1.728,1.59,3.761,2.906,5.996,4.219l0.318-4.898c-0.052-0.466,0.11-0.881,0.447-1.145c0.335-0.267,0.809-0.354,1.304-0.24
				l7.505,1.709c0.847,0.192,1.556,0.921,1.664,1.715c0,0,0.308,4.867,0.801,8.3c7.047,2.413,14.6,3.858,21.17,3.886l-0.674-8.279
				c-0.067-0.854,0.591-1.459,1.505-1.373l7.488,0.688c0.471,0.045,0.941,0.266,1.308,0.617c0.363,0.348,0.59,0.794,0.623,1.233
				l0.423,5.461c0.399-0.159,0.691-0.433,1.13-0.512C167.004,229.324,177.059,212.08,175.806,192.523z"/>
			<g>
				<path style="fill:#51200B;" d="M118.993,179.854l8.88-7.686l8.767,11.503C136.64,183.671,128.833,184.51,118.993,179.854z"/>
				<polygon style="fill:#51200B;" points="106.373,166.749 93.028,136.631 78.762,154.914 				"/>
				<polygon style="fill:#51200B;" points="145.976,174.433 158.533,149.341 173.403,173.275 				"/>
			</g>
		</g>
		<g>
			<path style="fill:#51200B;" d="M149.421,348.203c-2.362-1.34-1.935-5.941,1.473-6.145c3.599-0.213,6.477,3.214,6.016,6.144
				c-0.462,2.93-0.68,3.522-0.68,3.522s-0.442,2.629,0.596,3.531c2.325,2.019,5.377-0.072,5.377-0.072s-0.771,6.189-6.898,3.001
				c-2.596-1.347-3.233-4.852-2.85-7.291c0.386-2.44,0.539-2.63,0.762-4.04c0.225-1.411-2.216-3.396-3.621-1.824
				c-0.502,0.561-0.36,1.488,0.206,2.08c0.711,0.744,1.862,0.24,1.293-0.508c-0.395-0.516-0.944-0.399-1.026-0.255
				c-0.089,0.196-0.288,0.142-0.233-0.201c0.077-0.487,0.916-1.074,1.769-0.335c1.25,1.084,0.484,2.382-0.146,2.613
				C150.827,348.654,150.28,348.691,149.421,348.203z"/>
			<path style="fill:#51200B;" d="M71.68,323.84c-2.386-0.987-2.285-5.748,1.006-6.504c3.474-0.795,6.505,2.24,6.257,5.299
				c-0.244,3.063-1.188,14.777-1.188,14.777s-0.399,3.251,0.824,3.506c1.221,0.256,1.377-0.49,1.377-0.49s-0.186,2.994-2.86,2.436
				c-2.674-0.561-3.252-3.14-3.048-5.692c0.206-2.548,1.112-13.843,1.231-15.315c0.117-1.475-2.391-3.107-3.645-1.281
				c-0.447,0.656-0.249,1.575,0.341,2.092c0.741,0.643,1.821-0.061,1.217-0.729c-0.414-0.463-0.943-0.253-1.013-0.096
				c-0.075,0.217-0.269,0.193-0.24-0.167c0.039-0.509,0.814-1.243,1.691-0.625c1.289,0.901,0.633,2.351,0.04,2.688
				S72.547,324.199,71.68,323.84z"/>
			<path style="fill:#51200B;" d="M92.4,343.801c-1.223-0.255-0.82-3.373-0.82-3.373l1.19-14.684l-0.109-0.023l0.102-0.113
				c0.206-2.549,0.27-4.656-2.377-5.723c-2.961-1.195-3.539,2.381-3.539,2.381s0.155-0.646,1.377-0.391
				c0.917,0.193,0.914,2.369,0.864,3.102l0.018,0.002c-0.119,0.721-1.026,12.663-1.233,15.215c-0.203,2.551-0.276,4.526,2.368,5.596
				c2.962,1.193,3.54-2.444,3.54-2.444S93.622,344.055,92.4,343.801z"/>
			<path style="fill:#51200B;" d="M72.051,330.178c1.016-0.896,3.465-2.971,8.711-0.597c3.731,1.687,7.955,2.53,10.224,1.793
				l-0.245,2.35c0,0-2.427,2.722-9.171-0.069c-2.818-1.166-5.686-2.493-7.927-2.1C71.401,331.952,70.948,331.151,72.051,330.178z"/>
			<path style="fill:#51200B;" d="M105.864,336.318c-0.112-1.789-4.036-4.371-7.641-2.633c-3.731,1.797-4.586,9.021-0.676,12.1
				c4.125,3.246,6.529,1.673,8.038,0.119l0.221-2.754c0,0-3.568,3.707-6.628-1.175c-2.169-3.458,2.021-8.604,5.725-3.886
				c2.276,2.899,1.047,0.94,1.047,0.94L105.864,336.318z"/>
			<path style="fill:#51200B;" d="M109.339,347.488c-1.148-0.24-0.74-3.296-0.74-3.296l0.664-8.263
				c0.137-1.705,1.194-2.115,0.627-2.471c-1.828-1.139-4.007-0.512-4.189,1.728c-0.11,1.386-0.702,8.742-0.702,8.742
				s-0.234,4.349,2.256,5.353c2.789,1.123,3.357-2.26,3.357-2.26S110.491,347.728,109.339,347.488z"/>
			<path style="fill:#51200B;" d="M118.934,357.11c-0.167,2.509-1.115,4.675-3.829,3.929c-2.714-0.742-2.468-3.664-2.468-3.664
				s0.045,0.779,1.284,1.12c1.241,0.339,1.316-2.926,1.316-2.926l0.104-1.677c0,0,0.906-13.604,1.002-15.055
				c0.097-1.45-2.46-3.243-3.699-1.522c-0.441,0.615-0.223,1.539,0.381,2.089c0.762,0.691,1.847,0.076,1.221-0.631
				c-0.428-0.486-0.955-0.318-1.023-0.167c-0.072,0.21-0.27,0.172-0.246-0.181c0.033-0.501,0.804-1.173,1.702-0.498
				c1.313,0.983,0.676,2.369,0.082,2.662c-0.596,0.29-1.13,0.377-2.015-0.04c-2.426-1.149-2.402-5.854,0.915-6.365
				c3.501-0.54,6.613,2.679,6.414,5.69c-0.201,3.011-0.967,14.541-0.967,14.541L118.934,357.11z"/>
			<path style="fill:#51200B;" d="M127.451,340.904c-1.328-1.595-3.147-2.772-5.122-3.311c-0.62-0.174-2.897-0.689-4.147-0.32
				l0.321,3.038c0.313,0.034,2.807,0.244,3.132,0.331c2.667,0.732,4.269,2.545,4.191,4.852c-0.101,3.033-4.476,1.67-7.141,0.94
				c-0.324-0.091-0.639-0.204-0.942-0.34l-0.46,3.518c0.581,0.292,3.55,0.956,4.174,1.128c1.974,0.539,3.881,0.383,5.368-0.439
				c1.534-0.848,2.444-2.299,2.563-4.084C129.507,344.434,128.818,342.547,127.451,340.904z"/>
			<path style="fill:#51200B;" d="M137.123,360.846c-0.167,2.51-1.118,4.672-3.831,3.927c-2.713-0.743-2.47-3.663-2.47-3.663
				s0.047,0.78,1.286,1.117c1.24,0.34,1.315-2.926,1.315-2.926l0.105-1.672c0,0,0.907-13.606,1.003-15.059
				c0.096-1.447-2.461-3.242-3.699-1.521c-0.442,0.616-0.226,1.539,0.378,2.09c0.762,0.689,1.847,0.078,1.222-0.63
				c-0.427-0.486-0.957-0.32-1.024-0.169c-0.069,0.209-0.269,0.172-0.246-0.18c0.033-0.502,0.804-1.172,1.703-0.499
				c1.314,0.986,0.676,2.372,0.081,2.665c-0.595,0.289-1.13,0.375-2.012-0.045c-2.428-1.146-2.402-5.852,0.913-6.362
				c3.502-0.54,6.614,2.679,6.413,5.689c-0.199,3.011-0.965,14.54-0.965,14.54L137.123,360.846z"/>
			<path style="fill:#51200B;" d="M165.487,349.881c-0.853,2.762-3.508,13.619-3.508,13.619l-0.644,2.525
				c-0.604,2.354-2.654,4.25-5.968,2.795c-3.423-1.5-3.322-5.695-3.322-5.695s1.139,2.473,3.484,2.711
				c1.652,0.17,2.297-1.942,2.297-1.942l0.398-1.57c0,0,3.316-12.728,3.633-14.103c0.429-1.857,2.234-3.98,5.64-1.469
				C166.482,347.451,165.841,348.738,165.487,349.881z"/>
			<path style="fill:#51200B;" d="M145.637,344.638c-1.328-1.595-3.145-2.771-5.119-3.312c-0.623-0.172-2.898-0.688-4.148-0.32
				l0.322,3.042c0.312,0.031,2.806,0.238,3.131,0.329c2.664,0.73,4.268,2.545,4.192,4.853c-0.102,3.03-4.476,1.67-7.142,0.938
				c-0.323-0.088-0.641-0.204-0.942-0.339l-0.462,3.517c0.584,0.289,3.552,0.955,4.176,1.129c1.974,0.538,3.88,0.382,5.366-0.439
				c1.536-0.847,2.446-2.299,2.564-4.082C147.692,348.166,147.005,346.28,145.637,344.638z"/>
			<g>
				<g>
					<path style="fill:#51200B;" d="M149.627,404.765c-2.286-1.313-1.846-5.911,1.455-6.151c3.49-0.255,6.268,3.139,5.803,6.066
						c-0.46,2.928-0.675,3.523-0.675,3.523s-0.439,2.631,0.561,3.521c2.244,1.989,5.212-0.134,5.212-0.134s-0.778,6.185-6.702,3.075
						c-2.509-1.32-3.112-4.812-2.727-7.252c0.386-2.441,0.534-2.633,0.758-4.041c0.222-1.41-2.133-3.362-3.502-1.781
						c-0.489,0.568-0.354,1.49,0.189,2.076c0.686,0.732,1.809,0.218,1.258-0.52c-0.378-0.512-0.914-0.391-0.995-0.246
						c-0.088,0.198-0.28,0.145-0.226-0.195c0.077-0.488,0.894-1.083,1.718-0.355c1.209,1.066,0.456,2.372-0.154,2.61
						C150.989,405.199,150.457,405.24,149.627,404.765z"/>
					<path style="fill:#51200B;" d="M162.971,405.898c-0.568,2.887-0.674,3.521-0.674,3.521s-0.441,2.635,0.56,3.52
						c2.243,1.993,5.213-0.13,5.213-0.13s-0.779,6.185-6.7,3.075c-2.514-1.32-2.688-4.725-2.305-7.166
						c0.386-2.438,0.61-3.086,0.76-4.041c0.228-1.465,2.242-3.716,4.305-1.988C164.195,402.987,163.368,403.883,162.971,405.898z"/>
					<path style="fill:#51200B;" d="M169.47,407.201c-0.569,2.887-0.675,3.521-0.675,3.521s-0.442,2.63,0.559,3.52
						c2.246,1.993,5.213-0.134,5.213-0.134s-0.78,6.188-6.702,3.076c-2.51-1.319-3.112-4.809-2.727-7.248
						c0.385-2.441,0.758-4.043,0.758-4.043c0.332-2.16,1.915-3.887,4.732-1.902C170.695,404.285,169.867,405.188,169.47,407.201z"/>
				</g>
				<path style="fill:#51200B;" d="M120.228,406c-1.222-0.253-0.799-3.672-0.799-3.672l1.191-14.986l-0.146-0.03l0.1,0.192
					c0.207-2.551,0.271-4.51-2.376-5.576c-2.962-1.193-3.538,2.455-3.538,2.455s0.153-0.904,1.377-0.65
					c0.917,0.191,0.914,2.102,0.862,2.835l-0.05-0.011c-0.122,1.467-1.028,12.967-1.232,15.516
					c-0.208,2.548-0.246,4.686,2.403,5.754c2.961,1.193,3.563-2.363,3.563-2.363S121.451,406.256,120.228,406z"/>
				<path style="fill:#51200B;" d="M129.702,407.979c-1.222-0.255-0.846-3.685-0.846-3.685l1.189-14.988l-0.053-0.01l0.101,0.189
					c0.205-2.548,0.271-4.505-2.374-5.57c-2.963-1.195-3.54,2.454-3.54,2.454s0.157-0.907,1.379-0.649
					c0.916,0.19,0.914,2.1,0.862,2.832l-0.042-0.01c-0.119,1.466-1.027,12.967-1.232,15.516c-0.202,2.552-0.249,4.686,2.397,5.755
					c2.963,1.193,3.539-2.37,3.539-2.37S130.926,408.232,129.702,407.979z"/>
				<path style="fill:#51200B;" d="M73.393,380.582c-2.386-0.99-2.286-5.75,1.003-6.506c3.476-0.795,6.506,2.239,6.261,5.299
					c-0.248,3.058-1.188,14.773-1.188,14.773s-0.4,3.252,0.822,3.51c1.221,0.254,1.378-0.49,1.378-0.49s-0.185,2.99-2.859,2.434
					s-3.254-3.137-3.049-5.689c0.206-2.55,1.113-13.844,1.23-15.318c0.117-1.473-2.389-3.105-3.643-1.277
					c-0.449,0.654-0.252,1.574,0.34,2.086c0.741,0.645,1.824-0.054,1.217-0.726c-0.415-0.459-0.943-0.255-1.013-0.094
					c-0.074,0.213-0.271,0.19-0.24-0.169c0.041-0.508,0.813-1.241,1.69-0.625c1.291,0.902,0.635,2.352,0.04,2.688
					C74.79,380.814,74.26,380.938,73.393,380.582z"/>
				<path style="fill:#51200B;" d="M94.111,400.541c-1.223-0.256-0.817-3.668-0.817-3.668l1.191-14.979l-0.112-0.023l0.102,0.182
					c0.206-2.551,0.271-4.51-2.376-5.576c-2.964-1.195-3.538,2.453-3.538,2.453s0.156-0.898,1.375-0.645
					c0.918,0.193,0.918,2.112,0.864,2.842l0.02,0.005c-0.121,1.466-1.028,12.958-1.234,15.503c-0.204,2.551-0.278,4.678,2.367,5.746
					c2.965,1.193,3.541-2.37,3.541-2.37S95.334,400.795,94.111,400.541z"/>
				<path style="fill:#51200B;" d="M73.764,386.918c1.018-0.896,3.463-2.975,8.712-0.598c3.731,1.688,7.957,2.527,10.225,1.791
					l-0.248,2.352c0,0-2.428,2.723-9.171-0.07c-2.819-1.165-5.684-2.493-7.926-2.098C73.113,388.691,72.662,387.889,73.764,386.918z
					"/>
				<path style="fill:#51200B;" d="M108.215,393.188c-0.112-1.789-4.033-4.371-7.64-2.631c-3.73,1.797-4.586,9.021-0.677,12.1
					c4.125,3.246,6.528,1.675,8.039,0.121l0.222-2.754c0,0-3.567,3.703-6.629-1.178c-2.167-3.461,2.022-8.601,5.723-3.889
					c2.279,2.902,1.049,0.945,1.049,0.945L108.215,393.188z"/>
				<path style="fill:#51200B;" d="M111.693,404.359c-1.151-0.242-0.744-3.294-0.744-3.294l0.665-8.263
					c0.137-1.707,1.193-2.121,0.626-2.475c-1.827-1.142-4.008-0.511-4.188,1.729c-0.112,1.389-0.701,8.745-0.701,8.745
					s-0.234,4.346,2.255,5.351c2.787,1.121,3.356-2.262,3.356-2.262S112.842,404.598,111.693,404.359z"/>
				<path style="fill:#51200B;" d="M205.906,422.635c1.165,0.336,1.248-2.734,1.248-2.734l0.661-8.098
					c0.138-1.672-0.834-2.576-0.22-2.633c1.97-0.176,4.01,1.48,3.83,3.677c-0.111,1.354-0.699,8.566-0.699,8.566
					s-0.46,4.205-3.06,3.931c-2.911-0.309-2.934-3.766-2.934-3.766S204.741,422.301,205.906,422.635z"/>
				<path style="fill:#51200B;" d="M179.107,409.561c-1.098,0.957,0.172,3.33,1.736,4.105c1.73,0.864,3.781,0.967,5.519,0.609
					c1.415-0.295,3.175-2.338,0.827-5.939c-1.336-2.049-6.028-5.264-9.904-2.243c-3.875,3.018-2.175,11.404,4.555,13.605
					c5.942,1.947,7.674-2.708,6.814-4.418c-1.174,2.239-6.028,3.204-9.312-0.917c-2.821-3.538-0.393-7.146,3.167-6.22
					c3.662,0.956,4.293,4.278,1.681,4.063C182.926,412.102,180.169,412.027,179.107,409.561z"/>
				<path style="fill:#51200B;" d="M193.661,412.637c-1.097,0.957,0.177,3.328,1.736,4.107c1.732,0.859,3.783,0.964,5.52,0.607
					c1.416-0.294,3.176-2.34,0.829-5.939c-1.338-2.053-6.03-5.264-9.904-2.245c-3.878,3.022-2.174,11.404,4.555,13.606
					c5.939,1.945,7.673-2.709,6.812-4.419c-1.17,2.241-6.026,3.206-9.311-0.915c-2.822-3.54-0.393-7.146,3.167-6.217
					c3.661,0.955,4.293,4.274,1.684,4.059C197.481,415.177,194.725,415.102,193.661,412.637z"/>
				<path style="fill:#51200B;" d="M140.313,396.738c-3.976-1.135-7.708,1.236-8.334,5.291c-0.626,4.057,2.089,8.264,6.064,9.396
					c3.976,1.131,7.707-1.235,8.334-5.297C147.003,402.074,144.293,397.867,140.313,396.738z M142.864,405.131
					c-0.373,2.425-2.295,3.936-4.276,3.365c-1.988-0.563-3.298-2.994-2.921-5.415c0.373-2.427,2.294-3.933,4.277-3.372
					C141.933,400.277,143.242,402.709,142.864,405.131z"/>
				<path style="fill:#51200B;" d="M210.241,419.588c1.904-3.869,4.384-3.215,4.887-2.832c0.963,0.729,0.717,1.143,0.27,3.561
					c-0.568,3.088,0.215,5.939,2.73,7.252c4.813,2.508,5.223-2.415,5.223-2.415s-1.739,0.841-3.736-0.531
					c-1.376-0.944-0.559-3.519-0.559-3.519s0.021-1.515,0.334-2.836c1.073-4.486-5.881-8.875-8.951-3.649L210.241,419.588z"/>
			</g>
		</g>
	</g>
</g>
</svg>
