<?xml version="1.0" encoding="iso-8859-1"?>
<!-- Generator: Adobe Illustrator 15.1.0, SVG Export Plug-In . SVG Version: 6.00 Build 0)  -->
<!DOCTYPE svg PUBLIC "-//W3C//DTD SVG 1.1//EN" "http://www.w3.org/Graphics/SVG/1.1/DTD/svg11.dtd">
<svg version="1.1" id="_x37_" xmlns="http://www.w3.org/2000/svg" xmlns:xlink="http://www.w3.org/1999/xlink" x="0px" y="0px"
	 width="512px" height="512px" viewBox="0 0 512 512" style="enable-background:new 0 0 512 512;" xml:space="preserve">
<g>
	<g>
		<polygon style="fill:#C8C9CA;" points="512,137.18 512,461.967 88.854,373.773 88.854,48.987 		"/>
		<g>
			<polygon style="fill:#E56D00;" points="224.12,133.282 194.559,127.124 194.559,26.192 224.12,32.352 			"/>
			<polygon style="fill:#E56D00;" points="354.61,59.551 325.051,53.391 224.12,32.352 194.559,26.192 224.12,2.793 325.051,23.828 
							"/>
			<polygon style="fill:#E56D00;" points="354.61,160.481 325.051,154.32 325.051,53.391 354.61,59.551 			"/>
		</g>
		<polygon style="fill:#A5A5A5;" points="65.874,80.821 65.874,405.606 0,421.014 0,96.226 		"/>
		<polygon style="fill:#BABABA;" points="65.874,80.821 65.874,405.606 88.854,373.773 88.854,48.987 		"/>
		<polygon style="fill:#DBDCDC;" points="423.146,184.418 423.146,509.207 512,461.967 512,137.18 451.929,162.014 		"/>
		<polygon style="fill:#EEEEEF;" points="423.146,184.418 423.146,509.207 451.929,486.801 451.929,162.014 		"/>
	</g>
	<g>
		<g>
			<polygon style="fill:#FF7F00;" points="161.106,155.14 131.547,148.979 131.547,48.049 161.106,54.211 			"/>
			<polygon style="fill:#FF7F00;" points="291.598,81.41 262.037,75.245 161.106,54.211 131.547,48.049 161.106,24.648 
				262.037,45.682 			"/>
			<polygon style="fill:#FF7F00;" points="291.598,182.338 262.037,176.174 262.037,75.245 291.598,81.41 			"/>
		</g>
		<polygon style="fill:#51200B;" points="423.146,184.418 423.146,509.207 0,421.014 0,96.226 		"/>
		<path style="fill:#FF7F00;" d="M208.269,207.398c0,74.94-60.752,123.025-135.685,107.405C45.885,309.24,20.991,296.342,0,278.654
			V96.226l190.151,39.631C201.673,158.201,208.269,182.717,208.269,207.398z"/>
		<g>
			<path style="fill:#51200B;" d="M146.713,220.741c-5.449,4.394-15.846,6.137-24.398,6.984l0.13,9.118
				c0.013,0.904-0.655,1.532-1.631,1.437l-8.741-0.828c-0.532-0.053-1.048-0.301-1.454-0.699c-0.41-0.395-0.651-0.896-0.682-1.389
				l-0.451-7.183c-4.859-0.212-9.62-0.804-13.955-1.647c-4.4-0.851-9.541-2.257-14.842-4.118l-0.27,7.226
				c-0.018,0.482-0.253,0.893-0.652,1.132c-0.399,0.235-0.924,0.284-1.452,0.13l-8.806-2.578c-0.983-0.284-1.71-1.182-1.724-2.086
				l-0.131-9.288c-8.628-4.266-19.813-10.325-23.792-16.263c-0.264,19.074,7.96,36.416,22.773,50.071
				c1.836,1.69,3.999,3.091,6.374,4.487l0.34-5.211c-0.055-0.494,0.116-0.934,0.475-1.219c0.356-0.281,0.86-0.373,1.386-0.254
				l7.979,1.821c0.899,0.202,1.653,0.978,1.768,1.821c0,0,0.327,5.173,0.852,8.822c7.49,2.566,15.52,4.1,22.504,4.133l-0.716-8.802
				c-0.072-0.906,0.628-1.551,1.599-1.461l7.962,0.73c0.5,0.049,1,0.285,1.39,0.66c0.387,0.368,0.627,0.843,0.661,1.308l0.451,5.803
				c0.425-0.163,0.735-0.459,1.201-0.542C137.357,259.861,148.045,241.53,146.713,220.741z"/>
			<g>
				<path style="fill:#51200B;" d="M86.317,207.269l9.44-8.169l9.318,12.229C105.076,211.329,96.778,212.219,86.317,207.269z"/>
				<polygon style="fill:#51200B;" points="72.902,193.338 58.715,161.321 43.549,180.758 				"/>
				<polygon style="fill:#51200B;" points="115.002,201.506 128.351,174.833 144.16,200.28 				"/>
			</g>
		</g>
		<g>
			<path style="fill:#FF7F00;" d="M112.1,358.371c-2.373-1.344-1.944-5.967,1.478-6.17c3.613-0.212,6.503,3.229,6.039,6.168
				c-0.463,2.941-0.681,3.535-0.681,3.535s-0.445,2.643,0.598,3.549c2.334,2.029,5.397-0.072,5.397-0.072s-0.773,6.213-6.926,3.014
				c-2.605-1.352-3.247-4.872-2.861-7.324c0.388-2.447,0.541-2.639,0.765-4.052c0.224-1.419-2.225-3.412-3.634-1.835
				c-0.506,0.566-0.364,1.494,0.205,2.09c0.715,0.746,1.871,0.241,1.298-0.509c-0.395-0.519-0.947-0.401-1.031-0.259
				c-0.088,0.197-0.29,0.145-0.233-0.201c0.076-0.488,0.918-1.076,1.775-0.334c1.254,1.084,0.485,2.391-0.148,2.625
				C113.51,358.827,112.961,358.861,112.1,358.371z"/>
			<path style="fill:#FF7F00;" d="M34.045,333.91c-2.396-0.99-2.294-5.771,1.009-6.527c3.489-0.801,6.532,2.246,6.283,5.319
				c-0.245,3.071-1.192,14.834-1.192,14.834s-0.403,3.266,0.825,3.52c1.227,0.258,1.384-0.491,1.384-0.491s-0.185,3.004-2.871,2.445
				c-2.685-0.561-3.268-3.152-3.061-5.712c0.207-2.562,1.116-13.897,1.236-15.379c0.12-1.483-2.4-3.121-3.657-1.288
				c-0.451,0.659-0.25,1.584,0.34,2.101c0.745,0.646,1.83-0.059,1.222-0.729c-0.416-0.467-0.947-0.256-1.015-0.1
				c-0.077,0.219-0.271,0.195-0.243-0.163c0.04-0.512,0.817-1.249,1.697-0.629c1.294,0.907,0.636,2.359,0.041,2.698
				C35.449,334.147,34.916,334.27,34.045,333.91z"/>
			<path style="fill:#FF7F00;" d="M54.849,353.948c-1.229-0.255-0.824-3.382-0.824-3.382l1.196-14.746l-0.11-0.021l0.101-0.113
				c0.207-2.563,0.27-4.674-2.387-5.747c-2.973-1.202-3.552,2.39-3.552,2.39s0.156-0.643,1.381-0.389
				c0.921,0.191,0.92,2.375,0.868,3.111l0.02,0.002c-0.12,0.725-1.031,12.716-1.239,15.275c-0.205,2.563-0.279,4.545,2.377,5.615
				c2.974,1.204,3.554-2.45,3.554-2.45S56.075,354.206,54.849,353.948z"/>
			<path style="fill:#FF7F00;" d="M34.416,340.273c1.021-0.9,3.481-2.983,8.749-0.597c3.745,1.691,7.986,2.536,10.263,1.796
				l-0.245,2.363c0,0-2.437,2.73-9.208-0.072c-2.829-1.17-5.709-2.506-7.957-2.107C33.766,342.056,33.311,341.252,34.416,340.273z"
				/>
			<path style="fill:#FF7F00;" d="M68.367,346.438c-0.112-1.799-4.053-4.387-7.671-2.642c-3.747,1.805-4.604,9.053-0.679,12.144
				c4.141,3.262,6.556,1.683,8.071,0.128l0.22-2.77c0,0-3.582,3.72-6.653-1.178c-2.176-3.474,2.029-8.64,5.747-3.905
				c2.286,2.913,1.051,0.944,1.051,0.944L68.367,346.438z"/>
			<path style="fill:#FF7F00;" d="M71.855,357.653c-1.153-0.238-0.744-3.31-0.744-3.31l0.667-8.295
				c0.138-1.714,1.199-2.123,0.631-2.48c-1.836-1.145-4.023-0.513-4.208,1.737c-0.11,1.388-0.705,8.775-0.705,8.775
				s-0.234,4.364,2.265,5.372c2.801,1.128,3.371-2.27,3.371-2.27S73.012,357.897,71.855,357.653z"/>
			<path style="fill:#FF7F00;" d="M81.49,367.314c-0.167,2.518-1.121,4.691-3.845,3.946c-2.726-0.749-2.479-3.68-2.479-3.68
				s0.047,0.78,1.29,1.122c1.247,0.341,1.323-2.935,1.323-2.935l0.103-1.681c0,0,0.91-13.664,1.007-15.122
				c0.097-1.452-2.47-3.255-3.714-1.527c-0.444,0.618-0.225,1.547,0.381,2.102c0.766,0.691,1.856,0.075,1.227-0.636
				c-0.429-0.49-0.959-0.319-1.028-0.168c-0.072,0.213-0.271,0.172-0.249-0.182c0.035-0.503,0.808-1.176,1.71-0.499
				c1.318,0.985,0.678,2.38,0.082,2.672c-0.598,0.288-1.133,0.379-2.021-0.039c-2.437-1.153-2.414-5.882,0.917-6.394
				c3.516-0.541,6.642,2.691,6.44,5.716c-0.202,3.024-0.971,14.6-0.971,14.6L81.49,367.314z"/>
			<path style="fill:#FF7F00;" d="M90.04,351.044c-1.334-1.603-3.16-2.783-5.142-3.321c-0.624-0.176-2.91-0.699-4.165-0.326
				l0.323,3.052c0.314,0.033,2.818,0.245,3.143,0.333c2.678,0.733,4.286,2.555,4.21,4.869c-0.101,3.047-4.495,1.681-7.169,0.947
				c-0.327-0.092-0.644-0.208-0.946-0.346l-0.463,3.534c0.585,0.291,3.565,0.962,4.192,1.134c1.98,0.54,3.896,0.383,5.389-0.441
				c1.541-0.852,2.455-2.309,2.575-4.1C92.104,354.588,91.413,352.693,90.04,351.044z"/>
			<path style="fill:#FF7F00;" d="M99.751,371.064c-0.168,2.52-1.122,4.691-3.847,3.941c-2.725-0.745-2.479-3.675-2.479-3.675
				s0.046,0.783,1.291,1.121c1.245,0.342,1.319-2.938,1.319-2.938l0.108-1.68c0,0,0.91-13.662,1.005-15.116
				c0.097-1.455-2.47-3.258-3.713-1.533c-0.444,0.62-0.228,1.546,0.38,2.102c0.764,0.691,1.853,0.078,1.227-0.635
				c-0.43-0.487-0.963-0.32-1.03-0.167c-0.068,0.21-0.271,0.175-0.247-0.183c0.032-0.501,0.806-1.179,1.71-0.498
				c1.319,0.989,0.679,2.381,0.082,2.672c-0.599,0.292-1.135,0.38-2.021-0.043c-2.438-1.148-2.413-5.873,0.917-6.389
				c3.517-0.543,6.641,2.69,6.439,5.713c-0.2,3.023-0.97,14.599-0.97,14.599L99.751,371.064z"/>
			<path style="fill:#FF7F00;" d="M128.23,360.057c-0.856,2.771-3.524,13.671-3.524,13.671l-0.645,2.54
				c-0.608,2.359-2.666,4.268-5.992,2.803c-3.438-1.502-3.335-5.714-3.335-5.714s1.144,2.479,3.499,2.718
				c1.659,0.17,2.305-1.949,2.305-1.949l0.401-1.573c0,0,3.33-12.783,3.648-14.162c0.429-1.864,2.242-3.999,5.661-1.475
				C129.228,357.615,128.586,358.91,128.23,360.057z"/>
			<path style="fill:#FF7F00;" d="M108.299,354.79c-1.333-1.599-3.158-2.779-5.141-3.323c-0.625-0.172-2.908-0.693-4.164-0.32
				l0.325,3.053c0.312,0.033,2.815,0.241,3.142,0.33c2.674,0.732,4.285,2.556,4.209,4.873c-0.102,3.045-4.494,1.676-7.169,0.945
				c-0.326-0.092-0.644-0.208-0.947-0.342l-0.464,3.525c0.587,0.296,3.567,0.961,4.192,1.133c1.982,0.546,3.896,0.388,5.387-0.436
				c1.543-0.852,2.456-2.309,2.575-4.102C110.363,358.335,109.673,356.441,108.299,354.79z"/>
			<g>
				<g>
					<path style="fill:#FF7F00;" d="M112.305,415.162c-2.294-1.32-1.853-5.936,1.46-6.18c3.506-0.252,6.293,3.154,5.828,6.094
						c-0.462,2.939-0.678,3.535-0.678,3.535s-0.441,2.643,0.561,3.533c2.255,2.002,5.235-0.131,5.235-0.131
						s-0.783,6.207-6.729,3.088c-2.52-1.326-3.125-4.832-2.738-7.283c0.387-2.447,0.536-2.643,0.762-4.059
						c0.221-1.412-2.142-3.375-3.518-1.787c-0.491,0.574-0.354,1.5,0.19,2.086c0.69,0.738,1.816,0.221,1.263-0.523
						c-0.378-0.51-0.917-0.391-0.998-0.244c-0.089,0.197-0.281,0.145-0.228-0.197c0.078-0.49,0.897-1.084,1.725-0.355
						c1.214,1.072,0.458,2.381-0.154,2.621C113.673,415.596,113.139,415.641,112.305,415.162z"/>
					<path style="fill:#FF7F00;" d="M125.703,416.299c-0.572,2.898-0.678,3.535-0.678,3.535s-0.441,2.643,0.563,3.535
						c2.253,2,5.233-0.131,5.233-0.131s-0.783,6.209-6.726,3.086c-2.524-1.324-2.699-4.746-2.313-7.193
						c0.388-2.449,0.611-3.102,0.762-4.059c0.229-1.469,2.253-3.73,4.323-1.996C126.933,413.375,126.101,414.275,125.703,416.299z"
						/>
					<path style="fill:#FF7F00;" d="M132.227,417.605c-0.572,2.9-0.676,3.535-0.676,3.535s-0.444,2.641,0.56,3.531
						c2.255,2.002,5.234-0.131,5.234-0.131s-0.783,6.209-6.729,3.088c-2.52-1.322-3.125-4.828-2.737-7.279
						c0.385-2.451,0.761-4.059,0.761-4.059c0.332-2.166,1.923-3.9,4.75-1.912C133.458,414.682,132.626,415.584,132.227,417.605z"/>
				</g>
				<path style="fill:#FF7F00;" d="M82.788,416.404c-1.227-0.258-0.803-3.691-0.803-3.691l1.196-15.043l-0.146-0.031l0.1,0.189
					c0.208-2.561,0.272-4.523-2.385-5.594c-2.975-1.201-3.553,2.464-3.553,2.464s0.154-0.908,1.382-0.654
					c0.921,0.194,0.918,2.108,0.868,2.843l-0.053-0.008c-0.122,1.469-1.031,13.018-1.237,15.578
					c-0.208,2.563-0.246,4.703,2.413,5.777c2.974,1.197,3.579-2.375,3.579-2.375S84.017,416.656,82.788,416.404z"/>
				<path style="fill:#FF7F00;" d="M92.301,418.387c-1.228-0.254-0.851-3.699-0.851-3.699l1.195-15.045l-0.054-0.012l0.103,0.189
					c0.206-2.559,0.271-4.522-2.384-5.594c-2.975-1.199-3.554,2.463-3.554,2.463s0.157-0.907,1.384-0.649
					c0.92,0.191,0.919,2.104,0.866,2.841l-0.042-0.008c-0.12,1.472-1.03,13.02-1.237,15.58c-0.205,2.559-0.251,4.703,2.406,5.773
					c2.976,1.201,3.554-2.375,3.554-2.375S93.528,418.645,92.301,418.387z"/>
				<path style="fill:#FF7F00;" d="M35.765,390.877c-2.396-0.99-2.295-5.771,1.007-6.529c3.49-0.799,6.533,2.247,6.286,5.321
					c-0.248,3.07-1.192,14.831-1.192,14.831s-0.403,3.265,0.826,3.523c1.225,0.256,1.383-0.492,1.383-0.492s-0.185,3.004-2.87,2.445
					c-2.688-0.559-3.268-3.15-3.063-5.712c0.208-2.563,1.118-13.899,1.237-15.384c0.117-1.475-2.399-3.112-3.657-1.279
					c-0.452,0.658-0.252,1.578,0.341,2.094c0.744,0.649,1.832-0.053,1.222-0.73c-0.417-0.459-0.947-0.254-1.017-0.094
					c-0.074,0.215-0.272,0.193-0.242-0.166c0.042-0.512,0.818-1.248,1.698-0.631c1.296,0.908,0.638,2.365,0.042,2.703
					C37.167,391.114,36.635,391.235,35.765,390.877z"/>
				<path style="fill:#FF7F00;" d="M56.567,410.918c-1.227-0.254-0.821-3.68-0.821-3.68l1.195-15.039l-0.112-0.022l0.101,0.18
					c0.208-2.563,0.274-4.525-2.385-5.6c-2.976-1.2-3.552,2.466-3.552,2.466s0.156-0.904,1.381-0.646
					c0.92,0.191,0.92,2.114,0.868,2.851l0.018,0.002c-0.12,1.473-1.032,13.012-1.239,15.57c-0.204,2.561-0.278,4.693,2.377,5.766
					c2.976,1.199,3.555-2.377,3.555-2.377S57.795,411.176,56.567,410.918z"/>
				<path style="fill:#FF7F00;" d="M36.137,397.242c1.023-0.9,3.477-2.986,8.748-0.603c3.747,1.698,7.988,2.542,10.264,1.799
					l-0.247,2.363c0,0-2.438,2.729-9.208-0.07c-2.83-1.171-5.708-2.504-7.958-2.108C35.484,399.023,35.031,398.217,36.137,397.242z"
					/>
				<path style="fill:#FF7F00;" d="M70.729,403.537c-0.116-1.795-4.052-4.39-7.674-2.641c-3.744,1.802-4.603,9.053-0.677,12.146
					c4.14,3.258,6.554,1.682,8.071,0.123l0.223-2.764c0,0-3.582,3.717-6.656-1.184c-2.177-3.477,2.03-8.638,5.745-3.905
					c2.29,2.915,1.054,0.95,1.054,0.95L70.729,403.537z"/>
				<path style="fill:#FF7F00;" d="M74.219,414.752c-1.156-0.242-0.746-3.305-0.746-3.305l0.667-8.299
					c0.138-1.713,1.199-2.129,0.628-2.483c-1.834-1.143-4.023-0.513-4.202,1.737c-0.115,1.393-0.706,8.775-0.706,8.775
					s-0.234,4.367,2.265,5.375c2.799,1.129,3.37-2.27,3.37-2.27S75.372,414.994,74.219,414.752z"/>
				<path style="fill:#FF7F00;" d="M168.811,433.102c1.171,0.338,1.253-2.748,1.253-2.748l0.663-8.129
					c0.139-1.678-0.836-2.584-0.222-2.643c1.979-0.176,4.028,1.488,3.847,3.693c-0.111,1.359-0.703,8.6-0.703,8.6
					s-0.46,4.223-3.071,3.947c-2.923-0.309-2.945-3.781-2.945-3.781S167.64,432.768,168.811,433.102z"/>
				<path style="fill:#FF7F00;" d="M141.903,419.973c-1.103,0.963,0.172,3.346,1.743,4.127c1.739,0.863,3.796,0.967,5.541,0.609
					c1.423-0.297,3.188-2.346,0.83-5.963c-1.34-2.061-6.053-5.283-9.943-2.254c-3.89,3.031-2.183,11.451,4.573,13.662
					c5.967,1.955,7.705-2.719,6.842-4.438c-1.177,2.25-6.051,3.221-9.349-0.918c-2.833-3.555-0.394-7.178,3.179-6.244
					c3.677,0.957,4.312,4.293,1.688,4.074C145.738,422.525,142.97,422.451,141.903,419.973z"/>
				<path style="fill:#FF7F00;" d="M156.517,423.063c-1.101,0.961,0.176,3.344,1.741,4.125c1.74,0.863,3.8,0.969,5.543,0.609
					c1.421-0.291,3.188-2.344,0.832-5.965c-1.343-2.061-6.055-5.287-9.943-2.25c-3.894,3.033-2.185,11.445,4.572,13.66
					c5.963,1.951,7.703-2.721,6.838-4.436c-1.174,2.246-6.049,3.215-9.348-0.92c-2.833-3.555-0.394-7.18,3.181-6.244
					c3.675,0.961,4.31,4.293,1.689,4.074C160.352,425.613,157.583,425.537,156.517,423.063z"/>
				<path style="fill:#FF7F00;" d="M102.952,407.1c-3.991-1.139-7.737,1.242-8.367,5.311c-0.628,4.076,2.097,8.297,6.088,9.436
					c3.994,1.137,7.74-1.238,8.367-5.316C109.669,412.459,106.95,408.238,102.952,407.1z M105.515,415.525
					c-0.374,2.439-2.302,3.953-4.293,3.381c-1.997-0.564-3.311-3.01-2.933-5.438c0.375-2.438,2.304-3.947,4.295-3.385
					C104.58,410.656,105.895,413.098,105.515,415.525z"/>
				<path style="fill:#FF7F00;" d="M173.163,430.041c1.912-3.883,4.402-3.229,4.907-2.842c0.966,0.732,0.718,1.15,0.271,3.572
					c-0.571,3.102,0.214,5.965,2.739,7.283c4.835,2.52,5.247-2.424,5.247-2.424s-1.747,0.844-3.752-0.531
					c-1.382-0.949-0.561-3.537-0.561-3.537s0.019-1.52,0.334-2.844c1.078-4.506-5.905-8.914-8.987-3.662L173.163,430.041z"/>
			</g>
		</g>
		<g>
			<path style="fill:#FF7F00;" d="M423.145,378.742v-69.049c-0.739,0.309-1.48,0.605-2.232,0.902
				c-2.501,0.992-5.058,1.903-7.649,2.757c-5.179,1.704-10.502,3.153-15.909,4.403c-10.822,2.472-22.007,4.105-33.396,4.885
				c-11.384,0.774-23.001,0.674-34.675-0.654c-5.833-0.678-11.675-1.646-17.459-3.03c-1.451-0.35-2.894-0.721-4.33-1.11
				c-1.438-0.407-2.868-0.816-4.293-1.279c-2.848-0.904-5.668-1.922-8.425-3.106c-0.883-0.378-1.849-0.6-2.786-0.592
				c-3.524,0.022-5.769,3.032-5.007,6.717l0.37,1.797c1.195,2.538,2.113,5.262,2.816,8.057c0.36,1.399,0.646,2.813,0.902,4.243
				c0.247,1.429,0.443,2.871,0.603,4.314c0.618,5.783,0.534,11.623,0,17.356c-0.547,5.735-1.555,11.383-2.887,16.897
				c-1.342,5.519-3.015,10.91-4.945,16.165c-3.875,10.509-8.749,20.489-14.474,29.81c-2.864,4.66-5.948,9.146-9.253,13.43
				c-1.659,2.129-3.364,4.219-5.141,6.236c-1.781,2.018-3.604,3.969-5.547,5.826c-0.592,0.576-1.069,1.338-1.331,2.221
				c-0.977,3.279,1.059,7.322,4.544,9.023l0.054,0.027c2.402,1.176,4.96,2.799,7.484,4.557c1.264,0.885,2.527,1.809,3.784,2.77
				c1.257,0.955,2.508,1.941,3.75,2.957c4.972,4.051,9.832,8.428,14.552,12.979c0.701,0.67,1.397,1.348,2.091,2.029l15.248,3.176
				c-3.554-4.006-7.162-7.979-10.831-11.91c-4.658-4.969-9.403-9.887-14.4-14.691c-1.041-1.002-2.094-1.996-3.158-2.986l27.15-1.195
				c0.467,0.24,0.959,0.438,1.472,0.576c1.301,0.354,2.912,1.158,4.513,2.119c1.615,0.965,3.259,2.115,4.89,3.348
				c3.26,2.479,6.45,5.311,9.544,8.277c3.094,2.973,6.095,6.105,9.002,9.328c2.908,3.232,5.727,6.553,8.458,9.949
				c1.525,1.902,3.026,3.822,4.486,5.758l12.194,2.541c-3.403-4.408-6.834-8.771-10.313-13.115
				c-5.625-7.012-11.351-13.949-17.39-20.807c-2.608-2.957-5.279-5.889-8.115-8.807l21.84-0.959l0.189,0.232
				c1.983,0.611,3.931,1.559,5.841,2.662c1.906,1.113,3.765,2.424,5.557,3.855c3.581,2.885,6.874,6.301,9.809,9.994
				c2.938,3.697,5.519,7.693,7.593,11.846c1.031,2.08,1.953,4.186,2.679,6.307c0.176,0.527,0.348,1.055,0.506,1.582
				c0.15,0.527,0.305,1.053,0.425,1.574c0.167,0.688,0.3,1.359,0.397,2.023l-2.146,7.127l11.697,2.439l1.023-3.389
				c1.271-1.092,2.714-1.969,4.237-2.736c1.711-0.852,3.534-1.547,5.437-2.092c3.806-1.09,7.897-1.625,12.094-1.756
				c4.195-0.146,8.515,0.125,12.911,0.924c1.967,0.359,3.95,0.809,5.951,1.377v-20.543l-19.616-24.277l19.616-0.867v-11.611
				l-22.373,0.984l8.249-27.385c0.226,0.338,0.454,0.674,0.682,1.004c1.532,2.215,3.103,4.367,4.699,6.494
				c1.594,2.113,3.223,4.193,4.91,6.219c1.257,1.512,2.537,2.998,3.833,4.461v-12.098c-0.757-0.938-1.486-1.898-2.176-2.879
				c-1.334-1.893-2.521-3.863-3.527-5.887c-1.013-2.021-1.826-4.094-2.419-6.182c-0.585-2.084-0.974-4.182-0.966-6.25
				c0-0.365-0.044-0.763-0.134-1.152l5.895-19.568C420.902,375.145,422.011,376.959,423.145,378.742z M308.235,425.328
				c-1.621,3.15-3.399,6.182-5.395,8.953c-0.995,1.385-2.043,2.705-3.155,3.918c-0.549,0.619-1.127,1.193-1.709,1.744
				c-0.295,0.271-0.588,0.539-0.89,0.795l-0.456,0.371l-0.036,0.029l-28.477,1.254c3.411-5.984,6.667-12.035,9.717-18.205
				c5.068-10.221,9.684-20.702,13.646-31.59c1.975-5.443,3.787-10.983,5.384-16.649c1.598-5.673,2.977-11.47,4.031-17.454
				c1.044-5.99,1.777-12.156,1.906-18.633c0.003-0.109,0.003-0.225,0.003-0.334l17.79,22.013c0.353,1.442,0.563,3.054,0.699,4.67
				c0.087,0.925,0.126,1.864,0.169,2.805c0.026,0.945,0.039,1.89,0.036,2.835c-0.018,3.801-0.322,7.594-0.768,11.346
				c-0.923,7.504-2.506,14.842-4.595,21.91C314.044,412.166,311.462,419,308.235,425.328z M349.537,421.178
				c-1.435,3.779-3.353,7.322-5.664,10.582c-1.163,1.627-2.415,3.195-3.797,4.664c-0.689,0.734-1.4,1.457-2.154,2.141
				c-0.291,0.268-0.588,0.529-0.891,0.787l-23.325,1.031c1.357-3.139,2.596-6.297,3.751-9.467
				c2.621-7.188,4.907-14.441,7.028-21.775c2.108-7.339,4.061-14.732,5.858-22.275c0.818-3.422,1.583-6.876,2.294-10.416
				l16.656,20.609c0.521,0.897,0.93,1.819,1.271,2.766c0.19,0.503,0.337,1.008,0.495,1.523c0.132,0.514,0.266,1.027,0.378,1.551
				c0.44,2.081,0.603,4.193,0.562,6.281C351.906,413.363,350.974,417.406,349.537,421.178z M351.54,436.818
				c1.361-4.105,2.839-8.121,4.283-12.193c1.432-4.078,2.856-8.186,4.149-12.535c0.133-0.439,0.262-0.885,0.388-1.33l21.505,26.613
				l-30.941,1.365C351.127,438.096,351.332,437.459,351.54,436.818z M368.448,404.614c0.555,0.003,1.104,0.005,1.653,0.005
				c4.62,0.006,9.143,0.004,13.684-0.074c4.538-0.089,9.064-0.273,13.666-0.676c0.248-0.021,0.496-0.042,0.743-0.066l-8.256,27.408
				L368.448,404.614z M376.42,476.09c-0.126-0.18-0.247-0.352-0.373-0.525c-3.026-4.307-6.095-8.498-9.315-12.623
				c-3.223-4.127-6.608-8.164-10.251-12.125c-0.208-0.225-0.421-0.455-0.633-0.684l28.775-1.271L376.42,476.09z M418.773,483.053
				c-0.916,0.088-1.835,0.158-2.758,0.219c-4.357,0.268-8.766,0.207-13.216,0.125c-4.448-0.059-8.924-0.119-13.49-0.084
				c-0.877,0.01-1.755,0.02-2.638,0.025l8.779-29.146L418.773,483.053z M402.631,389.073c-0.955,1.181-2.201,2.166-3.568,3.024
				c-1.564,0.963-3.307,1.76-5.147,2.395c-3.692,1.26-7.761,1.906-11.934,2.078c-4.18,0.175-8.501-0.151-12.798-1.078
				c-2.144-0.469-4.281-1.078-6.344-1.889c-0.513-0.205-1.021-0.422-1.521-0.641c-0.503-0.234-0.993-0.467-1.468-0.721
				c-0.478-0.252-0.94-0.523-1.38-0.805c-0.215-0.147-0.429-0.294-0.631-0.439c-0.097-0.079-0.215-0.158-0.284-0.229l-0.057-0.053
				l-0.028-0.025l-0.051-0.035l-0.197-0.141l-0.388-0.275l-16.494-20.416c3.755,0.342,7.523,0.716,11.31,1.04
				c4.04,0.358,8.104,0.663,12.162,0.813c4.058,0.146,8.11,0.127,12.104-0.101c7.998-0.452,15.683-1.717,23.24-3.071
				c3.417-0.605,6.815-1.233,10.222-1.832L402.631,389.073z M410.492,353.316c-0.813,0.4-1.641,0.773-2.462,1.152l-2.487,1.095
				c-3.336,1.414-6.731,2.685-10.185,3.793c-6.906,2.2-14.057,3.735-21.458,4.085c-3.698,0.18-7.459,0.073-11.271-0.294
				c-3.809-0.37-7.67-0.997-11.565-1.795c-3.891-0.809-7.814-1.796-11.757-2.9c-1.971-0.552-3.941-1.138-5.918-1.764
				c-1.67-0.528-3.339-1.078-5.016-1.675l-20.306-25.133c7.605,1.05,15.072,1.668,22.467,1.992
				c12.101,0.525,23.971,0.281,35.701-0.441c11.729-0.752,23.297-2.018,34.762-3.711c5.735-0.839,11.44-1.798,17.13-2.877
				c1.367-0.258,2.731-0.523,4.096-0.797l-8.295,27.526C412.797,352.188,411.647,352.761,410.492,353.316z"/>
		</g>
	</g>
</g>
</svg>
