<?xml version="1.0" encoding="iso-8859-1"?>
<!-- Generator: Adobe Illustrator 15.1.0, SVG Export Plug-In . SVG Version: 6.00 Build 0)  -->
<!DOCTYPE svg PUBLIC "-//W3C//DTD SVG 1.1//EN" "http://www.w3.org/Graphics/SVG/1.1/DTD/svg11.dtd">
<svg version="1.1" id="_x35_" xmlns="http://www.w3.org/2000/svg" xmlns:xlink="http://www.w3.org/1999/xlink" x="0px" y="0px"
	 width="512px" height="512px" viewBox="0 0 512 512" style="enable-background:new 0 0 512 512;" xml:space="preserve">
<g>
	<g>
		<g>
			<path style="fill:#666767;" d="M218,374.945v90.318c-16,12.195-22-2.497-22-2.497v-80.506L218,374.945z"/>
			<path style="fill:#666767;" d="M319,374.945v90.318c-17,12.195-23-2.497-23-2.497v-80.506L319,374.945z"/>
			<g>
				<path style="fill:#D1E9DB;" d="M192.801,498.125c-2.456,4.623-1.229,9.249,0,11.563C194.028,512,235.759,512,247.42,512
					c11.661,0,30.684,0,32.527-2.312c1.84-2.314,1.84-7.709,0-9.252C278.104,498.895,192.801,498.125,192.801,498.125z"/>
				<path style="fill:#2EAC6F;" d="M281.174,503.492l-55.846,0.799c0,0-9.464,0.011-18.159-0.594
					c-6.248-0.431-12.1-1.188-13.757-2.486c-4.907-3.854,1.229-14.646-1.224-34.69c-0.839-6.855,1.178-11.593,4.885-10.034
					c0.567,0.234,1.685,0.441,3.165,0.589c5.119,0.505,14.588,0.311,20.721-1.592c1.186-0.365,2.249-0.796,3.129-1.298
					c6.751-3.856,4.915,3.086,13.506,10.018c7.929,6.403,24.867,10.931,33.595,13.918c0.728,0.251,1.4,0.488,2.004,0.717
					C285.469,483.479,281.174,503.492,281.174,503.492z"/>
				<path style="fill:#D1E9DB;" d="M271.189,478.121c-1.69,2.835-8.191,4.039-22.384-0.668c-14.444-4.786-23.87-16.246-27.847-21.97
					c1.186-0.365,2.249-0.796,3.129-1.298c6.751-3.856,4.915,3.086,13.506,10.018C245.523,470.606,262.461,475.134,271.189,478.121z
					"/>
				<path style="fill:#47B579;" d="M207.169,503.697c-6.248-0.431-12.1-1.188-13.757-2.486c-4.907-3.854,1.229-14.646-1.224-34.69
					c-0.839-6.855,1.178-11.593,4.885-10.034c0.567,0.234,1.685,0.441,3.165,0.589C199.981,465.926,198.375,494.602,207.169,503.697
					z"/>
				<polygon style="fill:#47B579;" points="231.341,480.877 238.259,495.661 232.663,495.775 226.391,482.239 				"/>
				<polygon style="fill:#47B579;" points="220.741,481.023 227.659,495.814 222.063,495.926 215.791,482.39 				"/>
				<polygon style="fill:#47B579;" points="210.549,480.661 217.467,495.449 211.871,495.561 205.599,482.024 				"/>
				<path style="fill:#47B579;" d="M232.091,470.606c-0.422,0.528-1.104,0.528-1.527,0l-0.787-0.99
					c-0.423-0.528-0.423-1.387,0-1.916l6.285-7.894c0.42-0.529,1.104-0.529,1.524,0l0.791,0.989c0.42,0.529,0.42,1.388,0,1.916
					L232.091,470.606z"/>
				<path style="fill:#47B579;" d="M237.845,475.452c-0.376,0.578-1.057,0.665-1.518,0.191l-0.861-0.889
					c-0.463-0.472-0.531-1.327-0.153-1.905l5.631-8.641c0.376-0.578,1.058-0.663,1.519-0.188l0.864,0.886
					c0.46,0.478,0.526,1.328,0.149,1.908L237.845,475.452z"/>
				<path style="fill:#47B579;" d="M246.077,480.346c-0.283,0.653-0.938,0.899-1.464,0.542l-0.979-0.668
					c-0.523-0.356-0.72-1.181-0.434-1.837l4.242-9.813c0.284-0.657,0.938-0.902,1.461-0.546l0.981,0.668
					c0.523,0.357,0.717,1.181,0.434,1.837L246.077,480.346z"/>
				<path style="fill:#47B579;" d="M254.917,483.488c-0.21,0.7-0.832,1.058-1.391,0.796l-1.044-0.496
					c-0.556-0.259-0.842-1.042-0.632-1.742l3.118-10.456c0.21-0.7,0.831-1.055,1.39-0.793l1.044,0.49
					c0.559,0.262,0.84,1.047,0.633,1.745L254.917,483.488z"/>
			</g>
			<g>
				<path style="fill:#D1E9DB;" d="M292.68,495.367c-2.225,4.189-1.113,8.379,0,10.473c1.111,2.093,38.907,2.093,49.467,2.093
					c10.563,0,27.792,0,29.457-2.093c1.669-2.094,1.669-6.981,0-8.38C369.938,496.064,292.68,495.367,292.68,495.367z"/>
				<path style="fill:#2EAC6F;" d="M372.716,500.229l-50.579,0.726c0,0-8.57,0.008-16.445-0.54
					c-5.658-0.393-10.957-1.077-12.456-2.251c-4.449-3.495,1.109-13.267-1.112-31.418c-0.76-6.209,1.066-10.499,4.425-9.088
					c0.515,0.213,1.525,0.398,2.867,0.535c4.637,0.452,13.212,0.277,18.767-1.445c1.07-0.332,2.036-0.72,2.832-1.178
					c6.117-3.491,4.451,2.797,12.232,9.074c7.184,5.801,22.523,9.903,30.429,12.604c0.66,0.229,1.267,0.441,1.814,0.651
					C376.606,482.104,372.716,500.229,372.716,500.229z"/>
				<path style="fill:#D1E9DB;" d="M363.675,477.249c-1.531,2.57-7.417,3.66-20.274-0.603
					c-13.081-4.334-21.618-14.714-25.219-19.898c1.07-0.332,2.036-0.72,2.832-1.178c6.117-3.491,4.451,2.797,12.232,9.074
					C340.43,470.445,355.77,474.548,363.675,477.249z"/>
				<path style="fill:#47B579;" d="M305.691,500.415c-5.658-0.393-10.957-1.077-12.456-2.251
					c-4.449-3.495,1.109-13.267-1.112-31.418c-0.76-6.209,1.066-10.499,4.425-9.088c0.515,0.213,1.525,0.398,2.867,0.535
					C299.184,466.207,297.728,492.175,305.691,500.415z"/>
				<polygon style="fill:#47B579;" points="326.235,479.746 332.5,493.138 327.434,493.241 321.752,480.98 				"/>
				<polygon style="fill:#47B579;" points="316.633,479.882 322.9,493.273 317.83,493.377 312.149,481.116 				"/>
				<polygon style="fill:#47B579;" points="307.403,479.552 313.668,492.943 308.6,493.047 302.92,480.787 				"/>
				<path style="fill:#47B579;" d="M328.261,470.445c-0.381,0.479-1,0.479-1.382,0l-0.714-0.896c-0.382-0.48-0.382-1.257,0-1.736
					l5.694-7.15c0.381-0.479,1.001-0.479,1.383,0l0.714,0.897c0.382,0.479,0.382,1.256,0,1.736L328.261,470.445z"/>
				<path style="fill:#47B579;" d="M333.477,474.834c-0.345,0.523-0.961,0.603-1.378,0.174l-0.782-0.807
					c-0.416-0.428-0.479-1.202-0.136-1.726l5.101-7.825c0.343-0.523,0.956-0.603,1.376-0.169l0.78,0.801
					c0.419,0.431,0.479,1.202,0.136,1.729L333.477,474.834z"/>
				<path style="fill:#47B579;" d="M340.932,479.263c-0.26,0.595-0.854,0.818-1.325,0.494l-0.89-0.608
					c-0.474-0.318-0.651-1.063-0.393-1.662l3.841-8.887c0.257-0.594,0.851-0.817,1.325-0.493l0.889,0.608
					c0.475,0.321,0.648,1.065,0.393,1.659L340.932,479.263z"/>
				<path style="fill:#47B579;" d="M348.937,482.111c-0.19,0.633-0.753,0.957-1.26,0.72l-0.945-0.444
					c-0.504-0.24-0.761-0.948-0.573-1.581l2.824-9.469c0.19-0.636,0.753-0.957,1.257-0.72l0.946,0.444
					c0.506,0.239,0.763,0.945,0.571,1.581L348.937,482.111z"/>
			</g>
			<rect x="196" y="435" style="fill:#A6A6A5;" width="22" height="11"/>
			<rect x="196" y="416" style="fill:#A6A6A5;" width="22" height="11"/>
			<rect x="296" y="435" style="fill:#A6A6A5;" width="23" height="11"/>
			<rect x="296" y="416" style="fill:#A6A6A5;" width="23" height="11"/>
		</g>
		<path style="fill:#FFFFFF;" d="M230.284,55.416c-69.374,13.875-83.7,82.913-85.385,131.737
			c-2.439,70.747-16.695,93.826-56.107,146.376c-29.275,39.033,9.758,75.627,48.789,53.671
			c39.033-21.956,43.912,21.956,80.505,26.835c36.594,4.879,41.473-24.396,63.429-24.396c21.953,0,41.103,30.943,65.868,19.517
			c31.711-14.638,27.606-32.745,34.15-41.473c14.639-19.517,43.912,2.439,51.232-34.154c7.318-36.593-47.999-22.19-58.551-148.818
			C369.336,126.164,340.061,33.46,230.284,55.416z"/>
		<g>
			<path style="fill:#1A1A1A;" d="M249.023,185.817c6.499-0.147,6.501-7.346,13.004-7.346c6.498,0,6.498,7.346,13,7.346
				c6.5,0,6.5-7.346,13.001-7.346c6.504,0,6.504,7.346,13.003,7.346c6.506,0,6.506-7.346,13.004-7.346
				c6.505,0,6.592,6.558,13.005,7.346c7.562,0.921,8.357-14,6.482-21.569c-1.87-7.566-3.745-21.329-13.973-20.176
				c-5.241,0.586-5.304,7.338-10.609,7.338c-5.301,0-5.301-7.338-10.603-7.338c-5.311,0-5.311,7.338-10.611,7.338
				c-5.304,0-5.304-7.338-10.614-7.338c-5.304,0-5.304,7.338-10.614,7.338c-5.301,0-5.52-6.237-10.609-7.338
				c-8.49-1.84-10.366,7.104-13.173,18.115C239.906,173.194,238.477,186.052,249.023,185.817z"/>
		</g>
		<g>
			<path style="fill:#47B579;" d="M174.392,103.262c11.696-4.68,49.126-39.767,114.624-37.428
				c39.77,2.339,54.197,24.984,54.197,24.984S340.868-6.658,242.618,0.361c-84.033,6.002-93.957,70.15-93.957,112.258
				C158.015,114.958,174.392,103.262,174.392,103.262z"/>
			<path style="fill:#30A967;" d="M237.158,70.544c-4.677,7.017-48.731,82.624-116.57,80.282
				c-60.965-2.102-36.781-66.743,11.696-56.143C171.655,103.295,237.158,70.544,237.158,70.544z"/>
			<polygon style="fill:#FFFFFF;" points="220.891,36.549 224.685,31.419 207.079,34.799 209.172,38.547 208.919,48.771 
				192.9,50.651 192.979,41.308 195.71,36.979 182.503,39.514 184.169,42.807 184.177,67.325 182.569,70.719 195.336,70.664 
				192.76,67.143 192.851,56.393 208.766,55.035 208.477,66.733 206.275,70.615 223.123,70.544 219.803,66.488 			"/>
		</g>
	</g>
	<g>
		<path style="fill:#DC2873;" d="M367.248,99.062c0-1.26,0.21-2.767-0.169-3.982c-0.581-1.867-3.214-1.712-4.751-1.712
			c-2.475,0.068-3.663-2.876-4.787-4.604c-1.896-2.917-4.159-3.266-7.414-3.506c-6.229-0.463-12.486-0.507-18.729-0.525
			c-10.321-0.027-20.882-0.243-31.137,1.201c-2.831,0.401-5.394,1.031-7.847,2.503c-2.608,1.567-6.038,1.327-8.952,1.265
			c-2.576-0.052-4.753-0.333-6.961-1.654c-3.164-1.895-7.196-2.184-10.778-2.511c-11.84-1.085-23.858-0.954-35.734-0.72
			c-3.058,0.058-6.12,0.152-9.172,0.344c-2.398,0.149-5.402-0.074-7.283,1.682c-1.469,1.377-2.216,3.301-3.429,4.874
			c-1.66,2.145-3.65,1.294-5.983,1.927c-2.096,0.562-1.821,2.66-1.821,4.413c0,1.949-0.123,3.938,0,5.885
			c0.06,0.957,0.177,2.394,1.156,2.917c0.728,0.393,1.461,0.158,2.15,0.779c1.276,1.155,1.022,2.933,1.246,4.476
			c1.245,8.564,6.618,16.663,13.776,21.408c10.372,6.88,25.262,7.785,36.904,3.838c8.041-2.723,13.973-8.569,17.511-16.196
			c1.425-3.064,2.472-6.277,3.462-9.502c0.98-3.206,2.218-10.857,6.746-10.225c4.454,0.654,5.476,9.271,6.646,12.891
			c1.088,3.366,2.363,6.688,4.116,9.771c4.497,7.904,11.971,12.819,20.851,14.542c17.771,3.445,37.496-2.734,44.239-20.699
			c0.611-1.622,1.105-3.293,1.426-4.997c0.331-1.741-0.011-4.042,1.389-5.307c1.422-1.287,2.942-0.426,3.281-2.987
			C367.439,102.828,367.248,100.888,367.248,99.062z M300.908,107.631c-0.188-2.224-0.646-6.084,1.096-7.822
			c2.893-3.978,9.669-4.477,14.136-4.932c6.556-0.673,13.239-0.793,19.821-0.553c4.711,0.169,12.207,0.125,15.6,4.091
			c2.029,2.124,1.754,5.335,1.565,8.047c-0.37,5.934-2.465,12.307-6.461,16.796c-3.625,4.348-8.888,6.566-14.401,7.346
			c-12.16,1.723-25.647-3.955-30.018-16.09C301.451,112.301,301.103,109.965,300.908,107.631z M216.875,100.023
			c2.38-4.775,9.51-5.313,14.163-5.579c6.239-0.354,12.498-0.191,18.731,0.142c5.395,0.365,15.174,0.452,18.208,5.915
			c0.51,1.267,0.7,2.396,0.741,3.742c0,6.157-1.202,11.884-5.108,16.817c-3.677,4.643-9.159,7.843-14.899,9.118
			c-11.77,2.619-24.254-1.357-29.522-12.745c-1.341-2.9-2.197-6.041-2.593-9.208C216.292,105.794,215.736,102.305,216.875,100.023z"
			/>
	</g>
</g>
</svg>
