<?xml version="1.0" encoding="iso-8859-1"?>
<!-- Generator: Adobe Illustrator 22.1.0, SVG Export Plug-In . SVG Version: 6.00 Build 0)  -->
<svg version="1.1" id="_x36_" xmlns="http://www.w3.org/2000/svg" xmlns:xlink="http://www.w3.org/1999/xlink" x="0px" y="0px"
	 viewBox="0 0 512 512" style="enable-background:new 0 0 512 512;" xml:space="preserve">
<g>
	<path style="fill:#595757;" d="M377.95,42.524c-7.32,5.876-27.837,1.478-27.837,1.478l-11.736,54.229l-4.996-0.864L193.284,73.315
		C212.34,49.86,278.288-1.43,323.72,0.031c31.255,1.012,48.635,17.959,54.063,30.36C380.24,36.017,380.24,40.698,377.95,42.524z"/>
	<path style="fill:#494444;" d="M239.028,145.39c-53.933-5.393-148.248-30.41-137.795-57.019
		c10.453-26.609,126.392-27.559,216.671-3.801s113.087,60.82,77.926,73.174C361.337,169.862,277.04,149.191,239.028,145.39z"/>
	<path style="fill:#C8C9CA;" d="M243.756,437.113l-2.75,36.174l-1.093,14.526c0,0-0.882,13.01-0.882,14.174
		s-6.486,5.006-6.486,5.006L200.989,512l-8.85-1.164l-10.331-6.205l-2.08-10.013l1.481-7.687c0,0,4.724-4.406,7.686-5.006
		c2.927-0.6,6.769-2.363,7.651-2.363c0.881,0,4.442,2.645,4.442,2.645s3.244,5.923,1.763,7.967c-1.482,2.081-3.526,3.561-5.888,2.68
		c-2.362-0.88-2.679-1.48,2.045-3.56c0,0-1.481-3.244-3.244-3.526c-1.763-0.282-6.17,3.844-6.17,5.888
		c0,2.08-0.035,10.613,10.119,6.805c10.119-3.808,26.619-11.423,26.619-11.423l-1.128-13.433l-2.679-32.226L243.756,437.113z"/>
	<path style="fill:#C8C9CA;" d="M316.034,494.618l-2.081,10.013l-10.33,6.205l-8.85,1.164l-31.555-5.007
		c0,0-6.487-3.842-6.487-5.006s-0.882-14.174-0.882-14.174l-1.128-14.772l-2.714-35.928l21.331,4.267l-2.609,31.344l-1.199,14.315
		c0,0,16.5,7.616,26.654,11.423c10.154,3.808,10.119-4.725,10.119-6.805c0-2.044-4.442-6.17-6.205-5.888
		c-1.763,0.282-3.244,3.526-3.244,3.526c4.724,2.08,4.442,2.68,2.08,3.56c-2.363,0.882-4.442-0.598-5.923-2.68
		c-1.481-2.044,1.763-7.967,1.763-7.967s3.561-2.645,4.442-2.645c0.882,0,4.724,1.764,7.651,2.363
		c2.961,0.6,7.686,5.006,7.686,5.006L316.034,494.618z"/>
	<path style="fill:#595757;" d="M348.229,453.251c0,0,1.199,1.198-3.455,3.067c-5.112,1.974-17.136,4.69-45.236,7.439
		c-46.116,4.477-117.97-3.667-137.855-6.1c-3.385-0.423-5.254-0.669-5.254-0.669c-6.734-40.439,1.517-120.616,10.507-140.112
		c-32.966,5.254-32.014-21.508-11.988-44.177c44.953-50.948,160.315-27.748,180.553-13.505
		c20.237,14.244,17.981,44.213-1.481,44.213C355.738,362.605,348.229,453.251,348.229,453.251z"/>
	<path style="fill:#494444;" d="M329.507,311.376c7.333,16.923,18.44,110.884,15.267,144.943c-5.112,1.974-17.136,4.69-45.236,7.439
		c-46.116,4.477-117.97-3.667-137.855-6.1c-1.023-3.843,11.353-4.231,30.356-2.714c25.033,2.044,115.116,8.144,125.975,1.375
		c10.824-6.769,8.779-113.811,3.385-129.36c-5.43-15.583-12.2-12.198-49.466-14.913c-37.232-2.715-81.268-18.299-63.639-35.892
		l105.631-23.693c0,0,15.584,0.669,27.783,15.549c12.199,14.913-4.054,29.827-4.054,29.827S328.168,303.23,329.507,311.376z"/>
	<path style="fill:#A9B5B4;" d="M182.656,267.443c19.48,20.229,73.426,26.972,134.116,2.247
		c60.689-24.725,38.211-113.885,16.483-137.111c-21.728-23.227-82.417-48.702-121.378-31.469
		c-38.961,17.233-92.157,87.661-83.916,118.381C136.203,250.21,182.656,267.443,182.656,267.443z"/>
	<polyline style="fill:#C1A59C;" points="170.504,238.725 184.921,223.347 184.905,222.845 184.403,222.861 169.986,238.24 
		170.002,238.742 170.504,238.725 	"/>
	<polyline style="fill:#C1A59C;" points="169.31,233.447 178.441,224.316 178.441,223.814 177.939,223.814 168.808,232.945 
		168.808,233.447 169.31,233.447 	"/>
	<polyline style="fill:#C1A59C;" points="168.479,245.999 190.24,224.237 190.24,223.735 189.738,223.735 167.976,245.497 
		167.976,245.999 168.479,245.999 	"/>
	<polyline style="fill:#C1A59C;" points="169.734,251.837 196.305,225.138 196.304,224.635 195.802,224.637 169.23,251.336 
		169.231,251.838 169.734,251.837 	"/>
	<polyline style="fill:#C1A59C;" points="173.097,255.201 199.699,228.496 199.699,227.994 199.197,227.995 172.594,254.7 
		172.595,255.202 173.097,255.201 	"/>
	<polyline style="fill:#C1A59C;" points="201.358,231.841 177.57,255.869 177.572,256.371 178.074,256.369 201.863,232.341 
		201.86,231.838 201.358,231.841 	"/>
	<polyline style="fill:#C1A59C;" points="183.844,258.288 203.308,238.105 203.299,237.603 202.797,237.612 183.333,257.795 
		183.342,258.297 183.844,258.288 	"/>
	<polyline style="fill:#C1A59C;" points="190.563,257.576 203.059,245.563 203.068,245.061 202.566,245.051 190.071,257.064 
		190.061,257.566 190.563,257.576 	"/>
	<polyline style="fill:#C1A59C;" points="291.391,238.725 305.808,223.347 305.792,222.845 305.289,222.861 290.872,238.24 
		290.888,238.742 291.391,238.725 	"/>
	<polyline style="fill:#C1A59C;" points="290.197,233.447 299.329,224.316 299.329,223.814 298.827,223.814 289.695,232.945 
		289.695,233.447 290.197,233.447 	"/>
	<polyline style="fill:#C1A59C;" points="289.365,245.999 311.128,224.237 311.128,223.735 310.626,223.735 288.863,245.497 
		288.863,245.999 289.365,245.999 	"/>
	<polyline style="fill:#C1A59C;" points="290.621,251.837 317.193,225.138 317.192,224.635 316.689,224.637 290.117,251.336 
		290.118,251.838 290.621,251.837 	"/>
	<polyline style="fill:#C1A59C;" points="293.985,255.201 320.587,228.496 320.586,227.994 320.084,227.995 293.482,254.7 
		293.482,255.202 293.985,255.201 	"/>
	<polyline style="fill:#C1A59C;" points="322.246,231.841 298.457,255.869 298.46,256.371 298.962,256.369 322.75,232.341 
		322.748,231.838 322.246,231.841 	"/>
	<polyline style="fill:#C1A59C;" points="304.732,258.288 324.195,238.105 324.186,237.603 323.684,237.612 304.221,257.795 
		304.23,258.297 304.732,258.288 	"/>
	<polyline style="fill:#C1A59C;" points="311.451,257.576 323.945,245.563 323.955,245.061 323.453,245.051 310.958,257.064 
		310.948,257.566 311.451,257.576 	"/>
	<path style="fill:#E95513;" d="M213.605,137.967c-7.492,14.236-8.242,44.206-8.242,44.206l-33.716,2.996
		c0,0-17.982,47.808-5.994,60.545c11.988,12.738,23.227-3.746,19.48-9.739c11.238,2.247,13.486,34.464-11.988,48.7
		c-25.474,14.236-56.943-19.48-58.441-58.441c-1.499-38.961,15.734-130.37,112.387-146.852
		c96.653-16.484,138.611,51.697,147.602,101.148c7.808,42.939-4.495,93.655-38.96,101.898
		c-27.892,6.669-49.451-27.723-33.716-44.207c8.991,12.738,16.483,24.725,26.973,0.749c10.49-23.975-5.245-67.286-5.245-67.286
		l-12.737,1.498l-6.743-17.233v17.982h-32.217c0,0-1.499-19.48-5.995-38.21c-4.495,0.749-5.994,36.713-5.994,36.713l-44.955,2.248
		L213.605,137.967z"/>
	<path style="fill:#ED7C55;" d="M236.705,82.773c21.091-3.597,39.739-3.424,56.217-0.498c-18.366-5.635-40.149-7.273-65.831-2.893
		c-96.653,16.482-113.886,107.891-112.387,146.852c0.05,1.307,0.14,2.605,0.256,3.897C117.032,183.585,140.76,99.137,236.705,82.773
		z"/>
	<polygon style="fill:#ED7C55;" points="322.719,171.804 320.356,165.769 320.356,172.083 	"/>
	<path style="fill:#ED7C55;" d="M273.011,173.931h11.224c-0.993-7.982-2.67-19.139-5.298-30.089
		C275.647,144.389,273.84,162.329,273.011,173.931z"/>
	<path style="fill:#ED7C55;" d="M222.087,146.278c-3.614,6.867-5.776,17.102-7.068,26.358l0.083,2.044l8.127-0.405L222.087,146.278z
		"/>
	<path style="fill:#3E393A;" d="M225.105,473.605l15.901-0.318l-1.093,14.526c0,0-0.882,13.01-0.882,14.174
		s-6.486,5.006-6.486,5.006L200.989,512l-8.85-1.164l-10.331-6.205l-2.08-10.013l1.481-7.687c0,0,4.724-4.406,7.686-5.006
		c2.927-0.6,6.769-2.363,7.651-2.363c0.881,0,4.442,2.645,4.442,2.645s3.244,5.923,1.763,7.967c-1.482,2.081-3.526,3.561-5.888,2.68
		c-2.362-0.88-2.679-1.48,2.045-3.56c0,0-1.481-3.244-3.244-3.526c-1.763-0.282-6.17,3.844-6.17,5.888
		c0,2.08-0.035,10.613,10.119,6.805c10.119-3.808,26.619-11.423,26.619-11.423L225.105,473.605z"/>
	<path style="fill:#3E393A;" d="M316.034,494.618l-2.081,10.013l-10.33,6.205l-8.85,1.164l-31.555-5.007
		c0,0-6.487-3.842-6.487-5.006s-0.882-14.174-0.882-14.174l-1.128-14.772l16.008-0.318l-1.199,14.315c0,0,16.5,7.616,26.654,11.423
		c10.154,3.808,10.119-4.725,10.119-6.805c0-2.044-4.442-6.17-6.205-5.888c-1.763,0.282-3.244,3.526-3.244,3.526
		c4.724,2.08,4.442,2.68,2.08,3.56c-2.363,0.882-4.442-0.598-5.923-2.68c-1.481-2.044,1.763-7.967,1.763-7.967
		s3.561-2.645,4.442-2.645c0.882,0,4.724,1.764,7.651,2.363c2.961,0.6,7.686,5.006,7.686,5.006L316.034,494.618z"/>
	<path style="fill:#595757;" d="M243.404,215.412c0,12.072-9.787,21.858-21.859,21.858c-12.072,0-21.858-9.786-21.858-21.858
		c0-12.073,9.786-21.859,21.858-21.859C233.617,193.553,243.404,203.339,243.404,215.412z"/>
	<path style="fill:#595757;" d="M292.318,215.876c0,12.354-10.015,22.368-22.368,22.368s-22.368-10.015-22.368-22.368
		s10.015-22.367,22.368-22.367S292.318,203.522,292.318,215.876z"/>
	<path style="fill:#FFFFFF;" d="M286.479,215.318c0,9.149-7.416,16.565-16.563,16.565c-9.148,0-16.564-7.416-16.564-16.565
		c0-9.147,7.416-16.563,16.564-16.563C279.063,198.755,286.479,206.171,286.479,215.318z"/>
	<path style="fill:#FFFFFF;" d="M238.985,214.282c0,8.995-7.292,16.286-16.287,16.286c-8.995,0-16.287-7.291-16.287-16.286
		c0-8.995,7.292-16.288,16.287-16.288C231.693,197.995,238.985,205.287,238.985,214.282z"/>
	<path style="fill:#595757;" d="M226.949,217.717c-0.585,0.551-2.855,0.88-5.067,0.734c-2.213-0.146-3.336-0.558-2.948-1.261
		c0.705-1.277,1.552-2.743,3.764-2.908C225.668,214.059,227.535,217.168,226.949,217.717z"/>
	<path style="fill:#595757;" d="M274.827,217.604c0,0.668-2.179,1.211-4.865,1.211c-2.687,0-4.865-0.543-4.865-1.211
		c0-0.668,1.94-3.273,4.624-3.39C273.278,214.059,274.827,216.936,274.827,217.604z"/>
	<path style="fill:#FFFFFF;" d="M239.023,246.119c3.865-4.416,13.525-4.968,17.114-1.932c3.588,3.036-1.932,5.797-4.141,5.244
		c-2.208-0.551-8.556,0.277-11.317,0.828C237.92,250.812,237.091,248.327,239.023,246.119z"/>
	<path style="fill:#ED7C55;" d="M136.103,251.572c-8.403-7.518,2.654-110.566,56.61-136.217
		C176.349,129.951,136.988,165.774,136.103,251.572z"/>
	<path style="fill:#ED7C55;" d="M337.774,132.162c25.209,41.572,23.882,100.392,2.654,125.16
		C352.368,218.844,356.791,164.889,337.774,132.162z"/>
	<path style="fill:#ED7C55;" d="M199.789,130.394c12.063-17.692,36.265-36.265,51.744-37.593
		c-34.301,15.238-58.762,57.535-60.589,80.934C181.656,167.1,193.155,140.123,199.789,130.394z"/>
	<path style="fill:#ED7C55;" d="M300.624,104.741c11.94,11.057,21.228,47.322,17.247,50.861
		C308.585,125.087,300.624,104.741,300.624,104.741z"/>
	<path style="fill:#ED7C55;" d="M247.553,144.988c0-20.786,15.921-45.111,26.978-51.302
		C267.013,107.837,247.553,144.988,247.553,144.988z"/>
	<path style="fill:#494444;" d="M153.452,97.875c29.459-4.753,152.863,4.236,210.603,49.452
		c-4.87-29.217-46.611-69.496-102.125-73.022C212.735,71.182,140.93,91.613,153.452,97.875z"/>
	<path style="fill:#494444;" d="M377.95,42.524c-7.32,5.876-27.837,1.478-27.837,1.478l-11.736,54.229l-4.996-0.864l-20.068-6.589
		l2.788-0.697c1.81-5.511,21.729-53.234,26.625-54.644c4.15-1.179,33.564,5.709,35.057-5.046
		C380.24,36.017,380.24,40.698,377.95,42.524z"/>
	<path style="fill:#595757;" d="M111.93,100.794c-11.025-3.675-14.216-19.118,25.491-26.962s111.279,0,119.122,2.94
		c7.843,2.942,6.862,4.904-2.451,3.923c-9.314-0.981-49.022-6.374-91.67-5.393c-26.753,0.616-43.629,6.863-50.002,13.235
		c-6.373,6.374,3.432,10.295,3.432,10.295S116.342,102.264,111.93,100.794z"/>
</g>
</svg>
