<?xml version="1.0" encoding="iso-8859-1"?>
<!-- Generator: Adobe Illustrator 15.1.0, SVG Export Plug-In . SVG Version: 6.00 Build 0)  -->
<!DOCTYPE svg PUBLIC "-//W3C//DTD SVG 1.1//EN" "http://www.w3.org/Graphics/SVG/1.1/DTD/svg11.dtd">
<svg version="1.1" id="_x33_" xmlns="http://www.w3.org/2000/svg" xmlns:xlink="http://www.w3.org/1999/xlink" x="0px" y="0px"
	 width="512px" height="512px" viewBox="0 0 512 512" style="enable-background:new 0 0 512 512;" xml:space="preserve">
<g>
	<path style="fill:#41210D;" d="M322.185,190c16.847,8,21.659,29.747,21.659,38.184c0,8.436-2.406,84.238-2.406,97.36
		s18.051,27.678,18.051,27.678s-19.254,33.664-72.201,33.664l-30.083-22.88l-18.051,22.855c-83.029,0-78.216-36.13-78.216-36.13
		s10.83-12.188,10.83-25.31s-2.407-88.801-2.407-97.238S174.173,198,191.021,190H322.185z"/>
	<path style="fill:#DE2726;" d="M203.054,150.999c0,0-31.286,14.44-38.507,33.693c33.693,14.44,78.217,43.32,92.657,57.761
		c0,0,62.573-56.557,87.845-67.387C340.234,163.032,282.475,119.712,203.054,150.999z"/>
	<path style="fill:#B79DC9;" d="M337.827,141.373c-3.681,5.529-16.864,14.771-22.712,18.741c-1.228,0.83-2.131,1.432-2.559,1.716
		c-2.447,1.629-2.346-9.363-2.346-9.363l8.965-20.12c0.837-0.271,1.68-0.529,2.51-0.782
		C335.753,127.323,348.057,126.036,337.827,141.373z"/>
	<path style="fill:#B79DC9;" d="M189.054,132.348c-15.042-4.813-29.483-7.221-18.651,9.025c4.461,6.69,22.821,18.821,25.27,20.457
		c2.449,1.631,2.348-9.365,2.348-9.365L189.054,132.348z"/>
	<path style="fill:#B79DC9;" d="M326.775,100.676c0,3.483-2.131,16.383-5.09,30.89c-1.95,9.561-4.266,19.819-6.57,28.549
		c-2.263,8.562-4.519,15.65-6.42,19.158c-6.781,12.514-39.933,29.487-55.752,29.487c-5.721,0-13.211-1.811-20.943-4.855
		c-13.682-5.391-28.123-14.657-34.813-24.632c-4.193-6.252-9.008-25.626-12.611-43.688c-3.213-16.083-5.47-31.125-5.47-34.909
		l73.837-33.068L326.775,100.676z"/>
	<path style="fill:#FFFFFF;" d="M266.63,178.676c-0.399-1.404-1.046-6.843-3.81-8.423c4.928-1.364,8.748-5.577,8.956-3.61
		c0.216,1.967-0.927,12.008-1.876,13.474C268.235,182.687,267.029,180.08,266.63,178.676z"/>
	<path style="fill:#FFFFFF;" d="M240.156,178.475c0.602-1.805,1.094-6.565,3.81-8.222c-4.958-1.224-8.792-5.598-8.946-3.616
		c-0.158,1.971,1.165,11.96,2.145,13.406C238.953,182.687,239.555,180.28,240.156,178.475z"/>
	<path style="fill:#65361A;" d="M233.859,163.781c6.137,5.763,25.094,11.964,39.61-1.753l0.444,5.29c0,0-6.772,6.248-19.561,6.303
		c-12.791,0.06-21.108-8.004-21.108-8.004S233.235,163.191,233.859,163.781z"/>
	<circle style="fill:#FFFFFF;" cx="225.281" cy="139.113" r="13.536"/>
	<circle style="fill:#45220E;" cx="225.883" cy="137.309" r="6.317"/>
	<circle style="fill:#FFFFFF;" cx="280.635" cy="139.113" r="13.537"/>
	<circle style="fill:#45220E;" cx="281.237" cy="137.309" r="6.318"/>
	<path style="fill:#DE2726;" d="M257.204,242.453l-2.742,22.705l-14.44-1.806l15.342-31.586l9.025,4.513l16.243,18.951l-10.83,2.708
		C269.802,257.938,261.752,245.92,257.204,242.453z"/>
	<path style="fill:#A38ABF;" d="M337.827,141.373c-3.681,5.529-16.864,14.771-22.712,18.741c-2.263,8.562-4.519,15.65-6.42,19.158
		c-6.781,12.514-39.933,29.487-55.752,29.487c-5.721,0-13.211-1.811-20.943-4.855c66.117,0.042,83.825-58.308,75.744-72.158
		c-8.423-14.44-37.304-21.661-79.42-18.05c-20.829,1.788-34.006,10.631-43.748,21.889c-3.213-16.083-5.47-31.125-5.47-34.909
		l73.837-33.068l73.832,33.068c0,3.483-2.131,16.383-5.09,30.89C335.753,127.323,348.057,126.036,337.827,141.373z"/>
	<path style="fill:#E9515C;" d="M347.178,88.341c0,31.263-26.118,47.989-26.118,47.989s-0.999-4.458-2.575-9.915
		c-1.281-4.398-2.943-9.458-4.766-13.351c-0.896-1.908-2.672-3.707-4.855-5.168c-3.189-2.142-7.25-3.562-10.643-3.562
		c-2.209,0-5.633-0.325-9.002-0.722c-5.355-0.638-10.577-1.457-10.577-1.457l-4.897-14.537l-4.892,14.537
		c-6.655-0.373-12.901-0.493-18.7-0.433c-8.213,0.09-15.535,0.553-21.863,1.209c-13.25,1.378-22.148,3.61-25.77,5.084
		c-0.621,0.253-1.084,0.481-1.391,0.68c-5,3.267-8.503,8.718-10.891,14.019c-3.467,7.683-4.608,15.066-4.608,15.066
		s-22.847-6.546-29.367-38.531c-6.529-31.997,31.815-83.608,51.399-93.055c11.516-5.565,22.473-4.579,29.542-2.828
		c2.341,0.577,4.26,1.245,5.627,1.781c0.475,0.187,0.878,0.361,1.214,0.506c0.748,0.331,1.149,0.541,1.149,0.541
		s2.87-2.016,8.099-3.743c2.208-0.733,4.844-1.414,7.858-1.871c4.074-0.619,8.845-0.83,14.223-0.205
		c0.572,0.067,1.143,0.145,1.71,0.229c4.133,0.601,8.141,1.654,12.003,3.092C323.947,16.634,347.178,60.581,347.178,88.341z"/>
	<path style="fill:#DF194C;" d="M242.831,5.148l-3.713,3.712c-49.849,44.506-45.457,80.04-36.599,99.155
		c-0.621,0.253-1.084,0.481-1.391,0.68c-5,3.267-8.503,8.718-10.891,14.019c-7.045-9.903-15.162-25.998-12.484-45.27
		c4.309-31.016,39.037-61.202,59.45-74.077C239.545,3.944,241.464,4.613,242.831,5.148z"/>
	<path style="fill:#DF194C;" d="M250.152,101.723c-8.213,0.09-15.535,0.553-21.863,1.209c-15.813-39.836,6.984-82.963,15.756-97.277
		c0.748,0.331,1.149,0.541,1.149,0.541s2.87-2.016,8.099-3.743C237.951,44.371,245.634,84.858,250.152,101.723z"/>
	<path style="fill:#DF194C;" d="M308.863,107.896c-3.189-2.142-7.25-3.562-10.643-3.562c-2.209,0-5.633-0.325-9.002-0.722
		c0.771-42.184-16.787-89.866-28.067-103.031c4.074-0.619,8.845-0.83,14.223-0.205c0.572,0.067,1.143,0.145,1.71,0.229
		C313.701,41.411,311.889,87.807,308.863,107.896z"/>
	<path style="fill:#DF194C;" d="M347.178,88.341c0,31.263-26.118,47.989-26.118,47.989s-0.999-4.458-2.575-9.915
		c33.098-37.749,9.621-91.52-29.397-122.716C323.947,16.634,347.178,60.581,347.178,88.341z"/>
	<circle style="fill:#DE2726;" cx="258.408" cy="288.18" r="5.416"/>
	<circle style="fill:#DE2726;" cx="258.408" cy="324.28" r="5.416"/>
	<g>
		<g>
			<rect x="225" y="465" style="fill:#41210D;" width="19" height="23"/>
			<path style="fill:#41210D;" d="M247.576,478c-6.014,0-15.643,0-24.065,0s-8.423,4.967-7.22,8.576
				c1.203,3.611-4.814,9.704-12.034,7.298s-15.643-13.198-16.847-18.012c-9.627-1.203-21.66,15.663-13.237,25.289
				c8.423,9.627,38.509,10.841,44.525,10.841c6.015,0,20.455,0.004,26.472-4.81c4.82-3.854,2.692-14.033,1.654-20.347
				C253.459,484.292,252.716,478,247.576,478z"/>
		</g>
		<polygon style="fill:#41210D;" points="249,359.177 249,468 218.698,468 204.257,345 266,345 266,356.771 		"/>
	</g>
	<g>
		<g>
			<rect x="273" y="465" style="fill:#41210D;" width="19" height="23"/>
			<path style="fill:#41210D;" d="M269.4,478c6.016,0,15.643,0,24.066,0s8.424,4.967,7.219,8.576
				c-1.201,3.611,4.814,9.704,12.034,7.298c7.222-2.406,15.644-13.198,16.847-18.012c9.628-1.203,21.66,15.663,13.236,25.289
				c-8.422,9.627-38.506,10.841-44.523,10.841s-20.456,0.004-26.475-4.81c-4.818-3.854-2.689-14.033-1.65-20.347
				C263.518,484.292,264.262,478,269.4,478z"/>
		</g>
		<polygon style="fill:#41210D;" points="266,359.177 266,468 298.279,468 312.72,345 249,345 249,356.771 		"/>
	</g>
	<path style="fill:#41210D;" d="M322.185,189.506c28.881,14.44,61.37,79.42,10.83,132.368l-18.052-12.033L322.185,189.506z"/>
	<path style="fill:#41210D;" d="M189.744,189.506c-28.88,14.44-61.37,79.42-10.829,132.368l18.049-12.033L189.744,189.506z"/>
</g>
</svg>
