<?xml version="1.0" encoding="iso-8859-1"?>
<!-- Generator: Adobe Illustrator 22.1.0, SVG Export Plug-In . SVG Version: 6.00 Build 0)  -->
<svg version="1.1" id="_x33_" xmlns="http://www.w3.org/2000/svg" xmlns:xlink="http://www.w3.org/1999/xlink" x="0px" y="0px"
	 viewBox="0 0 512 512" style="enable-background:new 0 0 512 512;" xml:space="preserve">
<g>
	<path style="fill:#A9B5B4;" d="M258.876,219.595l-0.101,0.269L258.876,219.595z"/>
	<path style="fill:#A9B5B4;" d="M250.774,219.865l-0.101-0.269L250.774,219.865z"/>
	<path style="fill:#A9B5B4;" d="M367.206,399.703c-20.126-5.303-22.238-12.714-20.126-23.316c0.732-3.792-2.37-11.422-6.553-19.696
		c-4.482-8.876-10.168-18.489-13.447-24.65c1.94,13.703,0.951,45.68-6.507,65.507v0.042c0,2.197-0.299,4.394-0.816,6.549
		c-0.173,0.69-3.999,1.632-4.213,2.322l0,0c-0.215,0.732,0.675,2.448,0.419,3.139c-0.518,1.422-2.7,0.335-3.348,1.674
		c-0.215,0.518-2.083,0.571-2.302,1.046c-0.299,0.602,0.345,2.997,0,3.557c-1.725,3.19-2.041,3.74-3.766,6.068
		c-0.429,0.602-0.868,2.202-1.255,2.72c-2.108,2.761-6.486,3.138-6.486,3.138s4.231,15.943,2.893,29.692
		c-1.292,13.055-2.285,26.502-1.25,29.09c2.155,5.299,26.506,14.823,13.792,21.157c-12.714,6.38-40.251,4.267-43.441,2.113
		c-3.19-2.113-8.489-7.411-6.334-15.858c1.334-5.429,2.281-23.964,2.757-36.501c0.261-7.07,5.328-17.957,5.328-17.957l-38.858-5.1
		c0,0,8.362,15.986,8.665,23.057c0.471,12.538,1.423,31.072,2.757,36.501c2.113,8.447-3.19,13.745-6.38,15.858
		c-3.186,2.155-30.727,4.268-43.437-2.113c-12.714-6.334,11.679-15.858,13.787-21.157c1.035-2.588,0.046-16.035-1.204-29.09
		c-1.338-13.707,4.657-27.825,4.657-27.825s-0.219-5.863-2.028-8.144c-0.345-0.434-5.681-0.11-6.068-0.628
		c-1.166-1.553-1.219-2.579-2.511-4.603c-0.476-0.779-1.83,0.402-2.302-0.418c-0.993-1.679,1.49-3.798,0.628-5.649
		c-0.429-0.905-3.17-0.518-3.557-1.465c-0.345-0.863-5.885-1-6.146-1.863c-0.989-3.06-1.595-6.166-1.595-9.225v-0.084
		c-7.453-19.823-8.447-51.846-6.507-65.549c-2.803,5.257-7.369,13.013-11.422,20.727c-5.084,9.697-9.436,19.267-8.573,23.619
		c2.109,10.602,0,18.013-20.126,23.316c-20.126,5.299-33.875-22.238-11.637-41.329c1.637-4.528,4.566-14.999,10.168-28.791
		c8.75-21.632,24.094-51.413,51.286-79.253c0,0,2.327-0.993,6.161-2.63c12.154-5.257,39.262-17.024,52.709-23.573
		c-0.088-2.243-0.13-3.708-0.261-4.268c0.392,0.433,1.814,1.292,4.011,2.416c2.197-1.124,3.619-1.982,4.007-2.416
		c-0.084,0.56-0.173,2.024-0.257,4.268c17.668,8.619,58.912,26.203,58.912,26.203c2.929,3.018,5.732,6.031,8.358,9.091
		c22.369,25.428,35.428,51.589,43.185,70.983c5.429,13.4,8.274,23.53,9.869,27.97C401.123,377.465,387.331,405.002,367.206,399.703z
		"/>
	<path style="fill:#595757;" d="M320.574,397.549v0.042c0,2.197-0.299,4.394-0.816,6.549c-0.173,0.69-0.345,1.38-0.56,2.071
		l-0.088,0.303c-0.215,0.732-0.476,1.465-0.732,2.155c-0.518,1.423-1.12,2.799-1.768,4.137c-0.215,0.518-0.471,0.989-0.69,1.465
		c-0.299,0.602-0.602,1.161-0.947,1.721c-1.725,3.19-3.619,6.035-5.345,8.362c-0.429,0.602-0.863,1.162-1.25,1.679
		c-2.108,2.761-3.661,4.398-3.661,4.398s-1.679,13.316-3.018,27.066h-34.477c0.261-7.07,0.387-12.243,0.387-12.243h-25.685
		c0,0,0.13,5.172,0.434,12.243H207.88c-1.338-13.707-3.018-27.066-3.018-27.066s-1.25-1.338-3.06-3.619
		c-0.345-0.434-0.732-0.905-1.119-1.423c-1.166-1.553-2.458-3.363-3.75-5.387c-0.476-0.779-0.993-1.595-1.465-2.416
		c-0.993-1.679-1.94-3.447-2.803-5.299c-0.429-0.905-0.821-1.856-1.208-2.803c-0.345-0.863-0.644-1.721-0.905-2.584
		c-0.989-3.06-1.595-6.166-1.595-9.225C214.946,397.936,288.942,397.675,320.574,397.549z"/>
	<path style="fill:#40210F;" d="M340.527,356.691c-4.482-8.876-10.168-18.489-13.447-24.65c1.94,13.703,0.951,45.68-6.507,65.507
		v0.042c0,2.024-0.257,4.049-0.69,6.035l-129.76,1.982c-0.732-2.63-1.166-5.303-1.166-7.933v-0.084
		c-7.453-19.823-8.447-51.846-6.507-65.549c-2.803,5.257-7.369,13.013-11.422,20.727l-30.167-23.185
		c8.75-21.632,24.094-51.413,51.286-79.253c0,0,2.327-0.993,6.161-2.63l127.479,11.721c22.369,25.428,35.428,51.589,43.185,70.983
		L340.527,356.691z"/>
	<path style="fill:#F29600;" d="M437.624,209.129c-1.637,17.971-8.75,32.15-19.478,43.315c-5.69,5.901-12.415,10.989-19.911,15.298
		c-14.566,8.447-32.023,14.048-50.381,17.756c-5.387,1.077-10.858,1.982-16.376,2.757c-25.988,3.661-52.62,4.007-74.556,3.274
		c-2.887-0.042-5.69-0.173-8.405-0.299c-1.208-0.046-2.412-0.13-3.661-0.173c-18.577-0.779-40.685-1.38-62.662-4.011
		c-6.553-0.774-13.059-1.721-19.482-2.929c-17.108-3.148-33.572-7.971-47.536-15.513c-5.9-3.19-11.334-6.856-16.203-11.119
		l-0.042-0.046c-15.686-13.615-25.555-33.097-25.21-61.109c0.299-23.055,7.024-43.829,18.573-61.799
		c5.905-9.221,13.059-17.714,21.291-25.428c19.435-18.228,44.733-31.931,72.788-40.251c4.785-1.423,9.655-2.715,14.566-3.792
		c15.686-3.489,32.019-5.387,48.525-5.471c2.113,0,4.268,0,6.38,0.042c2.197,0.042,4.352,0.13,6.464,0.215
		c14.823,0.518,28.614,1.852,41.413,3.834c9.398,1.469,18.232,3.321,26.548,5.56c27.196,7.155,48.871,18.017,65.423,31.762
		c10.429,8.619,18.829,18.358,25.34,29.006C435.124,152.977,440.255,180.085,437.624,209.129z"/>
	<path style="fill:#CD8218;" d="M182.195,287.047c-6.553-0.774-13.059-1.721-19.482-2.929
		c-46.758-60.078-30.34-191.046,23.661-215.267c4.785-1.423,9.655-2.715,14.566-3.792
		C122.592,152.026,159.051,252.183,182.195,287.047z"/>
	<path style="fill:#CD8218;" d="M347.854,285.498c-5.387,1.077-10.858,1.982-16.376,2.757
		c49.346-108.73-4.053-201.475-27.756-224.576c9.398,1.469,18.232,3.321,26.548,5.56c12.239,19.524,28.791,53.311,37.107,90.031
		C375.307,194.39,364.104,253.521,347.854,285.498z"/>
	<path style="fill:#CD8218;" d="M418.147,252.444c-5.69,5.901-12.415,10.989-19.911,15.298
		c28.227-66.197,13.573-132.176-2.542-166.741c10.429,8.619,18.829,18.358,25.34,29.006
		C432.237,172.109,428.315,218.526,418.147,252.444z"/>
	<path style="fill:#CD8218;" d="M256.923,291.529c-2.887-0.042-5.69-0.173-8.405-0.299c-1.208-0.046-2.412-0.13-3.661-0.173
		c-7.458-67.144-2.327-187.124,4.608-231.47c2.113,0,4.268,0,6.38,0.042c2.197,0.042,4.352,0.13,6.464,0.215
		C254.983,112.553,256.317,249.468,256.923,291.529z"/>
	<path style="fill:#CD8218;" d="M115.176,268.605c-5.9-3.19-11.334-6.856-16.203-11.119l-0.042-0.046
		c-16.464-29.995-17.971-74.64-6.637-122.909c5.905-9.221,13.059-17.714,21.291-25.428
		C91.991,155.776,82.21,224.473,115.176,268.605z"/>
	<path style="fill:#40210F;" d="M208.305,219.345v-1.008l-0.48,0.882L208.305,219.345v-1.008l-0.48,0.882l0.229-0.423l-0.303,0.377
		l0.074,0.046l0.229-0.423l-0.303,0.377c0.013-0.006,0.36,0.373,0.756,1.086c0.627,1.069,1.305,2.717,2.492,4.472
		c0.608,0.873,1.382,1.816,2.542,2.618c1.141,0.806,2.738,1.372,4.348,1.353c1.301,0.01,2.611-0.347,3.657-0.928
		c1.852-1.037,2.868-2.458,3.632-3.657c1.113-1.827,1.816-3.508,2.401-4.371l0.339-0.461l0.105-0.109l-0.419-0.499l0.234,0.596
		l0.185-0.097l-0.419-0.499l0.234,0.596l-0.364-0.922l0.002,0.995l0.362-0.074l-0.364-0.922l0.002,0.995v-0.995L227,219.221
		l0.476,0.124v-0.995L227,219.221l0.231-0.425l-0.305,0.377l0.074,0.048l0.231-0.425l-0.305,0.377
		c0.013-0.006,0.36,0.373,0.753,1.088c0.629,1.067,1.307,2.714,2.494,4.469c0.608,0.873,1.382,1.816,2.542,2.618
		c1.141,0.806,2.738,1.372,4.348,1.353c1.301,0.01,2.613-0.349,3.657-0.93c1.852-1.04,2.864-2.458,3.628-3.657
		c1.111-1.827,1.812-3.508,2.397-4.371l0.339-0.461l0.105-0.11l-0.425-0.505l0.238,0.604l0.187-0.099l-0.425-0.505l0.238,0.604
		l-0.366-0.928l0.002,1.002l0.364-0.074l-0.366-0.928l0.002,1.002v-1.002l-0.48,0.875l0.48,0.126v-1.002l-0.48,0.875l0.231-0.425
		l-0.305,0.379l0.074,0.046l0.231-0.425l-0.305,0.379c0.013-0.006,0.36,0.373,0.755,1.086c0.627,1.069,1.305,2.717,2.491,4.472
		c0.608,0.873,1.383,1.816,2.542,2.618c1.141,0.806,2.738,1.372,4.348,1.353c1.301,0.01,2.611-0.347,3.657-0.928
		c1.852-1.037,2.87-2.456,3.634-3.655c1.115-1.827,1.818-3.51,2.403-4.371l0.339-0.463l0.105-0.109l-0.421-0.501l0.238,0.6
		l0.183-0.099l-0.421-0.501l0.238,0.6l-0.362-0.917l0.002,0.989l0.36-0.072l-0.362-0.917l0.002,0.989v-0.993l-0.474,0.869
		l0.474,0.124v-0.993l-0.474,0.869l0.232-0.425l-0.305,0.379l0.074,0.046l0.232-0.425l-0.305,0.379
		c0.015-0.006,0.362,0.372,0.755,1.086c0.629,1.067,1.307,2.717,2.496,4.469c0.608,0.875,1.385,1.818,2.544,2.62
		c1.143,0.806,2.74,1.37,4.348,1.351c1.3,0.01,2.611-0.347,3.657-0.928c1.854-1.035,2.87-2.454,3.636-3.655
		c1.115-1.827,1.818-3.508,2.405-4.371l0.339-0.463l0.105-0.109l-0.421-0.501l0.238,0.6l0.183-0.099l-0.421-0.501l0.238,0.6
		l-0.36-0.913v0.985l0.36-0.072l-0.36-0.913v0.985v-0.979l-0.465,0.857l0.465,0.122v-0.979l-0.465,0.857l0.219-0.404l-0.29,0.36
		l0.072,0.044l0.219-0.404l-0.29,0.36c0.013-0.006,0.362,0.372,0.758,1.086c0.629,1.067,1.309,2.717,2.5,4.469
		c0.61,0.873,1.387,1.816,2.548,2.618c1.143,0.804,2.74,1.368,4.348,1.349c1.301,0.01,2.611-0.347,3.657-0.926
		c1.854-1.035,2.872-2.454,3.641-3.655c1.115-1.825,1.818-3.508,2.407-4.369l0.339-0.463l0.107-0.109l-0.412-0.492l0.232,0.587
		l0.181-0.095l-0.412-0.492l0.232,0.587l-0.356-0.903l0.002,0.974l0.354-0.072l-0.356-0.903l0.002,0.974
		c2.378,0,4.308-1.93,4.308-4.307c0-2.38-1.93-4.308-4.308-4.308c-1.303-0.013-2.613,0.345-3.659,0.924
		c-1.854,1.035-2.875,2.454-3.643,3.655c-1.115,1.825-1.82,3.508-2.407,4.371l-0.341,0.461l-0.105,0.109l0.41,0.49l-0.229-0.585
		l-0.181,0.095l0.41,0.49l-0.229-0.585l0.358,0.911v-0.983l-0.358,0.072l0.358,0.911v-0.983v0.974l0.465-0.852l-0.465-0.122v0.974
		l0.465-0.852l-0.221,0.404l0.295-0.358l-0.074-0.046l-0.221,0.404l0.295-0.358c-0.015,0.006-0.364-0.372-0.76-1.088
		c-0.629-1.067-1.309-2.717-2.5-4.469c-0.61-0.875-1.389-1.818-2.551-2.618c-1.143-0.806-2.74-1.368-4.345-1.349
		c-1.303-0.01-2.613,0.347-3.659,0.928c-1.852,1.037-2.87,2.456-3.634,3.655c-1.115,1.827-1.818,3.508-2.405,4.371l-0.339,0.461
		l-0.105,0.109l0.415,0.495l-0.232-0.591l-0.183,0.097l0.415,0.495l-0.232-0.591l0.36,0.915v-0.987l-0.36,0.072l0.36,0.915v-0.987
		v0.983l0.471-0.859l-0.471-0.124v0.983l0.471-0.859l-0.231,0.421l0.305-0.374l-0.074-0.046l-0.231,0.421l0.305-0.374
		c-0.015,0.006-0.362-0.372-0.755-1.086c-0.629-1.067-1.307-2.717-2.496-4.469c-0.608-0.875-1.385-1.818-2.544-2.62
		c-1.143-0.806-2.74-1.37-4.345-1.351c-1.303-0.01-2.614,0.347-3.659,0.928c-1.852,1.037-2.87,2.456-3.634,3.655
		c-1.115,1.827-1.818,3.51-2.403,4.371l-0.339,0.463l-0.105,0.109l0.417,0.497l-0.234-0.596l-0.183,0.099l0.417,0.497l-0.234-0.596
		l0.362,0.922v-0.993l-0.362,0.072l0.362,0.922v-0.993v0.983l0.473-0.859l-0.473-0.124v0.983l0.473-0.859l-0.231,0.421l0.305-0.372
		l-0.074-0.048l-0.231,0.421l0.305-0.372c-0.013,0.006-0.36-0.372-0.753-1.086c-0.627-1.069-1.305-2.717-2.492-4.469
		c-0.608-0.873-1.38-1.816-2.54-2.62c-1.141-0.806-2.738-1.372-4.345-1.353c-1.303-0.01-2.613,0.347-3.659,0.93
		c-1.852,1.037-2.866,2.456-3.63,3.657c-1.111,1.824-1.814,3.508-2.399,4.371l-0.337,0.463l-0.105,0.107l0.419,0.499l-0.232-0.598
		l-0.187,0.099l0.419,0.499l-0.232-0.598l0.368,0.934v-1.008l-0.368,0.074l0.368,0.934v-1.008v0.983l0.473-0.859l-0.473-0.124v0.983
		l0.473-0.859l-0.231,0.421l0.305-0.372l-0.074-0.048l-0.231,0.421l0.305-0.372c-0.013,0.006-0.36-0.372-0.753-1.088
		c-0.629-1.067-1.307-2.714-2.494-4.469c-0.608-0.873-1.383-1.816-2.542-2.618c-1.141-0.806-2.738-1.372-4.345-1.353
		c-1.303-0.01-2.614,0.347-3.659,0.928c-1.852,1.037-2.868,2.458-3.632,3.657c-1.113,1.827-1.816,3.508-2.401,4.371l-0.339,0.461
		l-0.105,0.109l0.419,0.499l-0.234-0.596l-0.185,0.097l0.419,0.499l-0.234-0.596l0.364,0.926v-1l-0.364,0.074l0.364,0.926v-1v0.991
		l0.473-0.867l-0.473-0.124v0.991l0.473-0.867l-0.231,0.421l0.305-0.372l-0.074-0.048l-0.231,0.421l0.305-0.372
		c-0.013,0.006-0.36-0.372-0.753-1.086c-0.627-1.069-1.305-2.717-2.492-4.469c-0.608-0.873-1.381-1.816-2.54-2.62
		c-1.141-0.806-2.738-1.372-4.345-1.353c-2.382,0-4.31,1.928-4.31,4.31c0,2.38,1.928,4.31,4.31,4.31V219.345z"/>
	<path style="fill:#40210F;" d="M257.331,191.949c-3.476-0.219-5.353,5.787-3.182,5.934c2.167,0.143,4.049-1.448,4.049-1.448
		s0.581,2.315,2.605,1.448C262.828,197.012,261.961,192.239,257.331,191.949z"/>
	<path style="fill:#40210F;" d="M264.048,71.698c8.453-2.679,15.427-8.514,20.328-15.271c4.893-6.774,7.778-14.478,7.796-21.327
		c0-3.468-0.762-6.763-2.548-9.497c-1.776-2.738-4.609-4.804-8.232-5.755c-1.745-0.465-3.434-0.686-5.042-0.686
		c-4.848-0.008-8.905,2.022-11.65,4.922c-2.748,2.904-4.293,6.643-4.303,10.336c-0.01,2.87,0.997,5.783,3.23,7.912
		c2.231,2.138,5.532,3.346,9.634,3.335c0.463,0,0.934-0.011,1.42-0.036l0.025-0.002c5.688-0.32,10.019-3.268,12.569-7.325
		c2.584-4.053,3.634-9.095,3.64-14.173c-0.004-5.086-1.067-10.231-3.009-14.57c-1.953-4.312-4.779-7.946-8.741-9.562l-1.734,4.348
		c2.262,0.867,4.577,3.462,6.208,7.131c1.639,3.643,2.603,8.234,2.599,12.653c0.006,4.423-0.968,8.651-2.902,11.649
		c-1.963,2.992-4.642,4.874-8.922,5.179l0.147,2.336l-0.122-2.338c-0.406,0.021-0.793,0.032-1.178,0.032
		c-3.243-0.01-5.202-0.899-6.399-2.039c-1.193-1.145-1.776-2.687-1.786-4.531c-0.011-2.344,1.056-5.065,3.015-7.11
		c1.965-2.052,4.716-3.462,8.259-3.47c1.181,0,2.458,0.162,3.836,0.53c2.656,0.722,4.345,2.02,5.522,3.794
		c1.166,1.778,1.786,4.141,1.786,6.936c0.019,5.505-2.481,12.504-6.906,18.583c-4.413,6.096-10.684,11.269-17.948,13.556l1.41,4.461
		L264.048,71.698z"/>
	<path style="fill:#FFFFFF;" d="M287.566,338.822c-1.359-14.802-24.212-27.487-45.411-16.914
		c-21.203,10.572-25.677,37.638-10.454,35.1c0,0,3.67-3.03,3.464,3.312c-0.202,6.342,7.125,9.377,10.711,3.03
		c-0.484,5.501,8.809,6.368,9.865-0.846c0.13,5.547,12.058,4.941,12.121-4.225C275.613,359.966,288.93,353.623,287.566,338.822z
		 M249.747,346.477c-2.151,3.981-5.303,4.979-9.057,3.611c-2.938-1.073-1.507-9.705,5.252-11.448
		C252.697,336.898,251.898,342.496,249.747,346.477z M253.758,353.821c-1.368,0-1.822-0.253-1.822-0.253s-1.886,0.871-1.827-0.248
		c0.109-1.978,1.839-4.352,3.211-3.607C254.688,350.458,255.13,353.821,253.758,353.821z M267.962,346.86
		c-1.077,4.777-7.681,5.387-10.143,2.184c-4.028-5.248-0.051-11.115,3.039-10.543C263.951,339.074,269.035,342.083,267.962,346.86z"
		/>
	<path style="fill:#40210F;" d="M194.326,175.161l11.975-20.799c1.145-1.989,3.963-2.127,5.297-0.259l17.333,24.266
		c1.591,2.227-0.217,5.284-2.935,4.963l-29.308-3.467C194.44,179.599,193.197,177.122,194.326,175.161z"/>
	<path style="fill:#40210F;" d="M314.381,175.161l-11.975-20.799c-1.145-1.989-3.963-2.127-5.297-0.259l-17.332,24.266
		c-1.591,2.227,0.217,5.284,2.935,4.963l29.308-3.467C314.266,179.599,315.51,177.122,314.381,175.161z"/>
</g>
</svg>
