<?xml version="1.0" encoding="iso-8859-1"?>
<!-- Generator: Adobe Illustrator 22.1.0, SVG Export Plug-In . SVG Version: 6.00 Build 0)  -->
<svg version="1.1" id="_x32_" xmlns="http://www.w3.org/2000/svg" xmlns:xlink="http://www.w3.org/1999/xlink" x="0px" y="0px"
	 viewBox="0 0 512 512" style="enable-background:new 0 0 512 512;" xml:space="preserve">
<g>
	<path style="fill:#8CA7B6;" d="M358.837,511.379c-5.563-0.335-11.83-0.301-18.231-0.134c-22.621,0.57-47.285,2.782-50.972-4.591
		c-1.977-3.988-3.15-22.688-5.798-43.03c-0.034-0.033-0.034,0-0.034,0c-0.267-2.279-0.603-4.591-0.938-6.903
		c-3.82-26.005-10.244-59.442-24.453-59.442c-14.745,0-21.559,35.313-25.312,62.189c-3.083,21.883-4.256,42.963-6.367,47.185
		c-4.725,9.45-44.035,3.15-69.202,4.725c-25.167,1.575-33.009-12.567-18.867-23.593c14.142-10.992,28.318-9.417,28.318-9.417
		s3.719-26.24-1.006-40.818c-0.569-1.809,1.497-14.46,0.625-15.833c-7.875-12.6-23.212-44.019-21.637-62.886l113.237-28.318
		l113.204,28.318c1.575,18.868-14.956,53.258-22.832,65.859c-2.915,4.658-0.124,20.167-0.492,27.707
		c-0.57,12.868,1.307,25.972,1.307,25.972s14.176-1.575,28.318,9.417C391.846,498.812,384.005,512.954,358.837,511.379z"/>
	<path style="fill:#595757;" d="M352.537,432.76c-2.915,4.658-4.088,12.098-4.457,19.638l-6.636-8.077l0.637,7.641
		c0,0-4.457,7.641-5.73,9.551c-1.274,1.91-5.731-11.462-5.731-11.462l-5.731,7.641l-8.914-15.281c0,0-5.73,12.734-7.004,12.098
		c-1.273-0.637-5.73-8.914-5.73-8.914s-2.547,14.008-3.183,16.555c-0.637,2.547-7.674-3.184-7.674-3.184l-4.457-10.758
		c0,0-2.513,4.022-5.06,8.512c-3.82-26.005-10.456-52.279-24.665-52.279c-14.745,0-21.347,28.15-25.1,55.026l-3.787-7.507
		c0,0-1.273-15.952-1.91-19.135c-0.637-3.184-3.184,4.457-2.547,6.367c0.636,1.91-4.457,8.948-4.457,8.948
		c-3.183,0-3.183,14.008-3.82,16.555c-0.637,2.547-5.73-9.551-5.73-9.551c-1.274-2.547-1.91-7.004-1.91-7.004
		s-7.004,6.367-11.461,8.914c-4.457,2.547-3.184-5.73-5.094-11.461c-1.91-5.764-3.82-7.674-4.457-5.764
		c-0.637,1.944-7.641,9.584-10.188,10.221c-2.547,0.637-2.547-4.457-5.73-12.131c-1.944-4.592-3.854-3.184-6.032-0.369
		c-0.569-1.809-1.273-3.418-2.145-4.792c-7.875-12.601-20.442-55.06-18.867-73.928l113.237-28.318l113.204,28.318
		C372.979,377.7,360.412,420.159,352.537,432.76z"/>
	<path style="fill:#6D92A6;" d="M487.356,333.33c-5.764,38.605-34.149,52.446-49.296,58.076
		c-19.135,7.138-50.033-12.801-48.257-36.36c0.771-9.92,7.373-20.543,23.19-30.027c7.038-5.798,8.043-16.052,5.764-27.748
		c-1.374-7.172-4.021-14.913-7.238-22.487c-8.847-20.811-22.219-40.282-26.575-43.532l-1.642-1.072
		c-2.078-1.307-4.826-0.871-6.334,1.072l-0.57,0.704l-1.81,115.717l-0.335,20.375H136.149l-2.145-136.092l-0.569-0.704
		c-1.508-1.943-4.256-2.38-6.301-1.072l-1.676,1.072c-5.663,4.223-23.894,23.894-32.406,50.536
		c-4.323,13.472-6.166,28.787-2.58,44.773c18.063,14.98,25.1,29.557,25.201,42.057c0.268,31.267-42.694,49.732-64.611,30.529
		c-17.728-15.549-42.259-60.69-15.918-140.683c2.145-6.468,4.592-13.204,7.44-20.141c47.487-116.32,127.58-127.01,212.634-127.01
		c85.02,0,161.562,12.232,212.6,127.01c0.402,0.905,0.804,1.81,1.172,2.715C486.685,281.721,490.64,311.48,487.356,333.33z"/>
	<path style="fill:#ED7D60;" d="M466.277,250.555l-11.997-8.445l4.926,16.186l-9.852-11.26l-9.149,9.852l-4.223,9.182l-9.886-8.479
		l-1.408,11.998l-9.852-4.223l-3.318,9.417c-8.847-20.811-22.219-40.282-26.575-43.532l-1.642-1.072
		c-2.078-1.307-4.826-0.871-6.334,1.072l-0.57,0.704l-2.145,127.485H136.149l-2.145-127.485l-0.569-0.704
		c-1.508-1.943-4.256-2.38-6.301-1.072l-1.676,1.072c-5.663,4.223-23.894,23.894-32.406,50.536
		c-3.954,2.313-8.277,4.993-8.646,6.099c-0.704,2.111-3.519-10.556-9.852-7.038l-0.704-11.26l-9.886,3.518l2.111-13.405
		c0,0-14.778,9.182-15.482,11.293c-0.704,2.111-7.741-8.445-7.741-8.445l1.407-8.479l-9.115,4.39
		c2.145-6.468,4.592-13.204,7.44-20.141c47.487-116.32,127.58-127.01,212.634-127.01c85.02,0,161.562,12.232,212.6,127.01
		c0.402,0.905,0.804,1.81,1.172,2.715L466.277,250.555z"/>
	<path style="fill:#BBC0D0;" d="M487.356,333.33c-5.764,38.605-34.149,52.446-49.296,58.076
		c-19.135,7.138-50.033-12.801-48.257-36.36c0.771-9.92,7.373-20.543,23.19-30.027c7.038-5.798,8.043-16.052,5.764-27.748
		C444.394,305.649,469.594,320.025,487.356,333.33z"/>
	<path style="fill:#6D92A6;" d="M340.607,511.245c-22.621,0.57-47.285,2.782-50.972-4.591c-1.977-3.988-3.15-22.688-5.798-43.03
		c0.804,0.268,1.609,0.804,2.48,1.676c9.719,1.608,9.518,11.696,34.383,13.908C341.545,481.017,346.471,496.734,340.607,511.245z"/>
	<path style="fill:none;" d="M133.435,231.252c-1.508-1.943-4.256-2.38-6.301-1.072l-1.676,1.072
		c-0.727,0.542-1.667,1.348-2.762,2.382c4.577,3.68,9.009,6.996,10.126,6.996c0.29,0,0.751-0.035,1.317-0.087l-0.135-8.587
		L133.435,231.252z"/>
	<path style="fill:none;" d="M384.943,231.252l-1.642-1.072c-2.078-1.307-4.826-0.871-6.334,1.072l-0.57,0.704l-0.172,10.923
		c0.891-0.241,1.637-0.445,2.086-0.573c0,0,6.114-2.04,12.301-4.571C388.199,234.485,386.193,232.184,384.943,231.252z"/>
	<path style="fill:#585A80;" d="M100.985,218.008c-8.378,0.838-22.621-9.217-22.621-9.217c-4.096-3.465-5.865-1.676-11.73-7.54
		c-1.151-1.152-2.566-2.041-4.114-2.815c-7.145,11.686-13.816,24.894-19.936,39.886c-2.848,6.937-5.295,13.673-7.44,20.141
		l9.115-4.39l-1.407,8.479c0,0,7.037,10.556,7.741,8.445c0.704-2.111,15.482-11.293,15.482-11.293l-2.111,13.405l9.886-3.518
		l0.704,11.26c6.334-3.518,9.149,9.149,9.852,7.038c0.369-1.106,4.692-3.787,8.646-6.099c7.419-23.22,22.215-41.136,29.644-48.154
		c-5.715-4.596-11.657-9.761-11.657-9.761C111.877,221.36,109.364,217.17,100.985,218.008z"/>
	<path style="fill:#585A80;" d="M129.891,184.914c6.703-2.514,4.85,1.253,8.378,2.513c0,0,12.714,7.744,17.595,7.54
		c20.108-0.838,33.514,5.865,38.54,7.541c5.027,1.676,133.217,5.027,155.001,0c21.784-5.027,19.416-7.449,26.811-11.73
		c0,0,18.377-10.619,24.298-13.406c0,0,15.688-6.439,20.946-10.054c0.205-0.141,0.378-0.267,0.577-0.405
		c-9.573-10.068-19.622-18.359-30.094-25.154c-24.508,10.608-68.253,23.356-129.673,26.397
		c-62.689,3.104-113.402-14.021-144.005-27.878c-11.639,7.294-22.704,16.386-33.065,27.722c10.225,5.37,18.755,8.452,22.07,9.372
		C107.27,177.373,123.189,187.427,129.891,184.914z"/>
	<path style="fill:#585A80;" d="M349.406,337.401l-31.838-0.838l-25.973,2.513c0,0-23.46,0.838-31,1.676
		c-7.541,0.838-51.946-3.351-51.946-3.351s-46.358-3.161-73.072-5.724l0.573,36.371h238.103l0.525-33.314l-6.939,0.992
		L349.406,337.401z"/>
	<path style="fill:#585A80;" d="M446.793,198.814c-3.595,1.6-7.413,3.323-8.995,4.114c-3.351,1.676-10.054,12.567-15.081,17.595
		c-5.027,5.027-15.919,6.702-20.108,10.892c-1.88,1.88-6.963,4.262-11.997,6.321c6,8.081,14.597,22.207,20.906,37.049l3.318-9.417
		l9.852,4.223l1.408-11.998l9.886,8.479l4.223-9.182l9.149-9.852l9.852,11.26l-4.926-16.186l11.997,8.445l2.714-9.517
		c-0.368-0.905-0.771-1.81-1.172-2.715C461.226,223.497,454.2,210.412,446.793,198.814z"/>
	<path style="fill:#585A80;" d="M318.825,254.873c-4.886,0-18.433,6.702-21.784,4.189c-3.351-2.513-15.081-0.838-20.946,0.838
		c-5.865,1.676-21.784-0.838-21.784-0.838c-4.377-1.094-42.73-4.189-42.73-4.189c-5.218-0.921-13.406-0.838-16.757-2.513
		c-3.351-1.676-19.27-5.027-25.135-1.676c-5.865,3.351-15.081-2.514-17.595-7.541c-2.223-4.447-13.612-2.995-17.954-2.6
		l0.703,44.619c4.277,1.532,7.967,2.366,9.291,2.087c3.351-0.705,10.054-0.705,15.919,2.115c5.865,2.819,10.892,6.343,16.757,2.819
		c5.865-3.524,12.568,0,18.432,2.115c5.865,2.115,17.595,5.638,22.622,3.524c5.027-2.115,26.811,1.409,35.189,2.819
		c8.378,1.409,12.568,0.705,15.919-1.41c3.352-2.115,10.054,2.115,15.919,1.41c5.865-0.705,25.973-5.638,25.973-5.638h16.757
		c0,0,26.811-3.524,29.325-4.229c2.044-0.573,13.508-3.477,18.62-6.058l0.659-41.836c-7.703,2.081-29.752,7.806-29.752,7.806
		C341.108,250.684,318.825,254.873,318.825,254.873z"/>
	<g>
		<path style="fill:#BBC0D0;" d="M366.444,202.096c-2.513,21.984-5.764,38.271-7.909,40.181
			c-19.738,17.494-91.421,19.605-143.699,12.299c-29.356-4.089-52.581-11.126-57.037-20.107
			c-6.167-12.333-10.154-49.263-10.087-85.423c0.101-36.763,4.356-72.721,14.745-81.099c29.993-24.196,89.477-27.346,135.824-20.241
			c28.15,4.323,51.441,12.4,60.254,21.783C374.319,86.312,371.806,156.453,366.444,202.096z"/>
		<path style="fill:#8CA7B6;" d="M366.46,202.092c-74.985,3.537-96.144-65.926-93.942-127.913
			c5.771-9.183,14.705-18.211,25.75-26.464c28.17,4.313,51.469,12.379,60.28,21.779C374.309,86.31,371.796,156.455,366.46,202.092z"
			/>
		<path style="fill:#5E657A;" d="M316.584,80.049c-34.241,31.129-96.498,29.572-104.281,15.564
			c-38.911,14.008-76.265,3.113-76.265-24.903s42.023-52.918,74.708-52.918c3.113-18.677,14.008-20.234,49.806-15.564
			c35.798,4.669,65.37,28.016,65.37,28.016s15.564-4.669,35.798,4.669c20.234,9.339,18.677,38.911,7.782,38.911
			c12.451,21.79,10.895,37.354-3.113,37.354C333.705,111.177,316.584,80.049,316.584,80.049z"/>
		
			<ellipse transform="matrix(0.2324 -0.9726 0.9726 0.2324 28.2855 340.2242)" style="fill:#595757;" cx="229.695" cy="152.192" rx="26.815" ry="26.815"/>
		
			<ellipse transform="matrix(0.2325 -0.9726 0.9726 0.2325 73.2939 398.4019)" style="fill:#595757;" cx="289.075" cy="152.762" rx="27.44" ry="27.44"/>
		
			<ellipse transform="matrix(0.7071 -0.7071 0.7071 0.7071 -22.8793 248.9194)" style="fill:#FFFFFF;" cx="289.033" cy="152.078" rx="20.32" ry="20.32"/>
		
			<ellipse transform="matrix(0.2278 -0.9737 0.9737 0.2278 29.9366 339.36)" style="fill:#FFFFFF;" cx="228.927" cy="150.806" rx="19.98" ry="19.98"/>
		
			<ellipse transform="matrix(0.9447 -0.328 0.328 0.9447 -36.286 84.1789)" style="fill:#595757;" cx="231.408" cy="149.661" rx="5.085" ry="5.085"/>
		<circle style="fill:#595757;" cx="289.091" cy="150.398" r="5.967"/>
		<path style="fill:#595757;" d="M289.303,214.252c-1.903,0.13-3.936,0.173-6.012,0.216c-2.12,0-4.282,0-6.402-0.043
			c-5.666-0.13-11.072-0.432-14.619-0.649c-2.552-0.173-4.152-0.302-4.152-0.302c-1.081,0.13-2.119,0.216-3.157,0.346
			c-4.888,0.476-9.17,0.736-12.802,0.736c-2.855,0-5.32-0.13-7.396-0.433c-9.559-1.384-11.159-6.141-3.157-15.484
			c0.908-1.081,1.86-2.076,2.768-2.985c2.033-2.033,4.065-3.762,6.098-5.19c2.596-1.859,5.234-3.244,7.872-4.195
			c2.768-0.995,5.536-1.557,8.261-1.73c4.585-0.302,9.04,0.519,13.279,2.033c1.038,0.346,2.033,0.735,3.027,1.168
			c1.341,0.605,2.725,1.297,4.023,2.076h0.043c3.676,2.163,7.093,4.93,9.904,7.828c1.601,1.6,2.985,3.244,4.066,4.844
			C295.185,208.456,295.791,213.863,289.303,214.252z"/>
		<g>
			<path style="fill:#FFFFFF;" d="M240.168,208.241c1.254,0.605,1.73,3.503,1.99,6.315c-2.855,0-5.32-0.13-7.396-0.433
				C236.709,210.792,238.958,207.678,240.168,208.241z"/>
			<path style="fill:#FFFFFF;" d="M234.373,195.654c2.033-2.033,4.065-3.762,6.098-5.19c0.476,3.331,0.865,7.526,0.173,8.391
				C239.953,199.763,236.838,198.119,234.373,195.654z"/>
			<path style="fill:#FFFFFF;" d="M256.604,184.538c-1.038,3.244-2.768,8.088-4.066,8.521c-1.298,0.432-3.114-3.677-4.195-6.791
				C251.111,185.273,253.88,184.711,256.604,184.538z"/>
			<path style="fill:#FFFFFF;" d="M262.27,213.776c-2.552-0.173-4.152-0.302-4.152-0.302c-1.081,0.13-2.119,0.216-3.157,0.346
				c1.081-3.114,2.595-6.142,4.195-6.099C260.843,207.808,261.751,210.878,262.27,213.776z"/>
			<path style="fill:#FFFFFF;" d="M276.933,189.815c-2.422,1.643-5.277,3.331-6.747,3.59c-1.86,0.302-1.081-3.85-0.303-6.834
				c1.038,0.346,2.033,0.735,3.027,1.168C274.251,188.344,275.635,189.036,276.933,189.815z"/>
			<path style="fill:#FFFFFF;" d="M283.291,214.469c-2.12,0-4.282,0-6.402-0.043c0.822-2.897,1.817-6.012,3.028-5.363
				C281.042,209.668,282.123,212.176,283.291,214.469z"/>
			<path style="fill:#FFFFFF;" d="M290.946,202.488c-2.076,0.735-4.368,1.255-5.752,0.822c-1.687-0.562-0.043-3.373,1.686-5.666
				C288.481,199.244,289.865,200.887,290.946,202.488z"/>
		</g>
		<path style="fill:#6D92A6;" d="M214.836,254.576c-29.356-4.089-52.581-11.126-57.037-20.107
			c-6.167-12.333-10.154-49.263-10.087-85.423c24.866,7.004,37.299,18.465,39.678,36.662
			C190.07,206.419,227.671,227.13,214.836,254.576z"/>
	</g>
	<g>
		<rect x="359.929" y="119.311" style="fill:#DBDCDC;" width="33.771" height="21.057"/>
		<rect x="366.683" y="119.311" style="fill:#B4B4B5;" width="2.384" height="21.057"/>
		<rect x="372.245" y="119.311" style="fill:#B4B4B5;" width="2.384" height="21.057"/>
		<rect x="377.807" y="119.311" style="fill:#B4B4B5;" width="2.384" height="21.057"/>
		<rect x="383.37" y="119.311" style="fill:#B4B4B5;" width="2.384" height="21.057"/>
		<rect x="387.343" y="108.981" style="fill:#C8C9CA;" width="12.714" height="40.128"/>
		<rect x="387.343" y="109.378" style="fill:#DBDCDC;" width="12.714" height="16.289"/>
		<rect x="387.343" y="139.573" style="fill:#B4B4B5;" width="12.714" height="9.535"/>
	</g>
</g>
</svg>
