<?xml version="1.0" encoding="iso-8859-1"?>
<!-- Generator: Adobe Illustrator 22.1.0, SVG Export Plug-In . SVG Version: 6.00 Build 0)  -->
<svg version="1.1" id="_x34_" xmlns="http://www.w3.org/2000/svg" xmlns:xlink="http://www.w3.org/1999/xlink" x="0px" y="0px"
	 viewBox="0 0 512 512" style="enable-background:new 0 0 512 512;" xml:space="preserve">
<g>
	<path style="fill:#FFFFFF;" d="M362.858,323.668c2.34,8.179,7.023,40.954-4.683,45.637c-11.706,4.681-11.706,4.681-11.706,4.681
		s-17.543,74.914-17.543,85.464c0,10.52,10.52,12.862,17.543,17.543c7.023,4.683,8.209,19.914,1.185,22.255
		c-7.023,2.341-31.619,4.683-31.619,4.683s-2.341,5.837-23.41,4.681c-21.07-1.185-38.613-9.364-43.295-19.914
		c-4.682-10.52-5.867-15.203-5.867-15.203s-28.538,11.41-46.17,14.492c-1.925,0.355-3.733,0.592-5.333,0.711
		c-16.388,1.185-40.954,2.341-60.868-33.931c-19.884-36.3,1.185-148.671,12.89-177.92c11.706-29.278,38.613-55.03,38.613-55.03
		C167.395,196.065,141.643,23.982,285.603,1.758c41.754,5.957,70.677,20.478,87.36,45.043c9.572,14.016,15.143,31.264,16.832,52.097
		c4.681,57.37-23.411,117.082-59.712,136.966c-2.341,15.231,12.891,76.098,12.891,76.098S360.517,315.46,362.858,323.668z"/>
	<path style="fill:#EEEEEF;" d="M362.858,323.668c2.34,8.179,7.023,40.954-4.683,45.637c-11.706,4.681-11.706,4.681-11.706,4.681
		s-17.543,74.914-17.543,85.464c0,10.52,10.52,12.862,17.543,17.543c7.023,4.683,8.209,19.914,1.185,22.255
		c-7.023,2.341-31.619,4.683-31.619,4.683s-2.341,5.837-23.41,4.681c-21.07-1.185-38.613-9.364-43.295-19.914
		c-4.682-10.52-5.867-15.203-5.867-15.203s-28.538,11.41-46.17,14.492c-5.274-31.087-4.148-60.157-4.148-60.157
		s-14.046-1.156-21.07-7.024c-7.023-5.837,12.861-12.86-2.341-17.542c-14.046-14.047,1.156-95.984,14.047-112.372
		c12.861-16.387,18.728-33.959,42.139-66.734c-12.891-97.168,25.751-161.533,80.751-186.128c32.952-14.699,52.037-6.341,66.29,8.771
		c9.572,14.016,15.143,31.264,16.832,52.097c4.681,57.37-23.411,117.082-59.712,136.966c-2.341,15.231,12.891,76.098,12.891,76.098
		S360.517,315.46,362.858,323.668z"/>
	<path style="fill:#FFFFFF;" d="M332.877,334.103c0,0,2.7-23.919,21.595-17.395c18.895,6.523,13.496,55.807-5.399,55.083
		C330.178,371.066,332.877,334.103,332.877,334.103z"/>
	<path style="fill:#041717;" d="M334.677,339.697c0.191,7.682,1.169,13.669,2.759,18.422c1.589,4.719,3.877,8.329,7.059,10.071
		c1.552,0.867,3.428,1.3,5.291,1.221c1.805-0.076,3.615-0.785,5.319-2.212c3.427-2.875,6.148-8.343,7.69-15.609
		c1.411-7.188,1.225-13.224,0.336-18.21c-0.952-4.945-2.584-9.119-5.369-11.928c-1.42-1.401-2.953-2.384-5.056-2.913
		c-1.045-0.288-2.113-0.643-3.2-0.655c-0.539-0.02-1.111-0.18-1.649-0.103c-0.543,0.055-1.095,0.112-1.656,0.169
		c-2.181,0.433-4.347,1.597-6.173,3.716c-1.82,2.104-3.341,5.015-4.343,8.504c-0.483,1.384-1.859,4.339-2.801,3.905
		c-1.12,0.259-1.4-3.345-0.909-4.953c1.043-3.907,2.675-7.343,4.941-10.095c2.249-2.768,5.349-4.62,8.453-5.272
		c0.78-0.097,1.547-0.195,2.301-0.291c0.757-0.099,1.471,0.052,2.193,0.072c1.469,0.019,2.765,0.4,4.056,0.731
		c2.603,0.58,5.196,2.075,7.064,3.933c3.84,3.805,5.687,8.744,6.827,14.307c1.037,5.617,1.255,12.148-0.289,20.048
		c-1.741,7.993-4.612,14.271-9.36,18.303c-2.36,1.983-5.328,3.179-8.193,3.241c-2.8,0.076-5.421-0.593-7.744-1.927
		c-4.669-2.753-7.192-7.471-8.86-12.736c-1.649-5.363-2.501-11.693-2.539-19.702c-0.028-1.609,1.011-6.057,2.053-5.613
		C333.89,333.856,334.595,338.171,334.677,339.697z"/>
	<path style="fill:#051818;" d="M172.526,117.776c0,0-4.186,17.796-1.385,24.588c0,0,82.364,79.597,202.682,27.564
		c0,0,8.84-4.928,11.596-27.66c3.444-13.088,0.688-19.978,0.688-19.978l-3.037,2.683
		C342.581,149.266,230.111,141.168,172.526,117.776"/>
	<path style="fill:#071414;" d="M202.051,121.066c2.236-0.517,4.903-0.896,7.744-1.765c2.859-0.819,5.997-1.717,9.335-2.669
		c6.735-1.747,14.01-4.523,21.466-7.2c3.764-1.253,7.385-2.957,11.027-4.477c3.609-1.592,7.251-2.997,10.62-4.661
		c6.71-3.384,13.072-6.253,18.003-9.179c10.131-5.357,24.068-14.088,36.853-23.44c12.802-9.347,24.246-19.526,30.691-26.08
		c2.788-2.645,10.441-11.195,9.15-11.053c0.14-1.123-7.878,6.872-10.787,9.341c-6.732,6.128-18.235,15.995-30.996,25.126
		c-12.746,9.141-26.547,17.76-36.575,23.062c-4.88,2.899-11.173,5.739-17.803,9.112c-3.329,1.661-6.926,3.064-10.489,4.659
		c-3.594,1.525-7.167,3.243-10.88,4.515c-7.355,2.72-14.521,5.571-21.15,7.443c-3.281,1.035-6.368,2.008-9.179,2.896
		c-2.791,0.96-5.409,1.44-7.598,2.075c-3.679,0.968-14.67,3.867-13.605,4.392C187.092,124.12,198.284,121.837,202.051,121.066z"/>
	<path style="fill:#071414;" d="M193.714,82.981c1.945-0.152,4.186-0.525,6.689-0.856c2.485-0.419,5.205-0.957,8.083-1.587
		c5.74-1.339,12.07-3.213,18.386-5.472c12.62-4.576,25.077-10.763,33.5-15.51c8.478-4.656,20.265-11.958,31.113-19.755
		c10.888-7.739,20.842-15.928,26.588-21.12c2.441-2.125,9.423-8.797,8.276-8.845c0.107-1.051-7.241,5.085-9.803,7.037
		c-6.033,4.773-16.083,12.683-26.964,20.235c-10.841,7.611-22.518,14.813-30.896,19.419c-8.326,4.688-20.602,10.805-32.954,15.443
		c-6.183,2.291-12.358,4.232-17.948,5.685c-2.801,0.691-5.448,1.301-7.865,1.808c-2.431,0.419-4.612,0.896-6.501,1.171
		c-1.584,0.165-4.72,0.768-7.393,1.013c-2.668,0.307-4.857,0.675-4.455,1.035c-0.397,0.395,1.813,0.565,4.55,0.632
		C188.861,83.445,192.083,83.05,193.714,82.981z"/>
	<path style="fill:#071414;" d="M256.256,56.463c-2.894-0.784-7.728-1.936-12.607-3.477c-4.887-1.515-9.768-3.515-12.863-5.333
		c-3.037-1.696-7.555-4.923-8.255-9.243c-0.38-2.112,0.315-4.336,1.291-6.173c0.93-1.869,2.12-3.405,3.011-4.557
		c0.655-1.024,3.233-3.691,2.487-4.085c-0.226-0.763-3.335,1.509-4.234,2.488c-1.146,1.059-2.61,2.595-3.865,4.731
		c-1.269,2.061-2.391,4.952-1.955,8.056c0.396,3.099,2.214,5.749,4.116,7.611c1.917,1.917,3.984,3.189,5.677,4.181
		c3.402,1.995,8.554,4.064,13.645,5.483c5.087,1.445,10.084,2.352,13.124,2.648c1.267,0.149,5.069,0.408,4.857-0.403
		C261.086,57.7,257.462,56.815,256.256,56.463z"/>
	<path style="fill:#071414;" d="M379.821,94.762c-5.252,2.4-14.306,5.6-23.944,7.928c-2.441,0.432-4.905,0.869-7.338,1.301
		c-1.216,0.208-2.425,0.416-3.619,0.621c-1.208,0.112-2.401,0.219-3.573,0.325c-2.344,0.213-4.601,0.416-6.72,0.605
		c-2.129,0.037-4.117,0.072-5.912,0.104c-3.589,0.197-7.952-0.181-12.66-0.371c-4.691-0.475-9.732-0.957-14.631-1.859
		c-9.821-1.632-19.098-4.229-24.631-5.923c-2.359-0.592-9.112-3.069-8.86-2.2c-0.907,0.496,5.751,3.632,8.076,4.432
		c5.457,2.203,14.838,5.12,24.839,6.939c4.985,0.992,10.136,1.531,14.932,2.037c4.819,0.224,9.284,0.611,12.967,0.413
		c7.372,0.189,17.902-1.104,27.864-3.213c9.88-2.533,19.09-6.099,24.227-9.008c2.157-1.216,8.528-4.827,7.598-5.197
		C388.584,90.775,382.009,93.762,379.821,94.762z"/>
	<path style="fill:#071414;" d="M186.443,205.258c6.974,1.288,18.685,2.731,30.89,3.448c12.203,0.723,24.89,0.744,33.727,0.22
		c8.833-0.437,21.503-1.499,33.553-3.876c12.059-2.284,23.415-5.991,29.819-9.195c0.675-0.311,1.684-0.776,2.815-1.299
		c1.061-0.625,2.235-1.317,3.333-1.965c2.137-1.311,3.801-2.471,3.285-2.629c0.135-0.495-1.784,0.189-4.049,1.143
		c-1.14,0.504-2.356,1.04-3.457,1.527c-1.147,0.42-2.171,0.796-2.855,1.047c-6.448,2.671-17.616,6.03-29.503,8.132
		c-11.873,2.192-24.379,3.219-33.109,3.651c-8.733,0.519-21.286,0.52-33.384-0.047c-12.101-0.564-23.736-1.719-30.731-2.5
		c-2.931-0.255-11.621-1.432-11.042-0.545C174.877,202.969,183.515,204.79,186.443,205.258z"/>
	<path style="fill:#071414;" d="M206.081,234.219c7.141,1.629,19.216,3.303,31.808,4.333c6.314,0.281,12.73,0.936,18.74,0.689
		c3.003-0.033,5.895-0.064,8.609-0.093c2.715-0.025,5.241-0.36,7.527-0.499c2.284-0.183,4.815-0.385,7.524-0.601
		c2.692-0.403,5.56-0.832,8.536-1.277c1.485-0.244,3.009-0.419,4.529-0.732c1.515-0.345,3.048-0.696,4.591-1.047
		c3.087-0.699,6.223-1.368,9.239-2.404c12.237-3.539,23.275-9.319,29.178-13.811c1.279-0.868,3.673-2.837,5.504-4.692
		c1.867-1.809,3.027-3.675,2.484-3.601c-0.067-0.527-1.536,0.871-3.595,2.352c-2.012,1.511-4.44,3.241-5.741,3.996
		c-5.992,3.932-16.779,9.279-28.762,12.592c-2.947,0.977-6.023,1.601-9.047,2.263c-1.509,0.335-3.011,0.667-4.493,0.996
		c-1.488,0.299-2.987,0.461-4.443,0.695c-2.919,0.428-5.732,0.843-8.371,1.231c-2.663,0.209-5.151,0.405-7.396,0.581
		c-2.248,0.137-4.727,0.469-7.402,0.497c-2.674,0.037-5.524,0.075-8.483,0.116c-5.918,0.271-12.265-0.339-18.506-0.541
		c-12.46-0.872-24.46-2.253-31.644-3.377c-3.01-0.403-11.999-1.6-11.405-0.732C194.166,231.766,203.082,233.603,206.081,234.219z"/>
	<path style="fill:#FFFFFF;" d="M286.264,141.443c-8.363,1.287-20.32,26.88-5.147,39.886c4.504,3.86,11.647,7.072,20.587,1.287
		c10.936-7.076,17.37-30.236,10.293-39.886L286.264,141.443z"/>
	<path style="fill:#051818;" d="M286.264,141.443l-0.208-1.351c-1.773,0.283-3.421,1.307-4.97,2.761
		c-4.599,4.381-8.584,12.976-8.615,21.859c-0.013,6.312,2.122,12.831,7.757,17.652c2.878,2.468,6.882,4.769,11.813,4.772
		c3.188,0.004,6.705-0.981,10.403-3.375c4.21-2.739,7.622-7.477,10.048-12.885c2.417-5.415,3.833-11.514,3.836-17.071
		c-0.005-4.535-0.937-8.741-3.23-11.884l-0.385-0.525l-26.527-1.325l-0.13,0.021L286.264,141.443l-0.069,1.363l25.734,1.287
		l0.069-1.363l-1.101,0.807c1.807,2.447,2.707,6.107,2.702,10.27c0.003,5.091-1.328,10.884-3.599,15.956
		c-2.262,5.077-5.481,9.419-9.037,11.707c-3.336,2.152-6.293,2.935-8.921,2.939c-4.044,0.003-7.449-1.901-10.036-4.116
		c-4.941-4.247-6.791-9.841-6.804-15.579c-0.005-5.353,1.675-10.772,3.995-14.878c1.155-2.053,2.47-3.777,3.763-4.996
		c1.291-1.227,2.559-1.911,3.512-2.047L286.264,141.443l-0.069,1.363L286.264,141.443z"/>
	<path style="fill:#FFFFFF;" d="M327.438,181.973c-16.727-5.147-10.938-36.027-5.147-39.243l21.23-3.217
		c0,0,7.516,5.129,6.433,18.658C348.667,174.252,338.775,185.461,327.438,181.973z"/>
	<path style="fill:#051818;" d="M327.438,181.973l0.401-1.305c-3.723-1.157-6.156-3.641-7.773-6.981
		c-1.603-3.333-2.287-7.51-2.284-11.687c-0.001-4.297,0.715-8.596,1.773-11.951c0.527-1.677,1.139-3.119,1.76-4.188
		c0.611-1.073,1.264-1.747,1.637-1.937l-0.661-1.193l0.204,1.349l21.23-3.217l-0.204-1.349l-0.77,1.127l0.085-0.125l-0.088,0.124
		l0.003,0.001l0.085-0.125l-0.088,0.124c0.169,0.147,5.934,4.236,5.947,14.918c0,0.795-0.033,1.629-0.102,2.508
		c-0.543,6.823-2.698,12.698-5.775,16.79c-3.092,4.101-7.006,6.388-11.25,6.391c-1.207-0.001-2.451-0.185-3.73-0.577
		L327.438,181.973l-0.4,1.305c1.525,0.467,3.043,0.696,4.529,0.695c5.279,0.003,9.995-2.885,13.434-7.48
		c3.453-4.604,5.729-10.949,6.314-18.215c0.074-0.945,0.11-1.852,0.11-2.723c0.004-6.049-1.721-10.342-3.483-13.099
		c-1.762-2.761-3.539-3.996-3.651-4.072l-0.445-0.304l-22.001,3.335l-0.215,0.12c-1.095,0.624-1.911,1.655-2.677,2.956
		c-2.24,3.903-3.885,10.6-3.9,17.508c0.003,4.468,0.707,9.011,2.552,12.868c1.832,3.849,4.909,7.03,9.431,8.41L327.438,181.973z"/>
	<path style="fill:#051818;" d="M287.472,163.838c3.757,2.211,14.587-1.547,17.46-4.42c2.873-2.873,4.2,1.989,0.884,4.863
		c-3.315,2.873-10.608,6.188-17.019,5.525C282.388,169.142,284.156,163.396,287.472,163.838z"/>
	<path style="fill:#051818;" d="M327.035,158.975c3.536,3.536,10.829,4.863,14.146,3.536c3.315-1.325,2.873,4.643-2.432,4.643
		c-5.304,0-10.167-0.443-13.924-4.421C321.73,160.08,324.825,157.428,327.035,158.975z"/>
	<path style="fill:#071414;" d="M289.603,256.639c-5.424,1.787-14.768,3.86-24.611,5.136c-9.833,1.359-20.121,1.923-27.291,2.249
		c-7.177,0.271-17.472,0.355-27.386-0.149c-9.923-0.431-19.406-1.773-24.994-2.993c-2.416-0.272-9.102-2.627-8.768-1.98
		c-0.787,0.217,5.984,3.044,8.408,3.451c5.632,1.567,15.233,3.1,25.231,3.629c9.997,0.604,20.366,0.535,27.593,0.261
		c7.222-0.328,17.579-0.911,27.494-2.377c9.919-1.381,19.377-3.659,24.834-5.8c0.564-0.235,1.405-0.584,2.353-0.977
		c0.949-0.365,1.967-0.84,2.828-1.439c1.763-1.097,3.124-2.039,2.721-2.093c0.125-0.341-1.412,0.299-3.209,1.141
		c-0.875,0.469-1.899,0.845-2.857,1.136C291.004,256.158,290.164,256.445,289.603,256.639z"/>
	<path style="fill:#071414;" d="M288.128,286.041c-5.1,1.517-13.909,3.008-23.158,3.425c-9.239,0.497-18.853,0.135-25.521-0.473
		c-6.679-0.481-16.223-1.676-25.272-3.632c-9.051-1.923-17.606-4.528-22.542-6.616c-2.153-0.661-8.079-3.732-7.869-2.999
		c-0.726,0.089,5.128,3.588,7.27,4.389c4.902,2.428,13.548,5.248,22.692,7.288c9.145,2.073,18.79,3.296,25.54,3.781
		c6.739,0.615,16.456,0.968,25.82,0.368c9.364-0.517,18.344-2.211,23.507-4.092c0.533-0.207,1.329-0.515,2.227-0.861
		c0.439-0.176,0.903-0.36,1.372-0.548c0.433-0.251,0.871-0.504,1.299-0.752c1.667-0.996,2.952-1.857,2.571-1.929
		c0.116-0.331-1.339,0.224-3.039,0.968c-0.431,0.191-0.872,0.385-1.308,0.579c-0.473,0.143-0.939,0.283-1.381,0.416
		C289.447,285.629,288.656,285.875,288.128,286.041z"/>
	<path style="fill:#071414;" d="M235.717,307.058c-4.64-0.241-12.327-1.144-20.223-2.563c-7.903-1.388-15.991-3.372-21.576-4.951
		c-5.608-1.497-13.551-3.999-21.035-6.875c-7.502-2.841-14.455-6.217-18.421-8.579c-0.781-0.549-2.522-1.433-3.786-2.421
		c-1.295-0.949-2.426-1.687-2.415-1.36c-0.358,0.011,0.542,1.008,1.74,2.191c1.171,1.223,2.866,2.239,3.643,2.867
		c3.905,2.708,10.917,6.305,18.47,9.268c7.54,3,15.552,5.539,21.211,7.049c5.637,1.593,13.8,3.581,21.806,4.889
		c7.996,1.34,15.81,2.077,20.536,1.997c1.971,0.108,7.845-0.335,7.32-0.764C243.436,307.272,237.652,307.298,235.717,307.058z"/>
	<path style="fill:#071414;" d="M191.795,332.121c-1.377,0.165-3.651,0.456-6.031,0.551c-2.378,0.1-4.851,0.055-6.572-0.101
		c-3.463-0.127-9.805-1.405-12.568-1.937c-0.578-0.1-2.315-0.396-2.324,0.105c-0.291,0.419,1.352,1.117,1.909,1.352
		c2.635,1.172,9.213,2.561,12.824,2.695c1.791,0.16,4.379,0.195,6.867-0.008c2.489-0.196,4.867-0.683,6.241-1.18
		c0.583-0.189,2.259-0.905,1.952-1.329C194.072,331.78,192.373,332.072,191.795,332.121z"/>
	<path style="fill:#071414;" d="M157.11,370.89c2.255-0.156,5.877-1.063,9.437-2.443c3.575-1.349,7.121-3.088,9.545-4.388
		c2.416-1.315,5.827-3.299,8.936-5.511c3.12-2.191,5.899-4.659,7.35-6.375c0.671-0.655,2.257-2.996,1.714-3.083
		c-0.269-0.448-2.055,1.484-2.79,2.016c-1.6,1.407-4.379,3.647-7.475,5.707c-3.081,2.077-6.424,4.004-8.785,5.291
		c-2.371,1.271-5.828,2.98-9.263,4.377c-3.426,1.429-6.84,2.457-8.911,2.913c-0.855,0.312-3.467,0.588-3.263,1.085
		C153.35,370.955,156.187,371.079,157.11,370.89z"/>
	<path style="fill:#071414;" d="M202.813,357.291c-1.159,2.8-3.337,7.384-6.053,11.882c-2.703,4.5-5.855,8.949-8.327,11.826
		c-1.152,1.511-2.77,3.155-4.422,5.013c-1.787,1.723-3.64,3.647-5.677,5.292c-1.93,1.779-4.085,3.185-5.895,4.603
		c-1.948,1.205-3.613,2.369-4.927,3.135c-1.107,0.612-4.436,2.46-3.967,2.769c-0.106,0.589,3.468-0.917,4.678-1.431
		c1.425-0.643,3.203-1.727,5.265-2.891c1.918-1.373,4.183-2.776,6.202-4.567c2.13-1.66,4.055-3.616,5.903-5.38
		c1.709-1.893,3.373-3.585,4.554-5.132c2.535-2.951,5.753-7.516,8.436-12.171c2.695-4.649,4.768-9.427,5.658-12.439
		c0.217-0.613,0.538-1.892,0.718-2.984c0.139-1.121,0.101-2.036-0.16-1.896c-0.221-0.179-0.524,0.651-0.876,1.631
		C203.518,355.54,203.089,356.711,202.813,357.291z"/>
	<path style="fill:#071414;" d="M205.262,367.828c0.558,3.189,1.811,10.567,2.021,14.564c0.387,3.993,0.089,11.411-0.508,14.552
		c-0.104,0.652-0.416,2.632,0.087,2.623c0.415,0.319,1.145-1.62,1.39-2.283c0.529-1.584,1.089-4.317,1.267-7.177
		c0.252-2.86,0.087-5.817-0.021-7.875c-0.216-4.123-1.563-11.684-2.767-14.775c-0.219-0.653-0.973-2.573-1.398-2.265
		C204.833,365.171,205.178,367.154,205.262,367.828z"/>
	<path style="fill:#071414;" d="M226.499,390.634c2.549-3.929,7.836-13.511,10.307-18.85c1.295-2.635,3-6.495,4.453-10.305
		c1.476-3.804,2.479-7.649,2.891-9.995c0.168-0.988,0.463-3.951-0.051-3.763c-0.449-0.295-1.136,2.503-1.425,3.419
		c-0.713,2.205-1.845,5.871-3.383,9.573c-1.515,3.705-3.207,7.503-4.489,10.112c-2.441,5.275-7.637,14.812-9.635,19.084
		c-0.199,0.459-0.617,1.333-0.879,2.151c-0.295,0.752-0.347,1.684-0.054,1.493c0.235,0.047,0.511-0.331,1.014-1.023
		C225.704,391.869,226.248,391.046,226.499,390.634z"/>
	<path style="fill:#071414;" d="M292.695,328.074c-2.701,1.651-6.879,4.901-10.615,8.884c-3.787,3.943-7.013,8.62-9.044,12
		c-1.997,3.405-4.475,8.515-6.148,13.715c-1.581,5.223-2.525,10.409-2.704,13.559c-0.073,1.32-0.282,5.228,0.236,4.931
		c0.449,0.345,1.063-3.467,1.267-4.737c0.493-3.048,1.585-8.056,3.207-13.094c1.713-5.015,4.121-9.945,6.055-13.244
		c1.967-3.272,5.075-7.805,8.676-11.691c3.555-3.927,7.491-7.212,9.931-9.076c0.967-0.877,4.187-2.896,3.712-3.161
		C297.337,325.541,293.76,327.289,292.695,328.074z"/>
	<path style="fill:#071414;" d="M295.58,370.91c0.133-1.629,0.415-4.311,1.093-7.039c0.648-2.733,1.657-5.488,2.468-7.366
		c1.457-3.839,5.368-10.463,7.128-13.285c0.333-0.612,1.431-2.375,0.944-2.539c-0.271-0.437-1.72,1.107-2.173,1.655
		c-2.329,2.499-6.425,9.308-7.945,13.31c-0.843,1.953-1.888,4.844-2.48,7.759c-0.623,2.907-0.743,5.808-0.549,7.529
		c0.063,0.725,0.471,2.841,0.924,2.595C295.495,373.628,295.508,371.584,295.58,370.91z"/>
	<path style="fill:#071414;" d="M328.522,259.203c-0.411,1.032-1.007,2.736-2.203,4.085c-1.153,1.379-2.82,2.345-4.064,2.863
		c-2.431,1.232-7.743,1.749-10.04,2.076c-0.479,0.079-1.919,0.297-1.801,0.781c-0.124,0.484,1.344,0.677,1.841,0.733
		c2.347,0.316,7.993-0.132,10.869-1.548c1.425-0.589,3.465-1.776,4.832-3.573c1.413-1.769,1.932-3.896,2.049-5.115
		c0.017-0.528,0.007-2.052-0.492-1.955C329.043,257.407,328.658,258.767,328.522,259.203z"/>
	<path style="fill:#071414;" d="M311.843,290.998c2.955,0.151,9.756-0.755,13.327-1.745c1.796-0.408,4.337-1.221,6.708-2.249
		c2.387-1.011,4.472-2.531,5.555-3.609c0.455-0.469,1.605-2.004,1.117-2.176c-0.293-0.407-1.621,0.707-2.095,1.019
		c-1.185,0.735-3.123,1.957-5.405,2.825c-2.261,0.879-4.683,1.644-6.421,2.037c-3.429,0.953-10.048,1.896-12.903,2.388
		c-0.595,0.12-2.369,0.428-2.204,0.896C309.387,290.883,311.227,290.985,311.843,290.998z"/>
	<path style="fill:#071414;" d="M156.29,337.569c-2.642-1.384-8.698-4.672-11.517-6.999c-1.468-1.081-3.424-2.812-5.013-4.704
		c-1.689-1.848-2.653-3.997-3.296-5.28c-0.181-0.549-0.765-2.259-1.216-2.071c-0.517-0.116-0.315,1.836-0.232,2.515
		c0.37,1.527,1.337,4.083,3.101,6.16c1.667,2.141,3.759,4,5.303,5.14c2.992,2.464,9.311,5.817,12.273,6.632
		c0.608,0.197,2.454,0.701,2.473,0.179C158.47,338.752,156.83,337.885,156.29,337.569z"/>
	<path style="fill:#071414;" d="M153.072,385.341c-2.735-0.859-9.042-2.848-12.251-4.327c-3.289-1.324-8.924-4.653-11.094-6.455
		c-0.459-0.357-1.861-1.44-2.117-1.015c-0.47,0.216,0.695,1.648,1.097,2.135c0.987,1.115,2.871,2.744,5.035,4.095
		c2.131,1.415,4.528,2.512,6.192,3.276c3.336,1.537,9.867,3.529,12.807,3.769c0.607,0.081,2.437,0.225,2.369-0.289
		C155.334,386.09,153.636,385.551,153.072,385.341z"/>
	<path style="fill:#071414;" d="M168.354,405.97c-3.509,0.099-11.623,0.461-15.969,0.285c-4.357-0.025-12.395-0.843-15.825-1.444
		c-0.715-0.111-2.871-0.441-2.832,0.067c-0.316,0.42,1.781,1.161,2.493,1.409c3.394,1.263,11.681,2.165,16.109,2.188
		c4.434,0.179,12.689-0.249,16.178-0.999c0.731-0.131,2.901-0.608,2.65-1.071C171.272,405.91,169.09,405.975,168.354,405.97z"/>
	<path style="fill:#071414;" d="M135.764,447.091c3.253-0.496,8.39-2.353,13.267-5.023c4.906-2.628,9.644-5.885,12.889-8.231
		c3.203-2.404,7.704-5.971,11.721-9.797c4.038-3.8,7.523-7.922,9.273-10.665c0.849-1.067,2.613-4.768,2.003-4.66
		c-0.293-0.472-2.304,2.82-3.233,3.776c-1.939,2.451-5.453,6.344-9.485,10.008c-4.009,3.688-8.446,7.187-11.596,9.551
		c-3.191,2.307-7.839,5.517-12.583,8.165c-4.723,2.692-9.584,4.623-12.576,5.396c-1.228,0.539-5.033,0.811-4.765,1.303
		C130.283,447.396,134.441,447.523,135.764,447.091z"/>
	<path style="fill:#071414;" d="M145.766,464.678c4.889,1.141,13.15,2.4,21.77,2.92c8.617,0.583,17.568,0.489,23.804,0.215
		c6.237-0.247,15.167-1.04,23.682-2.576c8.508-1.539,16.594-3.84,21.17-5.993c0.482-0.209,1.22-0.48,2.008-0.863
		c0.755-0.412,1.593-0.869,2.396-1.307c1.539-0.871,2.743-1.639,2.393-1.739c0.117-0.324-1.245,0.136-2.858,0.776
		c-0.825,0.341-1.688,0.7-2.466,1.021c-0.8,0.309-1.545,0.528-2.03,0.703c-4.592,1.811-12.571,3.897-20.978,5.323
		c-8.413,1.421-17.244,2.193-23.419,2.436c-6.172,0.272-15.036,0.379-23.576-0.101c-8.544-0.421-16.724-1.492-21.608-2.303
		c-2.069-0.215-8.075-1.592-7.721-0.983C137.694,462.523,143.695,464.324,145.766,464.678z"/>
	<path style="fill:#071414;" d="M232.39,434.457c-6.567,1.347-21.855,4.251-30.137,5.169c-4.129,0.533-10.065,1.137-15.803,1.363
		c-5.747,0.344-11.258,0.011-14.586-0.129c-1.373-0.132-5.495-0.588-5.259-0.057c-0.452,0.413,3.683,1.291,5.087,1.563
		c3.355,0.469,9,0.985,14.829,0.733c5.832-0.133,11.838-0.731,16.008-1.269c8.367-0.928,23.761-3.913,30.213-5.899
		c1.357-0.377,5.373-1.613,4.905-2.005C237.859,433.384,233.771,434.213,232.39,434.457z"/>
	<path style="fill:#071414;" d="M286.32,399.089c-2.589,0.055-6.915,0.456-11.317,1.391c-4.411,0.9-8.847,2.357-11.884,3.499
		c-3.039,1.147-7.289,3.036-11.249,5.127c-3.931,2.141-7.601,4.407-9.688,5.945c-0.875,0.643-3.47,2.553-2.974,2.811
		c0.046,0.545,2.846-1.008,3.782-1.529c2.239-1.252,5.947-3.333,9.854-5.355c3.934-1.968,8.096-3.803,11.062-4.923
		c2.966-1.115,7.277-2.545,11.549-3.512c4.263-1.003,8.46-1.569,10.999-1.944c1.057-0.16,4.237-0.611,3.936-1.071
		C290.619,399.022,287.407,399.062,286.32,399.089z"/>
	<path style="fill:#071414;" d="M282.648,431.121c-3.201,2.009-11.54,5.579-16.099,7.212c-4.519,1.764-13.176,4.435-16.87,5.735
		c-0.77,0.276-3.067,1.105-2.752,1.523c-0.077,0.521,2.337,0.087,3.149-0.061c3.888-0.681,12.662-3.325,17.247-5.115
		c4.619-1.66,13.086-5.328,16.204-8.06c0.332-0.257,0.979-0.839,1.423-1.468c0.501-0.619,0.456-1.524,0.177-1.332
		c-0.26-0.028-0.436,0.253-0.964,0.608C283.651,430.514,283.001,430.933,282.648,431.121z"/>
	<path style="fill:#071414;" d="M252.233,486.534c3.655-1.805,10.876-7.679,14.522-11.035c3.727-3.284,10.324-9.76,12.846-12.848
		c0.533-0.64,2.116-2.545,1.624-2.735c-0.204-0.483-2.077,1.131-2.704,1.672c-2.973,2.625-9.563,9.011-13.247,12.258
		c-3.618,3.331-10.675,9.141-13.852,11.41c-0.64,0.529-2.632,1.847-2.279,2.163C249.168,487.997,251.513,486.958,252.233,486.534z"
		/>
	<path style="fill:#071414;" d="M298.688,478.884c-3.969,0.453-12.814,3.143-17.38,5.041c-4.647,1.696-12.926,5.817-16.147,8.159
		c-0.68,0.479-2.694,1.904-2.262,2.211c0.081,0.515,2.285-0.545,3.021-0.9c3.5-1.752,11.631-5.735,16.202-7.404
		c4.491-1.865,13.14-4.557,16.898-5.629c0.777-0.257,3.112-0.916,2.839-1.344C301.98,478.488,299.508,478.754,298.688,478.884z"/>
	<path style="fill:#071414;" d="M275.589,502.594c1.576-0.789,4.315-1.857,7.266-2.609c2.949-0.767,6.101-1.173,8.307-1.351
		c2.205-0.185,5.388-0.229,8.448-0.011c3.061,0.208,5.988,0.669,7.749,0.976c0.743,0.089,2.923,0.573,2.907,0.049
		c0.339-0.389-1.789-1.289-2.532-1.517c-1.745-0.636-4.768-1.297-7.946-1.612c-3.177-0.324-6.495-0.292-8.797-0.099
		c-2.303,0.184-5.603,0.624-8.692,1.528c-3.088,0.887-5.948,2.201-7.462,3.331c-0.684,0.392-2.449,1.939-2.003,2.188
		C272.996,503.974,274.888,502.842,275.589,502.594z"/>
	<path style="fill:#071414;" d="M267.54,308.53c-1.336,0.551-3.162,1.237-5.115,2.239c-1.927,1.051-4.086,2.236-6.118,3.687
		c-4.153,2.777-8.071,6.146-10.692,8.596c-2.663,2.413-6.254,6.095-9.532,9.809c-3.281,3.713-6.199,7.499-7.815,9.876
		c-0.693,0.98-2.641,3.989-2.056,4.036c0.211,0.505,2.465-2.224,3.257-3.113c1.855-2.157,4.877-5.789,8.187-9.392
		c3.307-3.604,6.853-7.217,9.467-9.587c2.575-2.408,6.402-5.715,10.385-8.491c1.953-1.452,4.003-2.651,5.821-3.752
		c1.841-1.051,3.542-1.819,4.777-2.503c1.077-0.431,4.331-1.745,3.939-2.123C272.215,307.246,268.727,308.2,267.54,308.53z"/>
	<path style="fill:#071414;" d="M279.636,321.449c-3.073-0.489-10.273-0.268-14.094,0.329c-1.914,0.236-4.644,0.705-7.24,1.352
		c-2.592,0.668-5.038,1.521-6.435,2.215c-0.585,0.297-2.305,1.179-1.963,1.567c0.045,0.5,1.875,0.017,2.481-0.143
		c1.465-0.373,3.871-1.029,6.399-1.584c2.533-0.533,5.182-0.976,7.045-1.205c3.713-0.581,10.725-0.855,13.756-1.017
		c0.635-0.063,2.517-0.149,2.403-0.635C282.189,321.849,280.277,321.521,279.636,321.449z"/>
	<path style="fill:#071414;" d="M334.567,324.364c-2.352-0.661-7.869-0.177-10.68,0.579c-2.867,0.573-7.988,2.377-9.964,3.631
		c-0.42,0.252-1.657,1.003-1.347,1.396c0.092,0.487,1.473,0.123,1.933,0c2.191-0.639,7.131-2.315,9.864-2.861
		c2.707-0.723,7.841-1.227,10.052-1.236c0.469-0.047,1.821-0.019,1.831-0.487C336.509,324.917,335.055,324.45,334.567,324.364z"/>
	<path style="fill:#071414;" d="M336.942,360.168c-0.832-0.961-2.469-2.299-4.336-3.401c-1.852-1.136-3.939-1.969-5.397-2.513
		c-2.916-1.156-8.66-2.181-11.151-1.964c-0.521,0.029-2.06,0.12-1.952,0.613c-0.143,0.473,1.336,0.792,1.827,0.897
		c2.372,0.427,7.785,1.457,10.528,2.543c1.371,0.515,3.335,1.28,5.105,2.26c1.787,0.949,3.397,2.045,4.376,2.703
		c0.423,0.261,1.571,1.143,1.845,0.763C338.269,361.839,337.306,360.554,336.942,360.168z"/>
	<path style="fill:#071414;" d="M340.441,377.935c-1.78-0.203-4.749-0.131-7.773,0.284c-3.025,0.403-6.109,1.081-8.225,1.668
		c-4.277,1.039-11.96,3.884-15.018,5.633c-0.647,0.352-2.563,1.403-2.195,1.772c0.035,0.511,2.1-0.155,2.791-0.379
		c3.281-1.14,10.82-3.868,14.988-4.88c2.065-0.573,5.057-1.244,7.968-1.727c2.909-0.495,5.736-0.733,7.436-0.857
		c0.719-0.092,2.811-0.097,2.72-0.563C343.408,378.399,341.182,377.975,340.441,377.935z"/>
	<path style="fill:#071414;" d="M332.809,413.07c-1.761-0.345-4.725-0.501-7.764-0.339c-3.04,0.157-6.163,0.544-8.323,0.899
		c-4.344,0.615-12.287,2.479-15.556,3.765c-0.688,0.257-2.731,1.025-2.421,1.444c-0.04,0.512,2.1,0.143,2.816,0.019
		c3.417-0.655,11.252-2.433,15.505-3.035c2.119-0.348,5.165-0.739,8.112-0.985c2.947-0.252,5.783-0.273,7.483-0.26
		c0.729-0.048,2.791,0.141,2.751-0.325C335.741,413.79,333.543,413.154,332.809,413.07z"/>
	<path style="fill:#071414;" d="M300.454,450.221c0.913-1.288,2.812-3.204,5.095-4.856c2.248-1.7,4.88-3.077,6.692-4.055
		c3.643-1.967,10.936-4.672,14.08-5.883c0.649-0.272,2.589-1.091,2.291-1.504c0.035-0.519-2.041-0.088-2.74,0.057
		c-3.364,0.6-10.849,3.308-14.636,5.349c-1.887,1.017-4.616,2.461-6.965,4.356c-2.375,1.837-4.356,4.091-5.115,5.753
		c-0.163,0.341-0.469,1.036-0.585,1.676c-0.112,0.643-0.016,1.22,0.244,1.137c0.227,0.092,0.456-0.292,0.757-0.763
		C299.882,451.023,300.256,450.49,300.454,450.221z"/>
	<path style="fill:#071414;" d="M334.187,467.491c-1.485-0.657-4.092-1.411-6.876-1.743c-2.779-0.331-5.708-0.324-7.72-0.023
		c-2.023,0.191-4.887,0.824-7.508,1.825c-1.3,0.532-2.577,1.045-3.625,1.693c-1.077,0.589-2,1.14-2.616,1.676
		c-0.535,0.424-2.097,1.675-1.671,1.975c0.149,0.479,1.891-0.395,2.465-0.684c0.673-0.383,1.612-0.797,2.672-1.271
		c1.032-0.532,2.26-0.948,3.492-1.404c2.488-0.851,5.155-1.429,7.047-1.605c1.879-0.285,4.615-0.301,7.239-0.084
		c2.628,0.22,5.127,0.761,6.635,1.085c0.645,0.1,2.481,0.624,2.535,0.143C336.626,468.684,334.822,467.728,334.187,467.491z"/>
	<path style="fill:#071414;" d="M337.655,475.379c-1.435,0.492-3.687,1.743-5.607,3.561c-1.952,1.787-3.483,4.103-4.317,5.809
		c-0.897,1.68-1.813,4.28-2.177,6.863c-0.416,2.577-0.348,5.087-0.124,6.56c0.105,0.62,0.425,2.441,0.897,2.235
		c0.491,0.095,0.585-1.699,0.616-2.291c0.101-1.425,0.215-3.777,0.689-6.139c0.425-2.371,1.271-4.715,2.081-6.229
		c0.755-1.54,2.109-3.619,3.803-5.292c1.665-1.701,3.603-2.976,4.793-3.712c0.476-0.348,2.049-1.132,1.767-1.548
		C340.081,474.683,338.245,475.125,337.655,475.379z"/>
	<path style="fill:#071414;" d="M338.423,331.801c1.084,0.887,2.977,2.256,5.227,3.361c2.227,1.157,4.939,1.688,6.791,1.652
		c3.833,0.213,10.075-2.256,12.438-3.724c0.505-0.304,1.999-1.209,1.657-1.587c-0.079-0.495-1.724,0.027-2.272,0.203
		c-2.605,0.877-8.585,3.115-11.814,2.888c-1.601,0.021-3.847-0.384-5.919-1.349c-2.08-0.917-4.036-2.105-5.28-2.712
		c-0.519-0.257-2.067-1.039-2.216-0.556C336.647,330.298,337.971,331.428,338.423,331.801z"/>
	<path style="fill:#071414;" d="M338.546,358.002c1.388-0.191,3.68-0.644,6.021-1.539c2.364-0.843,4.599-2.467,5.835-3.847
		c2.767-2.661,5.209-8.914,5.744-11.643c0.121-0.577,0.476-2.288-0.032-2.295c-0.416-0.28-1.155,1.281-1.4,1.801
		c-1.131,2.505-3.567,8.408-5.931,10.616c-1.076,1.188-2.901,2.556-5.02,3.415c-2.088,0.899-4.291,1.523-5.581,2.02
		c-0.541,0.204-2.168,0.805-1.917,1.243C336.237,358.278,337.965,358.076,338.546,358.002z"/>
	<path style="fill:#041717;" d="M331.539,231.289c14.045-8.42,23.592-20.152,30.608-31.456c6.945-11.467,11.461-22.803,14.83-33.499
		c6.443-21.53,8.599-40.579,8.504-59.438c-0.1-9.435-0.799-18.886-2.459-28.582c-1.768-9.485-5.04-19.238-10.886-28.571
		c-2.851-4.693-6.299-9.299-10.435-13.648c-4.109-4.363-8.818-8.571-14.242-12.363c-10.853-7.515-24.488-13.659-40.663-16.163
		c-15.828-2.381-30.517-0.851-43.188,2.904c-12.723,3.712-23.534,9.483-32.784,15.96c-18.474,13.283-31.5,28.419-41.2,45.315
		c-9.579,16.968-16.076,35.867-18.619,58.56c-0.196,2.848-0.395,5.747-0.598,8.701c-0.1,1.477-0.201,2.969-0.303,4.476
		c0.018,1.512,0.037,3.037,0.055,4.58c0.037,3.084,0.074,6.232,0.112,9.448c0.287,3.207,0.58,6.481,0.881,9.832
		c1.504,13.347,4.126,27.907,9.525,43.325c0.872,3.221,2.606,8.109,3.73,12.172c1.127,4.059,1.732,7.268,0.821,6.841
		c-0.345,0.988-2.114-1.72-4.132-5.496c-2.013-3.772-4.353-8.576-5.287-11.864c-5.624-15.751-8.428-30.675-10.066-44.395
		c-0.331-3.447-0.655-6.816-0.973-10.115c-0.063-3.316-0.125-6.56-0.186-9.74c-0.029-1.591-0.057-3.164-0.085-4.723
		c0.093-1.557,0.185-3.1,0.277-4.627c0.19-3.055,0.376-6.052,0.559-8.997c2.463-23.492,9.073-43.221,18.981-60.986
		c10.026-17.694,23.611-33.601,42.845-47.489c9.712-6.837,21.142-12.973,34.651-16.928c13.454-4.003,29.098-5.651,45.961-3.112
		c17.234,2.669,31.77,9.219,43.362,17.264c5.795,4.061,10.835,8.568,15.233,13.256c4.427,4.672,8.125,9.629,11.184,14.688
		c6.264,10.061,9.78,20.603,11.633,30.832c1.692,10.12,2.359,19.867,2.408,29.608c-0.015,19.454-2.361,39.001-9.168,61.178
		c-3.559,11.023-8.308,22.727-15.646,34.654c-7.414,11.754-17.534,24.099-32.638,33.029c-1.459,0.955-3.811,1.933-6.315,3.117
		c-2.627,0.935-5.44,2.065-8.16,2.611c-2.664,0.715-5.143,1.013-6.848,1.097c-1.703,0.1-2.633-0.013-2.331-0.441
		c-0.437-0.247,0.367-0.781,1.887-1.461c1.527-0.663,3.769-1.469,6.156-2.584c2.445-0.944,4.949-2.365,7.3-3.468
		C328.069,233.235,330.186,232.203,331.539,231.289z"/>
	<path style="fill:#041717;" d="M231.632,481.112c-18.61,7.016-34.373,9.674-48.085,9.344c-13.686-0.375-25.478-4.18-34.962-11.275
		c-4.753-3.513-8.92-7.852-12.324-12.964c-3.455-5.065-6.387-10.832-8.549-17.324c-2.267-6.464-4.05-13.631-5.215-21.658
		c-1.203-8.02-1.985-16.896-2.089-26.824c-0.119-19.436,1.573-34.911,3.527-48.358c1.985-13.449,4.323-24.898,7.073-36.241
		c2.789-11.332,5.956-22.58,10.465-35.416c2.288-6.407,4.91-13.212,8.203-20.539c3.351-7.297,7.244-15.203,13.272-23.195
		c1.282-1.597,3.611-3.892,5.941-5.237c2.351-1.349,4.397-1.703,4.285-0.883c0.695,0.42-0.569,1.828-1.973,3.608
		c-1.436,1.811-3.054,4.193-4.191,5.663c-5.457,7.395-9.212,15.139-12.368,22.263c-3.122,7.173-5.614,13.875-7.785,20.19
		c-4.279,12.66-7.273,23.78-9.916,34.967c-2.605,11.198-4.828,22.492-6.727,35.727c-1.869,13.227-3.495,28.44-3.376,47.373
		c0.101,9.667,0.858,18.246,1.999,25.938c1.103,7.705,2.785,14.495,4.877,20.535c1.997,6.092,4.644,11.308,7.715,15.888
		c3.024,4.621,6.672,8.467,10.837,11.605c8.295,6.319,18.71,9.931,31.484,10.451c12.768,0.468,27.944-1.84,46.072-8.451
		c1.813-0.648,5.316-1.72,8.316-2.537c3.004-0.807,5.497-1.364,5.421-0.56c0.717,0.413-1.274,2.137-3.977,3.829
		C236.89,478.734,233.49,480.407,231.632,481.112z"/>
	<path style="fill:#041717;" d="M238.914,401.85c0.717,16.09,2.66,28.592,4.374,39.413c1.814,10.836,3.339,19.943,4.864,29.048
		c0.373,2.283,0.746,4.565,1.123,6.875c0.187,1.153,0.375,2.313,0.565,3.484c0.275,0.952,0.533,1.909,0.775,2.887
		c1.42,3.823,4.405,7.413,8.409,10.507c4.015,3.097,9.043,5.769,14.965,7.847c5.915,2.016,12.806,3.653,20.463,3.656
		c3.745,0.039,7.225-0.447,10.362-1.252c3.157-0.816,5.941-2.289,6.947-3.792c0.505-0.728,0.655-1.435,0.527-2.46
		c-0.137-1.005-0.517-2.159-1.101-3.304c-1.156-2.301-2.835-4.515-4.511-6.593c-3.413-4.176-7.033-7.9-10.374-11.77
		c-1.672-1.944-3.297-3.909-4.78-6.108c-0.744-1.089-1.433-2.285-2.049-3.581c-0.277-0.699-0.58-1.356-0.78-2.151l-0.277-1.197
		l-0.123-0.961c-1.305-10.12-0.119-20.02,1.709-31.131c0.981-5.507,2.032-11.4,3.185-17.876c0.563-3.223,1.039-6.539,1.439-10.078
		c0.377-3.577,0.772-7.325,1.188-11.27c0.355-3.213,2.18-9.941,3.48-9.103c1.443-0.621,1.921,6.332,1.639,9.577
		c-0.364,3.971-0.709,7.745-1.04,11.348c-0.36,3.635-0.812,7.129-1.335,10.392c-1.06,6.488-2.025,12.394-2.927,17.911
		c-1.655,10.923-2.575,20.387-1.297,29.37l0.112,0.824l0.145,0.555c0.085,0.373,0.304,0.813,0.464,1.231
		c0.435,0.872,0.951,1.776,1.587,2.683c1.248,1.816,2.76,3.631,4.367,5.463c3.221,3.679,6.887,7.391,10.58,11.856
		c1.829,2.264,3.721,4.663,5.303,7.749c0.777,1.543,1.469,3.321,1.751,5.433c0.319,2.079-0.14,4.761-1.545,6.739
		c-1.361,1.977-3.177,3.295-4.972,4.271c-1.813,0.939-3.655,1.627-5.559,2.155c-3.844,1.009-7.909,1.539-12.121,1.503
		c-8.624-0.017-16.063-1.808-22.578-4.035c-6.501-2.3-12.091-5.26-16.761-8.895c-4.631-3.629-8.436-8.063-10.372-13.377
		c-0.352-1.368-0.7-2.72-1.045-4.061c-0.179-1.171-0.356-2.333-0.532-3.488c-0.351-2.307-0.698-4.588-1.045-6.868
		c-1.401-9.136-2.803-18.272-4.469-29.144c-1.562-10.901-3.355-23.682-3.867-40.091c-0.113-3.285,0.967-12.428,2.36-11.679
		C237.495,389.642,238.73,398.65,238.914,401.85z"/>
	<path style="fill:#041717;" d="M290.193,316.301c-3.336-4.411-7.616-6.139-11.223-7.147c-3.685-0.963-6.979-1.163-10.252-1.139
		c-3.285,0.072-6.59,0.439-10.463,1.199c-3.873,0.784-8.318,1.96-13.633,4.351c-5.193,2.375-9.077,4.901-12.357,7.272
		c-3.275,2.387-5.991,4.599-8.587,6.965c-5.214,4.705-10.159,9.773-17.752,18.795c-0.779,0.917-3.062,2.356-3.695,1.5
		c-0.978-0.432-0.036-2.975,0.708-3.937c7.426-9.32,12.334-14.716,17.642-19.727c2.643-2.517,5.449-4.888,8.884-7.443
		c3.441-2.539,7.566-5.255,13.163-7.817c5.744-2.585,10.562-3.84,14.714-4.637c4.171-0.777,7.747-1.112,11.348-1.107
		c3.597,0.06,7.248,0.373,11.459,1.608c4.096,1.272,9.221,3.503,13.147,8.972c0.192,0.269,0.445,0.68,0.661,1.163
		c0.169,0.511,0.323,1.081,0.417,1.613c0.191,1.069,0.14,1.963-0.396,2.055c-0.404,0.332-1.207-0.136-1.947-0.751
		c-0.372-0.311-0.729-0.664-1.027-0.999C290.664,316.786,290.363,316.516,290.193,316.301z"/>
	<path style="fill:#041717;" d="M321.236,499.877c8.768,0.183,15.722-0.801,20.683-2.976c2.469-1.08,4.333-2.525,5.379-4.168
		c1.112-1.621,1.372-3.512,1.256-5.611c-0.204-1.949-0.805-3.517-2.265-4.976c-1.447-1.481-3.775-2.779-6.413-4.332
		c-2.636-1.571-5.813-3.368-8.765-6.468c-2.979-3.059-5.207-7.647-5.849-12.696c-0.577-4.952-0.067-9.198,0.499-12.938
		c0.567-3.764,1.343-7.068,2.075-10.151c1.504-6.147,3.035-11.316,4.601-16.466c3.147-10.28,6.688-20.406,11.999-37.234
		c0.54-1.712,2.725-5.047,3.933-4.28c1.439-0.015,1.469,3.993,0.993,5.749c-5.016,16.98-8.047,27.242-11.076,37.5
		c-1.445,5.117-2.875,10.235-4.277,16.196c-0.68,2.977-1.407,6.176-1.913,9.656c-0.524,3.484-0.913,7.239-0.457,11.116
		c0.549,3.941,2.039,6.928,4.151,9.155c2.107,2.249,4.727,3.831,7.321,5.387c2.588,1.585,5.28,3.008,7.629,5.405
		c2.405,2.365,3.78,5.844,3.92,9.003c-0.019,1.553,0.013,3.091-0.384,4.713c-0.429,1.585-1.041,3.208-2.061,4.595
		c-1.952,2.852-4.903,4.808-8.04,6.089c-6.368,2.547-13.852,3.249-23.123,2.867c-1.872-0.052-6.944-1.68-6.339-3.04
		C314.496,500.608,319.49,499.901,321.236,499.877z"/>
	<path style="fill:#041717;" d="M337.475,311.872c-4.888-3.172-8.015-4.3-11.084-5.311c-3.089-0.895-6.272-1.841-11.893-1.649
		c-1.372,0.08-2.609,0.143-3.724,0.389c-1.123,0.181-2.147,0.339-3.072,0.648c-1.892,0.448-3.451,1.072-5.015,1.697
		c-3.06,1.381-6.187,2.845-10.629,6.479c-0.461,0.347-2,0.496-2.596-0.348c-0.807-0.669-0.375-2.159,0.095-2.585
		c4.54-4.136,7.888-6.024,11.258-7.721c1.731-0.788,3.479-1.549,5.643-2.115c1.056-0.367,2.233-0.575,3.531-0.796
		c1.287-0.287,2.719-0.377,4.308-0.467c6.519-0.219,10.147,0.959,13.564,2.121c3.392,1.293,6.753,2.8,11.848,6.515
		c0.5,0.401,1.379,2.131,0.623,2.853C339.793,312.469,337.95,312.188,337.475,311.872z"/>
	<path style="fill:#041717;" d="M342.691,314.066c-3.219-7.663-4.283-12.11-5.592-16.539c-1.153-4.445-2.263-8.908-3.744-16.81
		c-2.788-15.479-3.048-18.744-4.736-34.351c-0.064-0.801,0.876-2.632,2.265-2.612c1.344-0.339,2.699,1.181,2.835,1.961
		c2.511,15.352,3.197,18.54,5.955,33.807c1.465,7.789,2.448,12.163,3.367,16.549c1.051,4.317,1.824,8.826,4.407,16.043
		c0.253,0.695,0.029,3.148-1.272,3.596C345.014,316.493,343.057,314.84,342.691,314.066z"/>
	<path style="fill:#041717;" d="M201.794,339.465c-0.293,2.66-0.474,5.333-0.099,7.505c0.074,0.563,0.219,1.017,0.365,1.428
		l0.142,0.312l0.115,0.14l0.327,0.108l1.236-0.233c5.036-0.98,9.828-1.912,14.41-2.804c9.155-1.843,17.45-3.605,25.152-5.315
		c3.847-0.873,7.549-1.715,11.142-2.531c1.619-0.381,3.214-0.757,4.787-1.128c1.118-0.995,2.221-1.975,3.311-2.944
		c5.47-4.676,11.293-8.669,17.925-11.355c3.329-1.291,6.888-2.216,10.605-2.424c3.685-0.276,7.584,0.411,10.876,1.293
		c0.712,0.151,1.851,0.524,2.807,0.827c0.975,0.384,1.965,0.847,2.884,1.417c1.88,1.141,3.433,2.785,4.689,4.576
		c2.361,3.699,3.288,7.891,3.517,11.965c0.259,4.111-0.12,8.235-0.86,12.408c-0.731,4.18-1.861,8.407-3.355,12.732
		c-0.767,2.159-1.619,4.341-2.641,6.552c-0.516,1.105-1.063,2.216-1.712,3.347c-0.309,0.561-0.664,1.137-1.057,1.719
		c-0.417,0.553-0.711,1.176-1.728,2.063c-0.785,0.967-1.968,1.235-3.076,1.524c-0.559,0.096-1.213-0.051-1.795-0.1l-1.011-0.119
		c-1.369-0.225-2.768-0.505-4.219-1.012c-1.44-0.493-2.964-1.223-4.399-2.44c-0.361-0.289-0.703-0.649-1.031-1.035l-0.471-0.604
		l-0.22-0.328l0.043,0.052l-0.001-0.001l-0.001,0.001h0.001c-0.735,0.336-1.672,0.765-2.751,1.26
		c-2.216,0.988-5.012,2.235-7.888,3.516c-22.15,9.624-40.364,16.34-56.711,21.239c-8.178,2.433-15.894,4.401-23.466,5.823
		c-7.574,1.391-15.005,2.327-22.672,2c-3.843-0.319-7.755-0.796-11.656-2.364c-1.917-0.893-3.848-1.865-5.529-3.415
		c-0.936-0.675-1.545-1.533-2.26-2.343c-0.743-0.792-1.298-1.701-1.863-2.611c-4.463-7.397-5.27-16.075-4.927-24.73
		c0.351-8.749,2.059-17.847,4.552-27.599c2.545-9.744,5.973-20.136,10.43-31.399c1.773-4.625,7.045-13.763,7.877-12.142
		c1.653-0.439-1.421,9.452-3.089,14.015c-8.462,22.232-13.406,40.986-14.074,57.333c-0.291,8.089,0.74,15.78,4.249,21.379
		c0.438,0.692,0.858,1.396,1.423,1.959c0.532,0.583,1.005,1.273,1.623,1.653c1.063,0.995,2.463,1.668,3.859,2.327
		c2.947,1.165,6.32,1.588,9.696,1.843c6.86,0.243,13.934-0.659,21.198-2.041c7.277-1.407,14.796-3.355,22.805-5.765
		c16.011-4.853,34.028-11.522,55.957-21.055c2.845-1.268,5.612-2.5,7.804-3.477c3-1.389,5.215-2.413,5.961-2.759
		c1.028,0.771,2.047,1.536,2.281,1.711c0.431,0.305,1.133,0.915,2.301,1.617l0.241,0.515l0.053,0.08l0.131,0.165l0.344,0.339
		c0.541,0.456,1.341,0.905,2.292,1.22c0.937,0.333,1.993,0.548,3.059,0.728l0.821,0.095l0.005,0.003l0.004-0.001
		c-0.109,0.127,0.256-0.303,0.517-0.712c0.275-0.405,0.545-0.836,0.804-1.307c0.525-0.911,1.012-1.889,1.469-2.868
		c0.913-1.967,1.705-3.977,2.416-5.967c2.741-7.972,4.305-15.768,3.939-22.642c-0.16-3.429-0.973-6.563-2.444-8.896
		c-1.601-2.295-3.572-3.583-6.647-4.245c-3.281-0.885-6.076-1.365-9.059-1.187c-2.941,0.144-5.868,0.865-8.729,1.945
		c-5.713,2.257-11.131,5.829-16.324,10.2l-1.934,1.692l-0.976,0.853l-0.79,0.692c-0.33,0.263-0.599,0.644-1.059,0.656
		c-1.924,0.435-3.873,0.875-5.853,1.32c-3.619,0.785-7.349,1.595-11.222,2.436c-7.755,1.641-16.102,3.329-25.312,5.093
		c-4.612,0.852-9.436,1.744-14.506,2.683l-0.994,0.175c-0.527,0.073-1.035,0.193-1.583,0.229c-1.141,0.041-2.288-0.435-3.161-1.207
		c-0.427-0.392-0.817-0.852-1.163-1.328c-0.31-0.592-0.612-1.088-0.733-1.476c-0.309-0.845-0.532-1.679-0.635-2.46
		c-0.493-3.175-0.199-6.08,0.137-9.041c0.333-2.547,1.523-7.199,2.967-10.903c1.443-3.712,2.943-6.561,3.44-5.836
		c0.822-0.335,0.541,2.864,0.026,6.707C202.643,332.668,202.086,337.129,201.794,339.465z"/>
	<path style="fill:#041717;" d="M334.677,339.697c0.191,7.682,1.169,13.669,2.759,18.422c1.589,4.719,3.877,8.329,7.059,10.071
		c1.552,0.867,3.428,1.3,5.291,1.221c1.805-0.076,3.615-0.785,5.319-2.212c3.427-2.875,6.148-8.343,7.69-15.609
		c1.411-7.188,1.225-13.224,0.336-18.21c-0.952-4.945-2.584-9.119-5.369-11.928c-1.42-1.401-2.953-2.384-5.056-2.913
		c-1.045-0.288-2.113-0.643-3.2-0.655c-0.539-0.02-1.111-0.18-1.649-0.103c-0.543,0.055-1.095,0.112-1.656,0.169
		c-2.181,0.433-4.347,1.597-6.173,3.716c-1.82,2.104-3.341,5.015-4.343,8.504c-0.483,1.384-1.859,4.339-2.801,3.905
		c-1.12,0.259-1.4-3.345-0.909-4.953c1.043-3.907,2.675-7.343,4.941-10.095c2.249-2.768,5.349-4.62,8.453-5.272
		c0.78-0.097,1.547-0.195,2.301-0.291c0.757-0.099,1.471,0.052,2.193,0.072c1.469,0.019,2.765,0.4,4.056,0.731
		c2.603,0.58,5.196,2.075,7.064,3.933c3.84,3.805,5.687,8.744,6.827,14.307c1.037,5.617,1.255,12.148-0.289,20.048
		c-1.741,7.993-4.612,14.271-9.36,18.303c-2.36,1.983-5.328,3.179-8.193,3.241c-2.8,0.076-5.421-0.593-7.744-1.927
		c-4.669-2.753-7.192-7.471-8.86-12.736c-1.649-5.363-2.501-11.693-2.539-19.702c-0.028-1.609,1.011-6.057,2.053-5.613
		C333.89,333.856,334.595,338.171,334.677,339.697z"/>
	<path style="fill:#041717;" d="M306.466,297.121c0.287-8.169,0.209-9.296,0.823-17.442c0.601-7.972,0.887-9.621,1.804-17.57
		c0.057-0.404,0.988-1.2,2.011-1.032c1.035-0.015,1.836,0.912,1.833,1.321c-0.279,7.995-0.243,9.668-0.837,17.64
		c-0.608,8.147-0.852,9.249-1.788,17.371c-0.059,0.404-1.009,1.476-2.032,1.307C307.244,298.733,306.463,297.53,306.466,297.121z"/>
</g>
</svg>
